<svg xmlns="http://www.w3.org/2000/svg" xmlns:xlink="http://www.w3.org/1999/xlink" width="101.117" height="25.974" viewBox="0 0 101.117 25.974">
    <defs>
        <linearGradient id="umr8syprla" x1="2.6" y1="-2.319" x2="2.6" y2="-1.123" gradientUnits="objectBoundingBox">
            <stop offset="0" stop-color="#0900fb"/>
            <stop offset="1" stop-color="#1867ff"/>
        </linearGradient>
        <linearGradient id="59915bpxcb" x1="-5.015" y1="-2.925" x2="-5.015" y2="-1.729" gradientUnits="objectBoundingBox">
            <stop offset="0" stop-color="#1967ff"/>
            <stop offset="1" stop-color="#1967ff"/>
        </linearGradient>
        <linearGradient id="nsni9dz6hc" x1="-11.685" y1="-6.663" x2="-11.685" y2="-5.467" gradientUnits="objectBoundingBox">
            <stop offset="0" stop-color="#0d20fc"/>
            <stop offset="1" stop-color="#1866ff"/>
        </linearGradient>
        <linearGradient id="al3y18djrd" x1="1.053" y1="1.283" x2=".192" y2=".276" xlink:href="#umr8syprla"/>
        <linearGradient id="7x7fnxqdce" x1="-.644" y1="1.507" x2=".839" y2=".362" gradientUnits="objectBoundingBox">
            <stop offset="0" stop-color="#202864"/>
            <stop offset="1" stop-color="#1967ff"/>
        </linearGradient>
        <linearGradient id="d5u092yc2f" x1="-.535" y1="1.133" x2="1.386" y2=".11" gradientUnits="objectBoundingBox">
            <stop offset="0" stop-color="#0d1dfc"/>
            <stop offset="1" stop-color="#1967ff"/>
        </linearGradient>
    </defs>
    <g data-name="Group 60393">
        <g data-name="Group 60390">
            <path data-name="Path 67898" d="m178.667 211.437-11.485-6.286a2.251 2.251 0 0 0-3.25 2.161v12.573a2.251 2.251 0 0 0 3.25 2.161l11.485-6.286a2.515 2.515 0 0 0 0-4.323z" transform="translate(-163.932 -196.335)" style="fill:url(#umr8syprla)"/>
            <path data-name="Path 67899" d="m174.665 182.637 6.3 3.448a1.235 1.235 0 0 0 1.783-1.185V178a1.235 1.235 0 0 0-1.783-1.185l-6.3 3.448a1.379 1.379 0 0 0 0 2.374z" transform="translate(-170.943 -176.673)" style="fill:url(#59915bpxcb)"/>
            <path data-name="Path 67900" d="m206.641 207.213 3.1 1.7a.608.608 0 0 0 .878-.584v-3.4a.608.608 0 0 0-.878-.584l-3.1 1.7a.68.68 0 0 0 0 1.168z" transform="translate(-193.465 -195.909)" style="fill:url(#nsni9dz6hc)"/>
            <path data-name="Path 67901" d="m167.182 208.485 11.485 6.286a2.278 2.278 0 0 1 .612.494 2.531 2.531 0 0 0-.612-3.828l-11.485-6.286a2.251 2.251 0 0 0-3.25 2.161v3.334a2.251 2.251 0 0 1 3.25-2.161z" transform="translate(-163.932 -196.335)" style="fill:url(#al3y18djrd)"/>
            <path data-name="Path 67902" d="m180.968 176.818-6.3 3.448a1.38 1.38 0 0 0-.075 2.322c.025-.016.048-.034.075-.048l6.3-3.448a1.235 1.235 0 0 1 1.783 1.185V178a1.235 1.235 0 0 0-1.783-1.182z" transform="translate(-170.946 -176.673)" style="fill:url(#7x7fnxqdce)"/>
            <path data-name="Path 67903" d="m209.744 204.346-3.1 1.7a.68.68 0 0 0 0 1.168l.41.225 2.692-1.474a.608.608 0 0 1 .878.584v-1.619a.608.608 0 0 0-.88-.584z" transform="translate(-193.465 -195.909)" style="fill:url(#d5u092yc2f)"/>
        </g>
        <path data-name="Path 67918" d="m23.702 4.338 4.137 10.368 4.2-10.367h2.471l-6.719 16.083-6.559-16.084zm14.621 5.523v9.437h-2.18V9.861zm-2.509-3.924a1.35 1.35 0 0 1 .417-.988 1.361 1.361 0 0 1 1-.417 1.373 1.373 0 0 1 1.008.417 1.341 1.341 0 0 1 .417 1 1.373 1.373 0 0 1-.417 1.008 1.341 1.341 0 0 1-1 .417 1.373 1.373 0 0 1-1.008-.417 1.384 1.384 0 0 1-.418-1.02zm5.271 3.924h2.18v.872a4.555 4.555 0 0 1 1.075-.891 2.609 2.609 0 0 1 1.192-.242 2.893 2.893 0 0 1 2.529 1.4 3.273 3.273 0 0 1 2.781-1.4q3.188 0 3.188 3.866v5.833h-2.19v-5.242a4.044 4.044 0 0 0-.329-1.918 1.194 1.194 0 0 0-1.114-.572 1.421 1.421 0 0 0-1.313.678 4.368 4.368 0 0 0-.412 2.18v4.874h-2.191v-5.213q0-2.519-1.453-2.519a1.457 1.457 0 0 0-1.342.688 4.29 4.29 0 0 0-.421 2.17v4.874h-2.18zm24.822 9.218q0 .669-.044 1.177a8.182 8.182 0 0 1-.121.9 3.991 3.991 0 0 1-.91 1.823 4.414 4.414 0 0 1-3.517 1.473 4.694 4.694 0 0 1-3.11-1.017 4.159 4.159 0 0 1-1.453-2.9h2.19a2.48 2.48 0 0 0 .417 1.075 2.342 2.342 0 0 0 1.977.882q2.393 0 2.393-2.936v-1.318a4.071 4.071 0 0 1-2.994 1.327 4.021 4.021 0 0 1-3.159-1.4 5.17 5.17 0 0 1-1.24-3.536 5.444 5.444 0 0 1 1.155-3.499 4.007 4.007 0 0 1 3.275-1.531 3.8 3.8 0 0 1 2.965 1.327V9.86h2.18zm-2.092-4.48a3.177 3.177 0 0 0-.736-2.2 2.435 2.435 0 0 0-1.909-.843 2.347 2.347 0 0 0-1.957.92 3.341 3.341 0 0 0-.649 2.132 3.309 3.309 0 0 0 .649 2.112 2.35 2.35 0 0 0 1.957.9 2.394 2.394 0 0 0 1.977-.911 3.244 3.244 0 0 0 .668-2.11zm11.8-4.738h2.19v9.437h-2.19v-.988a4.181 4.181 0 0 1-2.9 1.26 4.174 4.174 0 0 1-3.236-1.415 5.261 5.261 0 0 1-1.269-3.6 5.1 5.1 0 0 1 1.269-3.536 4.091 4.091 0 0 1 3.182-1.42 4.013 4.013 0 0 1 2.955 1.356zm-5.174 4.689a3.287 3.287 0 0 0 .727 2.209 2.38 2.38 0 0 0 1.88.862 2.5 2.5 0 0 0 1.957-.833 3.227 3.227 0 0 0 .746-2.19 3.227 3.227 0 0 0-.746-2.19 2.467 2.467 0 0 0-1.938-.843 2.41 2.41 0 0 0-1.88.853 3.143 3.143 0 0 0-.745 2.133zm19.243 4.529q0 .669-.044 1.177a8.183 8.183 0 0 1-.121.9 3.991 3.991 0 0 1-.91 1.823 4.414 4.414 0 0 1-3.518 1.474 4.694 4.694 0 0 1-3.11-1.017 4.159 4.159 0 0 1-1.453-2.9h2.19a2.48 2.48 0 0 0 .417 1.075 2.342 2.342 0 0 0 1.977.882q2.393 0 2.393-2.936v-1.318a4.071 4.071 0 0 1-2.994 1.327 4.021 4.021 0 0 1-3.159-1.4 5.17 5.17 0 0 1-1.24-3.536 5.444 5.444 0 0 1 1.153-3.507 4.007 4.007 0 0 1 3.275-1.531 3.8 3.8 0 0 1 2.965 1.327V9.853h2.18zm-2.093-4.48a3.177 3.177 0 0 0-.736-2.2 2.435 2.435 0 0 0-1.909-.843 2.347 2.347 0 0 0-1.955.923 3.341 3.341 0 0 0-.649 2.132 3.309 3.309 0 0 0 .649 2.112 2.35 2.35 0 0 0 1.957.9 2.394 2.394 0 0 0 1.977-.911 3.244 3.244 0 0 0 .666-2.113zm13.439.494h-6.763a2.866 2.866 0 0 0 .756 1.851 2.3 2.3 0 0 0 1.715.678 2.231 2.231 0 0 0 1.347-.388 5.515 5.515 0 0 0 1.192-1.434l1.841 1.027a7.323 7.323 0 0 1-.9 1.245 4.791 4.791 0 0 1-1.017.853 4.08 4.08 0 0 1-1.172.489 5.707 5.707 0 0 1-1.366.155 4.442 4.442 0 0 1-3.391-1.356 5.088 5.088 0 0 1-1.281-3.624 5.228 5.228 0 0 1 1.24-3.624 4.276 4.276 0 0 1 3.314-1.366 4.238 4.238 0 0 1 3.294 1.327 5.221 5.221 0 0 1 1.2 3.653zm-2.239-1.783a2.088 2.088 0 0 0-2.2-1.744 2.259 2.259 0 0 0-.746.121 2.135 2.135 0 0 0-.635.349 2.211 2.211 0 0 0-.489.547 2.544 2.544 0 0 0-.31.727z"/>
    </g>
</svg>
