<svg xmlns="http://www.w3.org/2000/svg" width="119.532" height="23.623" viewBox="0 0 119.532 23.623">
    <g data-name="Group 60470">
        <g data-name="Group 2">
            <g data-name="Group 1">
                <path data-name="Path 1" d="M90.514 184.915h-5.072v-.874a2.753 2.753 0 0 0-2.75-2.75H68.646a2.753 2.753 0 0 0-2.75 2.75v11.585a2.753 2.753 0 0 0 2.75 2.75h.465v3.224a.8.8 0 0 0 1.341.593l2.035-1.851A2.754 2.754 0 0 0 75.011 202h7.743l4.231 2.607a.8.8 0 0 0 1.222-.683V202h2.306a2.753 2.753 0 0 0 2.75-2.75v-11.584a2.753 2.753 0 0 0-2.75-2.75zm-20.6 11.858h-1.268a1.148 1.148 0 0 1-1.147-1.147v-11.585a1.148 1.148 0 0 1 1.147-1.147h14.046a1.148 1.148 0 0 1 1.147 1.147v11.585a1.148 1.148 0 0 1-1.147 1.147h-8.355a.8.8 0 0 0-.54.209l-3.083 2.805v-2.212a.8.8 0 0 0-.8-.8zm21.748 2.478a1.148 1.148 0 0 1-1.147 1.147h-3.108a.8.8 0 0 0-.8.8v1.291l-3.2-1.973a.8.8 0 0 0-.421-.119h-7.975a1.148 1.148 0 0 1-1.147-1.147v-.162l.783-.712h8.044a2.753 2.753 0 0 0 2.75-2.75v-9.107h5.072a1.148 1.148 0 0 1 1.147 1.147z" transform="translate(-65.896 -181.291)" style="fill:#1867ff"/>
                <path data-name="Icon awesome-play" d="M6.184 3.13 1.055.1A.7.7 0 0 0 0 .7v6.063a.7.7 0 0 0 1.055.6l5.129-3.029a.7.7 0 0 0 0-1.204z" transform="translate(6.914 4.739)" style="fill:#1867ff"/>
            </g>
        </g>
        <path data-name="Path 67946" d="M39.588 15.629 35.899 4.966h-2.882l4.918 13.411h3.266l4.918-13.411h-2.863zm8.146 2.747h2.69V7.733h-2.69zm1.364-11.912a1.589 1.589 0 0 0 1.649-1.575 1.589 1.589 0 0 0-1.652-1.575 1.577 1.577 0 0 0-1.648 1.575 1.577 1.577 0 0 0 1.652 1.576zM60.53 18.377h2.69v-6.244c0-2.94-1.768-4.553-4.246-4.553a3.976 3.976 0 0 0-3.209 1.479V7.733h-2.69v10.644h2.69v-5.879a2.311 2.311 0 0 1 2.4-2.632c1.422 0 2.363.922 2.363 2.632zm4.553-5.36c0 3.324 2.152 5.533 4.861 5.533a4.2 4.2 0 0 0 3.516-1.748v1.652a2.49 2.49 0 0 1-2.632 2.824 2.5 2.5 0 0 1-2.613-1.595h-2.668c.269 2.44 2.363 3.939 5.36 3.939a4.865 4.865 0 0 0 5.262-5.168V7.733H73.46v1.513a4.164 4.164 0 0 0-3.513-1.686c-2.711 0-4.863 2.133-4.863 5.456zm8.377.038a2.866 2.866 0 0 1-2.824 3.132 2.909 2.909 0 0 1-2.805-3.17 2.839 2.839 0 0 1 2.805-3.093 2.866 2.866 0 0 1 2.824 3.131zm4.649-.038c.001 3.323 2.153 5.529 4.838 5.529a4.2 4.2 0 0 0 3.54-1.725v1.556h2.709V7.733h-2.709v1.513a4.209 4.209 0 0 0-3.516-1.691c-2.709.005-4.861 2.138-4.861 5.461zm8.377.038a2.866 2.866 0 0 1-2.824 3.132 2.909 2.909 0 0 1-2.805-3.171 2.839 2.839 0 0 1 2.805-3.093 2.866 2.866 0 0 1 2.825 3.132zm4.65-.038c0 3.323 2.152 5.529 4.861 5.529a4.2 4.2 0 0 0 3.516-1.748v1.652a2.49 2.49 0 0 1-2.632 2.828 2.5 2.5 0 0 1-2.613-1.595h-2.671c.269 2.44 2.363 3.939 5.36 3.939a4.865 4.865 0 0 0 5.264-5.168V7.733h-2.708v1.513a4.164 4.164 0 0 0-3.516-1.691c-2.709.005-4.861 2.138-4.861 5.461zm8.377.038a2.866 2.866 0 0 1-2.824 3.132 2.909 2.909 0 0 1-2.805-3.171 2.839 2.839 0 0 1 2.805-3.093 2.866 2.866 0 0 1 2.824 3.132zm9.914-3.285a2.365 2.365 0 0 1 2.536 2.286h-5.053a2.472 2.472 0 0 1 2.517-2.286zm5.053 5.264h-2.9a2.193 2.193 0 0 1-2.133 1.287 2.49 2.49 0 0 1-2.555-2.459h7.781a6.287 6.287 0 0 0 .074-1.038 5 5 0 0 0-5.245-5.264 5.114 5.114 0 0 0-5.341 5.495 5.155 5.155 0 0 0 5.343 5.491 4.947 4.947 0 0 0 4.976-3.512zm5.053 1.9a1.572 1.572 0 0 0-1.633-1.575 1.583 1.583 0 0 0-1.672 1.577 1.583 1.583 0 0 0 1.672 1.575 1.572 1.572 0 0 0 1.633-1.575z"/>
    </g>
</svg>
