<svg xmlns="http://www.w3.org/2000/svg" width="253.917" height="187" viewBox="0 0 253.917 187">
    <g data-name="No data-pana">
        <path data-name="Rectangle 8506" transform="rotate(-33.78 141.657 26.802)" style="fill:#f5f5f5" d="M0 0h56.979v83.901H0z"/>
        <path data-name="Path 68872" d="m239.451 275.014-.536 3.326-23.545-3.394.536-3.326z" transform="translate(-160.902 -156.969)" style="fill:#e0e0e0"/>
        <path data-name="Path 68873" d="m239.2 251.55 3.377.485-3.744 23.182-3.381-.49z" transform="translate(-172.506 -145.371)" style="fill:#e0e0e0"/>
        <path data-name="Path 68874" d="M163.81 181.749c.034.046-4.711 3.284-10.6 7.218s-10.688 7.091-10.721 7.041 4.711-3.284 10.6-7.222 10.666-7.086 10.721-7.037z" transform="translate(-118.785 -105.032)" style="fill:#e0e0e0"/>
        <path data-name="Path 68875" d="M185.78 171.39c.034.051-7.86 5.386-17.627 11.92s-17.728 11.79-17.753 11.742 7.851-5.39 17.631-11.924 17.716-11.789 17.749-11.738z" transform="translate(-123.356 -99.046)" style="fill:#e0e0e0"/>
        <path data-name="Path 68876" d="M194.05 183.749c.034.051-7.859 5.39-17.627 11.924s-17.723 11.79-17.753 11.739 7.859-5.386 17.631-11.924 17.716-11.788 17.749-11.739z" transform="translate(-128.135 -106.188)" style="fill:#e0e0e0"/>
        <path data-name="Path 68877" d="M202.355 196.119c.034.051-7.859 5.39-17.627 11.92S167 219.833 167 219.782s7.855-5.39 17.627-11.924 17.694-11.789 17.728-11.739z" transform="translate(-132.949 -113.337)" style="fill:#e0e0e0"/>
        <path data-name="Path 68878" d="M210.566 208.49c.034.051-7.859 5.386-17.627 11.92s-17.728 11.79-17.749 11.738 7.868-5.386 17.648-11.92 17.728-11.789 17.728-11.738z" transform="translate(-137.682 -120.486)" style="fill:#e0e0e0"/>
        <path data-name="Rectangle 8507" transform="rotate(-33.78 293.226 -225.65)" style="fill:#f5f5f5" d="M0 0h47.854v70.461H0z"/>
        <path data-name="Path 68879" d="m611.507 361.279-.452 2.794-19.775-2.849.456-2.794z" transform="translate(-378.14 -207.136)" style="fill:#e0e0e0"/>
        <path data-name="Path 68880" d="m611.3 341.57 2.836.409-3.145 19.467-2.841-.409z" transform="translate(-387.89 -197.393)" style="fill:#e0e0e0"/>
        <path data-name="Path 68881" d="M547.939 283c.034.051-3.947 2.773-8.894 6.078s-8.982 5.947-9.016 5.909 3.951-2.769 8.894-6.078 8.983-5.983 9.016-5.909z" transform="translate(-342.744 -163.544)" style="fill:#e0e0e0"/>
        <path data-name="Path 68882" d="M566.46 274.249c.034.051-6.589 4.542-14.773 10.025s-14.883 9.9-14.917 9.848 6.589-4.542 14.774-10.029 14.87-9.893 14.916-9.844z" transform="translate(-346.639 -158.488)" style="fill:#e0e0e0"/>
        <path data-name="Path 68883" d="M573.41 284.629c.034.051-6.589 4.542-14.773 10.029s-14.883 9.894-14.917 9.843 6.568-4.521 14.773-10.008 14.892-9.91 14.917-9.864z" transform="translate(-350.655 -164.487)" style="fill:#e0e0e0"/>
        <path data-name="Path 68884" d="M580.35 295c.034.051-6.593 4.542-14.774 10.029s-14.883 9.894-14.917 9.843 6.589-4.538 14.774-10.029 14.888-9.886 14.917-9.843z" transform="translate(-354.666 -170.48)" style="fill:#e0e0e0"/>
        <path data-name="Path 68885" d="M587.35 305.409c.034.051-6.589 4.538-14.773 10.025s-14.883 9.894-14.917 9.848 6.589-4.542 14.774-10.029 14.866-9.894 14.916-9.844z" transform="translate(-358.711 -176.496)" style="fill:#e0e0e0"/>
        <path data-name="Rectangle 8508" transform="rotate(28.14 -7.56 231.767)" style="fill:#f5f5f5" d="M0 0h49.217v72.47H0z"/>
        <path data-name="Path 68886" d="m334.082 205.914-2.752.941-6.99-19.32 2.756-.946z" transform="translate(-223.876 -107.83)" style="fill:#e0e0e0"/>
        <path data-name="Path 68887" d="m331.149 199.53 1 2.773-19.189 6.572-1-2.773z" transform="translate(-216.722 -115.308)" style="fill:#e0e0e0"/>
        <path data-name="Path 68888" d="M362.969 117.7c-.034.063-4.432-2.224-9.831-5.107s-9.742-5.276-9.708-5.34 4.436 2.224 9.835 5.107 9.735 5.268 9.704 5.34z" transform="translate(-234.908 -61.978)" style="fill:#e0e0e0"/>
        <path data-name="Path 68889" d="M370.017 135.489c-.034.063-7.319-3.769-16.272-8.556s-16.179-8.721-16.145-8.784 7.315 3.765 16.268 8.556 16.183 8.721 16.149 8.784z" transform="translate(-231.539 -68.278)" style="fill:#e0e0e0"/>
        <path data-name="Path 68890" d="M363.957 146.819c-.034.063-7.319-3.765-16.272-8.556s-16.179-8.721-16.145-8.784 7.315 3.769 16.268 8.556 16.183 8.721 16.149 8.784z" transform="translate(-228.037 -74.825)" style="fill:#e0e0e0"/>
        <path data-name="Path 68891" d="M357.9 158.154c-.034.063-7.319-3.765-16.272-8.552s-16.179-8.708-16.145-8.784 7.315 3.765 16.268 8.552 16.18 8.721 16.149 8.784z" transform="translate(-224.535 -81.378)" style="fill:#e0e0e0"/>
        <path data-name="Path 68892" d="M351.837 169.485c-.034.063-7.319-3.765-16.272-8.552s-16.183-8.721-16.145-8.784 7.315 3.765 16.268 8.552 16.183 8.72 16.149 8.784z" transform="translate(-221.032 -87.926)" style="fill:#e0e0e0"/>
        <path data-name="Rectangle 8509" transform="translate(129.939)" style="opacity:.2" d="M0 0h1.089v18.564H0z"/>
        <g>
            <path data-name="Path 68893" d="M335.23 66.452h50.846S381.383 44 360.269 44c-18.779 0-25.039 22.452-25.039 22.452z" transform="translate(-230.169 -25.428)" style="fill:#c7d5ff"/>
            <path data-name="Rectangle 8510" transform="translate(129.94)" style="fill:#c7d5ff" d="M0 0h1.089v18.564H0z"/>
        </g>
        <g>
            <path data-name="Path 68894" d="M330.026 439.68c0 .059-54.557.11-121.844.11s-121.852-.038-121.852-.11 54.548-.11 121.852-.11 121.844.046 121.844.11z" transform="translate(-86.33 -254.027)" style="fill:#263238"/>
        </g>
        <g>
            <path data-name="Path 68895" d="M116.139 377.194a5.327 5.327 0 0 1 3.706 1.9 9.35 9.35 0 0 1 1.887 3.8 16.6 16.6 0 0 1-.485 8.476c-2.887-1.034-4.673-4.115-5.487-5.736-1.266-2.558-2.022-7.961.367-8.442" transform="translate(-102.649 -217.978)" style="fill:#c7d5ff"/>
            <path data-name="Path 68896" d="M139.25 407.973a4.533 4.533 0 0 1-.211-4.55 6.019 6.019 0 0 1 3.63-2.917 2.526 2.526 0 0 1 2.136.1 1.933 1.933 0 0 1 .747 1.819 3.913 3.913 0 0 1-.844 1.866c-1.406 1.9-3.111 3.487-5.487 3.681" transform="translate(-116.494 -231.345)" style="fill:#c7d5ff"/>
            <path data-name="Path 68897" d="M139.873 421.307a2.741 2.741 0 0 1-.131-.553c-.076-.4-.177-.907-.3-1.52a15.943 15.943 0 0 1-.312-5.112 9.709 9.709 0 0 1 1.9-4.732 6.463 6.463 0 0 1 1.093-1.11 3.874 3.874 0 0 1 .346-.245.487.487 0 0 1 .127-.076 10.708 10.708 0 0 0-1.456 1.515 10.067 10.067 0 0 0-1.807 4.677 17.162 17.162 0 0 0 .257 5.065c.1.646.186 1.169.232 1.532a3.476 3.476 0 0 1 .051.559z" transform="translate(-116.797 -235.76)" style="fill:#263238"/>
            <path data-name="Path 68898" d="M120.49 386.83a.987.987 0 0 1 .118.215c.076.169.177.38.3.646.257.561.616 1.376 1.051 2.385.87 2.022 2.035 4.833 3.25 7.965s2.25 5.99 2.955 8.071c.363 1.038.646 1.883.844 2.469.089.279.156.5.211.675a1.1 1.1 0 0 1 .063.241 1.038 1.038 0 0 1-.1-.228c-.063-.169-.144-.388-.249-.663l-.891-2.448c-.756-2.064-1.811-4.917-3.022-8.045s-2.36-5.947-3.2-7.982c-.422-1-.747-1.815-.988-2.41-.11-.27-.2-.485-.266-.659a1.473 1.473 0 0 1-.076-.232z" transform="translate(-106.071 -223.549)" style="fill:#263238"/>
            <path data-name="Path 68899" d="M118.312 418.574a10.629 10.629 0 0 0-8.239-5.12c-.844-.059-1.883.084-2.262.844a2.191 2.191 0 0 0 .709 2.3 9.071 9.071 0 0 0 9.822 2.195" transform="translate(-98.667 -238.928)" style="fill:#c7d5ff"/>
            <path data-name="Path 68900" d="M116.43 418.885a3.015 3.015 0 0 1 .536.021 5.093 5.093 0 0 1 .62.072c.241.046.523.072.819.156a8.184 8.184 0 0 1 .975.27 9.667 9.667 0 0 1 1.085.422 11.735 11.735 0 0 1 2.288 1.355 11.527 11.527 0 0 1 1.891 1.874 9.494 9.494 0 0 1 .663.95 9.259 9.259 0 0 1 .5.882 7.346 7.346 0 0 1 .338.76 4.792 4.792 0 0 1 .215.591 2.879 2.879 0 0 1 .139.519c-.046 0-.249-.726-.819-1.807a9.283 9.283 0 0 0-.511-.844 10.694 10.694 0 0 0-.667-.924 11.249 11.249 0 0 0-4.111-3.174c-.367-.16-.718-.312-1.059-.422a9.225 9.225 0 0 0-.958-.291c-1.184-.326-1.948-.364-1.944-.41z" transform="translate(-103.725 -242.071)" style="fill:#263238"/>
        </g>
        <g>
            <path data-name="Path 68901" d="M561.7 104.278c-1.241.283-1.845 1.714-1.963 2.98a11.4 11.4 0 0 1-.49 3.765c-.6 1.3-2.03 2.262-2.077 3.693-.03.874.49 1.688.464 2.571-.042 1.435-1.5 2.533-1.583 3.951-.055 1.034.633 2.022.469 3.043-.127.794-.747 1.418-1.009 2.178-.519 1.52.523 3.187 1.878 4.04a6.158 6.158 0 0 0 8.97-2.862 12.553 12.553 0 0 0 .422-5.842q-.76-9.185-1.131-18.4" transform="translate(-357.392 -59.755)" style="fill:#263238"/>
            <path data-name="Path 68902" d="M561.82 127.719a1.44 1.44 0 0 0 .57-.671 2.444 2.444 0 0 0 .143-1.034 5.684 5.684 0 0 0-.308-1.363 3.929 3.929 0 0 1-.219-1.731 3.976 3.976 0 0 1 1-1.731 3.7 3.7 0 0 0 .57-.865 1.4 1.4 0 0 0 .067-1.013c-.219-.688-.895-1.195-1.2-1.992a2.112 2.112 0 0 1-.068-1.233 4.89 4.89 0 0 1 .422-1.1 9.46 9.46 0 0 0 .844-1.988c.3-1.338.156-2.617.359-3.668a4.061 4.061 0 0 1 1.068-2.246 2.453 2.453 0 0 1 .557-.422.874.874 0 0 1 .224-.08 3.247 3.247 0 0 0-.722.54 4.128 4.128 0 0 0-.975 2.216 13.751 13.751 0 0 0-.118 1.688 10.383 10.383 0 0 1-.194 1.98 9.484 9.484 0 0 1-.844 2.035 2.786 2.786 0 0 0-.329 2.165c.279.726.95 1.228 1.207 2a1.638 1.638 0 0 1-.08 1.161 3.993 3.993 0 0 1-.633.95 4 4 0 0 0-.984 1.629 3.8 3.8 0 0 0 .194 1.659 5.747 5.747 0 0 1 .279 1.4 2.368 2.368 0 0 1-.19 1.072 1.292 1.292 0 0 1-.422.532.668.668 0 0 1-.218.11z" transform="translate(-361.115 -61.592)" style="fill:#455a64"/>
            <path data-name="Path 68903" d="m523.418 180.37-3.8 10.975-15.888.844-2.65 5.911 16.589 1.688a6.268 6.268 0 0 0 8.282-3.685l4.428-12.359z" transform="translate(-326.014 -104.236)" style="fill:#b78876"/>
            <path data-name="Path 68904" d="M591.392 326.036s-11.642-36.985-11.892-38.184c-.224-1.089 4.221-27.7 4.787-34.612l-15.732.587v.156l-6.686.371 5.985 75.607h7.239l-.718-25.094a244.749 244.749 0 0 0 10.865 24.2z" transform="translate(-361.144 -146.347)" style="fill:#b78876"/>
            <path data-name="Path 68905" d="M588.367 375.014c0-.228-.089-8.408-.089-8.408-.089.49-2.773-7.1-2.71-7.56.032-.24 2.799 15.968 2.799 15.968z" transform="translate(-374.839 -207.491)" style="fill:#a36957"/>
            <path data-name="Path 68906" d="M584.762 350.53a1.638 1.638 0 0 0-.046.46 11.472 11.472 0 0 0 0 1.266 8.408 8.408 0 0 0 .072.865c.034.312.08.642.152.983a17.468 17.468 0 0 0 .6 2.2c.523 1.532 1.106 2.87 1.515 3.841.194.422.363.823.507 1.144a1.821 1.821 0 0 0 .211.422 1.6 1.6 0 0 0-.127-.422l-.422-1.173c-.371-.988-.929-2.339-1.448-3.854a18.279 18.279 0 0 1-.6-2.17c-.076-.338-.127-.663-.173-.967s-.08-.591-.1-.844a21.457 21.457 0 0 1-.084-1.241 1.907 1.907 0 0 0-.057-.51z" transform="translate(-374.337 -202.571)" style="fill:#a36957"/>
            <path data-name="Path 68907" d="M568.913 434.535v-.68l7.416-.325.021 2.807-.456.03c-2.039.118-10.363.464-11.722.055-1.523-.456 4.741-1.887 4.741-1.887z" transform="translate(-362.337 -250.536)" style="fill:#455a64"/>
            <path data-name="Path 68908" d="M576.44 439.78a.963.963 0 0 1-.127 0l-.363.025-1.342.059c-1.131.046-2.7.089-4.424.1s-3.3-.021-4.432-.055l-1.338-.055h-.494a.776.776 0 0 1 .127 0h.367l1.342.025c1.131 0 2.7.034 4.424.025s3.3-.038 4.428-.068l1.342-.034h.49z" transform="translate(-362.329 -254.148)" style="fill:#263238"/>
            <path data-name="Path 68909" d="M569.023 438.768a3.236 3.236 0 0 0-.253-.637 3.043 3.043 0 0 0-.46-.511.979.979 0 0 1 .536.464 1.008 1.008 0 0 1 .177.684z" transform="translate(-364.866 -252.9)" style="fill:#263238"/>
            <path data-name="Path 68910" d="M574.643 436.871a1.67 1.67 0 0 1-.232-.283c-.11-.169-.177-.317-.156-.329s.122.11.232.279.177.32.156.333z" transform="translate(-368.299 -252.113)" style="fill:#263238"/>
            <path data-name="Path 68911" d="M575.962 436.436c0 .021-.135-.059-.262-.173s-.219-.22-.2-.236.135.059.262.173.217.2.2.236z" transform="translate(-369.018 -251.978)" style="fill:#263238"/>
            <path data-name="Path 68912" d="M576.432 435.237a.891.891 0 0 1-.388.051.844.844 0 0 1-.384-.038.879.879 0 0 1 .384-.051.845.845 0 0 1 .388.038z" transform="translate(-369.113 -251.497)" style="fill:#263238"/>
            <path data-name="Path 68913" d="M576.634 434.14a.785.785 0 0 1-.422.127.8.8 0 0 1-.422-.059 2.435 2.435 0 0 1 .422-.034 2.191 2.191 0 0 1 .422-.034z" transform="translate(-369.188 -250.889)" style="fill:#263238"/>
            <path data-name="Path 68914" d="M572.683 435.285a1.294 1.294 0 0 1-.477 0 2.729 2.729 0 0 1-.5-.11 1.364 1.364 0 0 1-.291-.118.266.266 0 0 1-.118-.148.186.186 0 0 1 .072-.19.878.878 0 0 1 1.232.57.321.321 0 0 1 0 .127 1.358 1.358 0 0 0-.219-.422.869.869 0 0 0-.422-.262.751.751 0 0 0-.566.042c-.072.055-.042.143.038.194a1.526 1.526 0 0 0 .27.114 3.559 3.559 0 0 0 .485.122c.313.069.496.069.496.081z" transform="translate(-366.588 -251.173)" style="fill:#263238"/>
            <path data-name="Path 68915" d="M574.206 434.98a.447.447 0 0 1-.059-.329.786.786 0 0 1 .131-.346.481.481 0 0 1 .393-.245.194.194 0 0 1 .148.219.5.5 0 0 1-.08.211 1.747 1.747 0 0 1-.224.291.693.693 0 0 1-.27.19 2.978 2.978 0 0 0 .224-.236 1.635 1.635 0 0 0 .2-.283c.063-.1.11-.283 0-.3s-.236.11-.308.2a.772.772 0 0 0-.135.308 1.485 1.485 0 0 0-.017.321z" transform="translate(-368.234 -250.843)" style="fill:#263238"/>
            <path data-name="Path 68916" d="M589.628 434.931s-.211 0-.544.021a2.338 2.338 0 0 0-1.929 1.549c-.11.317-.118.532-.135.528s0-.055 0-.148a1.9 1.9 0 0 1 .076-.4 2.309 2.309 0 0 1 .743-1.1 2.275 2.275 0 0 1 1.237-.485 1.766 1.766 0 0 1 .422 0 .534.534 0 0 1 .13.035z" transform="translate(-375.674 -251.317)" style="fill:#263238"/>
            <path data-name="Path 68917" d="M581.847 438.368a4.138 4.138 0 0 1-1.081.106 3.979 3.979 0 0 1-1.076-.093c0-.025.481 0 1.076 0s1.077-.038 1.081-.013z" transform="translate(-371.442 -253.327)" style="fill:#263238"/>
            <path data-name="Path 68918" d="M587.931 438.345s-.038.1-.089.211-.076.211-.1.207-.038-.114.021-.245.151-.195.168-.173z" transform="translate(-376.083 -253.317)" style="fill:#263238"/>
            <path data-name="Path 68919" d="M589.122 436.733a.469.469 0 0 1-.106.169c-.076.076-.152.127-.173.11s.03-.093.106-.173.151-.127.173-.106z" transform="translate(-376.729 -252.385)" style="fill:#263238"/>
            <path data-name="Path 68920" d="M590.772 435.943c0 .025-.1.025-.211.063s-.186.1-.207.08.042-.118.177-.165.25-.004.241.022z" transform="translate(-377.603 -251.906)" style="fill:#263238"/>
            <path data-name="Path 68921" d="M592.358 435.618c0 .025-.03.063-.093.084s-.118.025-.127 0 .034-.063.093-.084.119-.018.127 0z" transform="translate(-378.636 -251.734)" style="fill:#263238"/>
            <path data-name="Path 68922" d="m611.6 428.951-.279-.62L617.95 425l1.169 2.533-.422.215c-1.811.941-9.261 4.664-10.671 4.85-1.557.224 3.574-3.647 3.574-3.647z" transform="translate(-387.648 -245.607)" style="fill:#455a64"/>
            <path data-name="Path 68923" d="m619.161 430.57-.11.068-.325.169-1.2.608a130.762 130.762 0 0 1-8.065 3.664l-1.245.5-.338.131a.481.481 0 0 1-.122.038l.114-.055.333-.148 1.233-.528c1.043-.447 2.478-1.072 4.052-1.79s2.988-1.385 4.01-1.874l1.207-.578.333-.156z" transform="translate(-387.664 -248.826)" style="fill:#263238"/>
            <path data-name="Path 68924" d="M611.983 439.7a3.112 3.112 0 0 0-.494-.481 2.927 2.927 0 0 0-.629-.279 1.186 1.186 0 0 1 1.123.76z" transform="translate(-389.455 -253.663)" style="fill:#263238"/>
            <path data-name="Path 68925" d="M616.3 435.672a1.511 1.511 0 0 1-.329-.16c-.169-.11-.291-.215-.279-.236s.16.051.329.16.288.215.279.236z" transform="translate(-392.245 -251.543)" style="fill:#263238"/>
            <path data-name="Path 68926" d="M617.3 434.736c0 .021-.143 0-.308-.051s-.287-.114-.283-.139a.629.629 0 0 1 .312.051c.162.038.288.097.279.139z" transform="translate(-392.836 -251.122)" style="fill:#263238"/>
            <path data-name="Path 68927" d="M617.291 433.08a.988.988 0 0 1-.333.207.89.89 0 0 1-.367.122 1 1 0 0 1 .329-.207.92.92 0 0 1 .371-.122z" transform="translate(-392.767 -250.276)" style="fill:#263238"/>
            <path data-name="Path 68928" d="M617 431.9a1.15 1.15 0 0 1-.342.291.735.735 0 0 1-.422.127 2.224 2.224 0 0 1 .384-.207c.211-.117.363-.235.38-.211z" transform="translate(-392.564 -249.591)" style="fill:#263238"/>
            <path data-name="Path 68929" d="M614.029 434.665a1.368 1.368 0 0 1-.422.194 3.313 3.313 0 0 1-.507.106 1.268 1.268 0 0 1-.312 0 .249.249 0 0 1-.169-.084.186.186 0 0 1 0-.2.87.87 0 0 1 1.085-.211.844.844 0 0 1 .27.224c.051.068.072.11.068.114a1.268 1.268 0 0 0-.367-.283.844.844 0 0 0-.477-.072.739.739 0 0 0-.5.27c-.046.08 0 .148.114.16a1.694 1.694 0 0 0 .291 0 3.34 3.34 0 0 0 .5-.089c.24-.07.426-.142.426-.129z" transform="translate(-390.454 -251.017)" style="fill:#263238"/>
            <path data-name="Path 68930" d="M615.416 433.835a.469.469 0 0 1-.186-.279.794.794 0 0 1-.025-.367.477.477 0 0 1 .262-.384c.106-.034.35.182.367.262s-.122.038-.131.106a1.468 1.468 0 0 1-.084.35.659.659 0 0 1-.169.287 3.066 3.066 0 0 0 .11-.3 2.162 2.162 0 0 0 .063-.342c0-.118 0-.3-.135-.27s-.173.194-.2.312a.729.729 0 0 0 0 .333 1.834 1.834 0 0 0 .128.292z" transform="translate(-391.96 -250.116)" style="fill:#263238"/>
            <path data-name="Path 68931" d="M630.148 426.36a2.99 2.99 0 0 0-.49.245 2.3 2.3 0 0 0-1.123 2.2c.025.338.105.532.089.54a.532.532 0 0 1-.063-.135 2.186 2.186 0 0 1-.089-.4 2.233 2.233 0 0 1 1.152-2.262 2.005 2.005 0 0 1 .376-.16.518.518 0 0 1 .148-.028z" transform="translate(-399.622 -246.393)" style="fill:#263238"/>
            <path data-name="Path 68932" d="M623.493 432.9a6.029 6.029 0 0 1-1.963.895c0-.025.443-.194.983-.422s.967-.496.98-.473z" transform="translate(-395.621 -250.171)" style="fill:#263238"/>
            <path data-name="Path 68933" d="M629.174 431.469c.021 0 0 .106 0 .228v.232a.345.345 0 0 1-.084-.232c0-.14.063-.241.084-.228z" transform="translate(-399.99 -249.345)" style="fill:#263238"/>
            <path data-name="Path 68934" d="M629.6 429.469c.021 0 0 .1-.025.2s-.089.177-.11.169 0-.1.025-.2.088-.177.11-.169z" transform="translate(-400.204 -248.189)" style="fill:#263238"/>
            <path data-name="Path 68935" d="M630.731 428c0 .025-.084.063-.169.144s-.131.165-.152.156 0-.127.093-.224a.277.277 0 0 1 .228-.076z" transform="translate(-400.749 -247.338)" style="fill:#263238"/>
            <path data-name="Path 68936" d="M632 427.173a.169.169 0 0 1-.051.114c-.051.046-.1.072-.114.055s0-.068.051-.114.093-.072.114-.055z" transform="translate(-401.571 -246.86)" style="fill:#263238"/>
            <path data-name="Path 68937" d="m573.471 183.158-1.232-15.069 6.331.114a25.349 25.349 0 0 0-.642-7.1 8.222 8.222 0 0 0-4.8-5.909v-.042l-.194-.051a18.078 18.078 0 0 0-5.808-1.515l-7.788.089s-5.947-.76-9.227 3.5c-1.266 1.634-5.2 12.815-5.2 12.815l9.35 4.5-.874-6.2s.177 4.5.751 5.909c.317.794 1.266 3.259 1.266 3.259l-.122 7.437z" transform="translate(-351.349 -88.759)" style="fill:#c7d5ff"/>
            <path data-name="Path 68938" d="m600.807 178.195-1.157 4.922h10.9l-.718-8.256z" transform="translate(-382.977 -101.051)" style="fill:#c7d5ff"/>
            <path data-name="Path 68939" d="M611.957 194.1a8.74 8.74 0 0 0-1.444-.144c-.895-.051-2.111-.1-3.5-.089s-2.6.068-3.5.135a8.273 8.273 0 0 0-1.439.177 9.145 9.145 0 0 0 1.452 0 138.97 138.97 0 0 1 6.978-.047 9.136 9.136 0 0 0 1.453-.032z" transform="translate(-384.381 -112.036)" style="fill:#263238"/>
            <path data-name="Path 68940" d="M601.2 174.77a6.577 6.577 0 0 0-.034 1.266c0 .772.034 1.836.08 3.014s.1 2.246.152 3.014a6.294 6.294 0 0 0 .135 1.266 6.6 6.6 0 0 0 .034-1.266c0-.772-.034-1.84-.08-3.018s-.1-2.241-.152-3.014a6.208 6.208 0 0 0-.135-1.262z" transform="translate(-383.845 -100.999)" style="fill:#263238"/>
            <g data-name="Group 61769" style="opacity:.3">
                <path data-name="Path 68941" d="M207.437 78.034s2.423 17.969 9.236 17.492c0 0 3.069-.034 4.052-2.073v-.8z"/>
            </g>
            <g data-name="Group 61770" style="opacity:.3">
                <path data-name="Path 68942" d="m217.356 74.83-1.3 8.809.844 1.545 1.393-3.022-.591-.017z"/>
            </g>
            <path data-name="Path 68943" d="M566.685 194.551a1.692 1.692 0 0 1-.186-.422c-.106-.274-.245-.675-.422-1.178a36.335 36.335 0 0 1-1.043-3.989 28.268 28.268 0 0 1-.515-4.09c-.025-.528-.034-.954-.025-1.266a1.693 1.693 0 0 1 .03-.456c.034 0 .059.65.148 1.688a37.553 37.553 0 0 0 .578 4.056 50.95 50.95 0 0 0 .975 3.985c.135.469.249.87.342 1.2a2.066 2.066 0 0 1 .118.472z" transform="translate(-362.658 -105.842)" style="fill:#263238"/>
            <path data-name="Path 68944" d="M575.465 219.963a2.179 2.179 0 0 1-.376-.844 2.026 2.026 0 0 1-.165-.929 2.2 2.2 0 0 1 .376.865 2.113 2.113 0 0 1 .165.908z" transform="translate(-368.686 -126.092)" style="fill:#263238"/>
            <path data-name="Path 68945" d="M578.1 218.624a3.884 3.884 0 0 1-.038-2.634 8.775 8.775 0 0 1 0 1.317 8.666 8.666 0 0 1 .038 1.317z" transform="translate(-370.378 -124.82)" style="fill:#263238"/>
            <path data-name="Path 68946" d="M554.349 197.015c-.03.051-2.2-.979-4.858-2.3s-4.787-2.448-4.761-2.5 2.2.979 4.858 2.3 4.787 2.445 4.761 2.5z" transform="translate(-351.238 -111.075)" style="fill:#263238"/>
            <path data-name="Path 68947" d="M572.142 129.006c.046-2.136.059-4.381.059-4.381s-2.739-.528-3.216-4.132c-.456-3.436.819-11.5.819-11.5a9.627 9.627 0 0 1 10.9 3.1l-.68 17.336a3.724 3.724 0 0 1-4.024 3.447 3.934 3.934 0 0 1-3.858-3.87z" transform="translate(-365.199 -62.63)" style="fill:#b78876"/>
            <path data-name="Path 68948" d="M570.56 124.521a.464.464 0 0 0 .422.477.443.443 0 0 0 .485-.422.46.46 0 0 0-.422-.473.422.422 0 0 0-.485.418z" transform="translate(-366.166 -71.716)" style="fill:#263238"/>
            <path data-name="Path 68949" d="M570.149 123.039c.055.059.422-.19.908-.173s.844.27.9.211-.025-.135-.182-.257a1.266 1.266 0 0 0-.726-.241 1.186 1.186 0 0 0-.722.211c-.152.11-.207.219-.178.249z" transform="translate(-365.924 -70.838)" style="fill:#263238"/>
            <path data-name="Path 68950" d="M582.469 125.261a.46.46 0 0 0 .422.477.422.422 0 0 0 .485-.422.456.456 0 0 0-.422-.473.422.422 0 0 0-.485.418z" transform="translate(-373.048 -72.144)" style="fill:#263238"/>
            <path data-name="Path 68951" d="M582.382 123.779c.055.063.422-.186.908-.173s.844.27.908.211-.03-.135-.186-.253a1.211 1.211 0 0 0-.722-.245 1.228 1.228 0 0 0-.726.211c-.153.114-.207.22-.182.249z" transform="translate(-372.994 -71.266)" style="fill:#263238"/>
            <path data-name="Path 68952" d="M576.2 127.36a3.191 3.191 0 0 0-.8-.165c-.127 0-.245-.046-.262-.131a.617.617 0 0 1 .093-.376l.4-.95a16.5 16.5 0 0 0 .907-2.5 16.736 16.736 0 0 0-1.106 2.419c-.131.333-.262.654-.384.958a.739.739 0 0 0-.076.494.317.317 0 0 0 .2.194.867.867 0 0 0 .215.034 3.22 3.22 0 0 0 .813.023z" transform="translate(-368.707 -71.22)" style="fill:#263238"/>
            <path data-name="Path 68953" d="M576.74 145.281a9.143 9.143 0 0 0 4.837-1.161s-1.228 2.436-4.812 2.009z" transform="translate(-369.737 -83.287)" style="fill:#a36957"/>
            <path data-name="Path 68954" d="M583.752 120.07c-.1.156-.481.089-.9 0s-.794-.16-.844-.342.393-.422.958-.308.887.515.786.65z" transform="translate(-372.777 -68.995)" style="fill:#263238"/>
            <path data-name="Path 68955" d="M571.959 118.766c-.038.182-.443.249-.908.27s-.874 0-.929-.186.338-.447.9-.473.978.216.937.389z" transform="translate(-365.91 -68.409)" style="fill:#263238"/>
            <path data-name="Path 68956" d="M577.505 135.779a.245.245 0 0 0-.274.127.278.278 0 1 0 .169-.139" transform="translate(-370 -78.453)" style="fill:#a36957"/>
            <path data-name="Path 68957" d="M577.4 135.783c0-.021-.08-.144-.3-.1a.38.38 0 0 0-.27.266.4.4 0 0 0 .625.447.355.355 0 0 0 .152-.35c-.042-.224-.207-.257-.215-.228s.059.106.046.236a.2.2 0 0 1-.1.156.215.215 0 0 1-.215 0 .224.224 0 0 1-.076-.207.207.207 0 0 1 .114-.156c.125-.068.23-.035.239-.064z" transform="translate(-369.785 -78.406)" style="fill:#263238"/>
            <path data-name="Path 68958" d="M580.066 112.492c-.422.988-1.469 1.752-1.325 2.82.093.688.536 1.33.452 2.022-.11.844-1.009 1.469-1.14 2.334-.156 1.059.878 1.883 1.287 2.87.6 1.444-.165 3.064-.186 4.643a4.955 4.955 0 0 0 4.39 4.82 2.637 2.637 0 0 0 2.533-1.038 10 10 0 0 0 .574-2.309c.371-1.131 1.448-1.959 1.688-3.124.422-2.111-2.153-3.883-1.984-6.044a15.086 15.086 0 0 1 .882-2.621 3.85 3.85 0 0 0-.751-3.415c-.637-.756-1.558-1.266-2.11-2.077a8.615 8.615 0 0 1-.844-3.212 8.1 8.1 0 0 0-12.857-4.74 2.633 2.633 0 0 0 2.246 3.25c2.858.469 4.179-.072 4.5 1.072a3.022 3.022 0 0 0 .844 2.613c1.164 1.258 2.274.987 1.801 2.136z" transform="translate(-366.2 -58.796)" style="fill:#263238"/>
            <path data-name="Path 68959" d="M597.272 142.418a1.01 1.01 0 0 1-.262-.025 4.128 4.128 0 0 1-.726-.2 5.154 5.154 0 0 1-2.212-1.634 5.851 5.851 0 0 1-.937-1.688 6.688 6.688 0 0 1-.384-2.165 8.941 8.941 0 0 1 .3-2.41 10.31 10.31 0 0 1 .422-1.22 12.468 12.468 0 0 0 .46-1.211 2.254 2.254 0 0 0 0-1.241 6.88 6.88 0 0 0-.477-1.157 7.6 7.6 0 0 1-.494-1.144 2.469 2.469 0 0 1-.089-1.211 8.589 8.589 0 0 1 .937-1.988 3.761 3.761 0 0 0 .38-1.8 4.242 4.242 0 0 0-.941-2.49 7.426 7.426 0 0 0-.713-.7 2.887 2.887 0 0 1 .781.642 4.221 4.221 0 0 1 1.03 2.533 3.9 3.9 0 0 1-.372 1.883 8.723 8.723 0 0 0-.9 1.946 3.6 3.6 0 0 0 .574 2.224 6.577 6.577 0 0 1 .5 1.195 2.486 2.486 0 0 1 0 1.351 13.234 13.234 0 0 1-.485 1.254 9.921 9.921 0 0 0-.422 1.195 8.7 8.7 0 0 0-.308 2.351 6.1 6.1 0 0 0 1.241 3.748 5.184 5.184 0 0 0 2.11 1.65c.628.249.991.287.987.312z" transform="translate(-378.868 -69.429)" style="fill:#455a64"/>
            <path data-name="Path 68960" d="M585.552 112.225a2.985 2.985 0 0 1-.629.093 6.547 6.547 0 0 1-1.739-.046 3.313 3.313 0 0 1-2.195-1.33 7.169 7.169 0 0 1-.574-1.418 2.356 2.356 0 0 0-.962-1.186 6.8 6.8 0 0 0-2.955-.772 5.154 5.154 0 0 1-2.461-.768 2.435 2.435 0 0 1-1.009-1.406 1.412 1.412 0 0 1-.03-.477c0-.11.025-.165.034-.165a2.986 2.986 0 0 0 .08.62 2.414 2.414 0 0 0 1.013 1.3 5.1 5.1 0 0 0 2.393.692 6.885 6.885 0 0 1 3.056.789 2.566 2.566 0 0 1 1.047 1.3 7.063 7.063 0 0 0 .544 1.384 3.187 3.187 0 0 0 2.051 1.266 7.286 7.286 0 0 0 1.688.114 4.271 4.271 0 0 1 .648.01z" transform="translate(-367.57 -60.535)" style="fill:#455a64"/>
            <path data-name="Path 68961" d="M585.548 108.073a1.406 1.406 0 0 1-.494.072 3.009 3.009 0 0 1-2.11-.844 3.877 3.877 0 0 1-.654-.874 3.637 3.637 0 0 0-1.536-1.76 5.065 5.065 0 0 0-2.364-.207 7.251 7.251 0 0 1-2.018 0 2.533 2.533 0 0 1-1.266-.557 1.4 1.4 0 0 1-.245-.279q-.076-.11-.063-.114a2.82 2.82 0 0 0 .363.325 2.659 2.659 0 0 0 1.22.473 7.656 7.656 0 0 0 1.975-.034 5.065 5.065 0 0 1 2.469.211 2.427 2.427 0 0 1 1.009.844 10.893 10.893 0 0 1 .612 1.021 4.015 4.015 0 0 0 .612.844 2.954 2.954 0 0 0 .722.536 3.133 3.133 0 0 0 1.266.35 3.258 3.258 0 0 1 .502-.007z" transform="translate(-368.614 -59.818)" style="fill:#455a64"/>
            <path data-name="Path 68962" d="M602.65 143.136c-.021 0 .114-.279.27-.8a7.261 7.261 0 0 0 .279-2.262 6.889 6.889 0 0 0-.9-3.221c-.308-.553-.777-1.047-1.161-1.655a2.956 2.956 0 0 1-.422-1.017 2.275 2.275 0 0 1 .093-1.14 13.526 13.526 0 0 0 .751-2.013 2.918 2.918 0 0 0-.549-1.828 8.995 8.995 0 0 1-.452-.844 3.089 3.089 0 0 1-.241-.882 7.644 7.644 0 0 1 .051-1.608 4.267 4.267 0 0 0-.2-2.246 2.042 2.042 0 0 0-.5-.658.088.088 0 0 1 .051.025.516.516 0 0 1 .135.1 1.507 1.507 0 0 1 .393.5 4.17 4.17 0 0 1 .274 2.292 8.093 8.093 0 0 0-.021 1.574 4.053 4.053 0 0 0 .684 1.638 5.61 5.61 0 0 1 .46.9 2.11 2.11 0 0 1 .127 1.064 12.421 12.421 0 0 1-.756 2.051 2.112 2.112 0 0 0-.089 1.034 2.81 2.81 0 0 0 .4.941c.359.587.844 1.089 1.152 1.667a6.965 6.965 0 0 1 .878 3.322 6.829 6.829 0 0 1-.357 2.29 4.4 4.4 0 0 1-.245.582.775.775 0 0 1-.105.194z" transform="translate(-382.989 -71.058)" style="fill:#455a64"/>
            <path data-name="Path 68963" d="M561.874 278.444s-2.845-26.947-3.01-36.9 4.478-19.784 4.478-19.784l18.185-.76s3.6 10.1 3.66 14.351c.127 8.248-2.191 16.39-1.925 22.933l.608 20.176" transform="translate(-359.404 -127.716)" style="fill:#263238"/>
            <path data-name="Path 68964" d="M587.747 278.6a2.907 2.907 0 0 1-.3.228l-.165.114-.177.173a2.924 2.924 0 0 0-.422.452 10.118 10.118 0 0 0-1.422 3.6 12.115 12.115 0 0 1-.92 2.566 4.5 4.5 0 0 1-.422.637c-.076.1-.148.211-.236.308l-.279.279a4.52 4.52 0 0 1-1.368.878c-1.017.447-2.17.658-3.216 1.186a5.065 5.065 0 0 0-2.334 2.659c-.515 1.144-.844 2.343-1.266 3.465a6.247 6.247 0 0 1-1.9 2.879 5.217 5.217 0 0 1-2.955.933c-.979.059-1.887.03-2.7.152a4.267 4.267 0 0 0-2.035.768 2.853 2.853 0 0 0-.945 1.334 2.026 2.026 0 0 0-.072 1.034c.051.236.114.35.1.355a1.063 1.063 0 0 1-.143-.346 1.937 1.937 0 0 1 .034-1.068 2.87 2.87 0 0 1 .95-1.406 4.326 4.326 0 0 1 2.111-.844c.844-.135 1.743-.118 2.71-.181a5.065 5.065 0 0 0 2.866-.912 6.129 6.129 0 0 0 1.819-2.794c.422-1.11.73-2.313 1.266-3.478a5.276 5.276 0 0 1 2.44-2.765c1.089-.54 2.241-.747 3.233-1.178a4.426 4.426 0 0 0 1.317-.844l.266-.266c.084-.093.156-.2.232-.3a4.074 4.074 0 0 0 .393-.612 12.106 12.106 0 0 0 .933-2.533 9.8 9.8 0 0 1 1.5-3.622 2.749 2.749 0 0 1 .422-.447c.068-.059.127-.118.186-.165l.173-.11a2.923 2.923 0 0 1 .326-.129z" transform="translate(-362.67 -161.003)" style="fill:#fafafa"/>
            <path data-name="Path 68965" d="M585.51 249.06a1.978 1.978 0 0 1 .025.359 4.42 4.42 0 0 1-.127 1.034 6.647 6.647 0 0 1-2.056 3.174 12.208 12.208 0 0 1-2.11 1.558c-.815.481-1.714.941-2.638 1.465a13.626 13.626 0 0 0-2.693 1.9 10.4 10.4 0 0 0-2.043 2.866 26.216 26.216 0 0 1-1.769 3.119 7.454 7.454 0 0 1-1.157 1.266 6.982 6.982 0 0 1-1.4.924 16.842 16.842 0 0 1-2.824 1.085 25.33 25.33 0 0 0-2.482.844 9.5 9.5 0 0 0-1.891 1.013 5.857 5.857 0 0 0-1.186 1.093 5.427 5.427 0 0 0-.713 1.182 2.226 2.226 0 0 1 .118-.342 4.222 4.222 0 0 1 .528-.895 5.687 5.687 0 0 1 1.182-1.14 9.639 9.639 0 0 1 1.9-1.055 25.328 25.328 0 0 1 2.486-.865 17.469 17.469 0 0 0 2.786-1.089 7.2 7.2 0 0 0 1.33-.895 7.5 7.5 0 0 0 1.114-1.241 27.148 27.148 0 0 0 1.752-3.1 10.48 10.48 0 0 1 2.111-2.921 13.6 13.6 0 0 1 2.744-1.916c.929-.519 1.828-.971 2.642-1.448a12.189 12.189 0 0 0 2.111-1.511 6.7 6.7 0 0 0 2.077-3.086 6.451 6.451 0 0 0 .183-1.378z" transform="translate(-360.323 -143.931)" style="fill:#fafafa"/>
            <path data-name="Path 68966" d="M558.866 242.735a.315.315 0 0 1-.038-.084 2.2 2.2 0 0 1-.08-.249 2.018 2.018 0 0 1 .042-1.013 4.181 4.181 0 0 1 2.672-2.465c.751-.257 1.6-.422 2.486-.642a4.681 4.681 0 0 0 3.44-2.562 13.576 13.576 0 0 0 .629-1.515 16.515 16.515 0 0 1 1.338-3.238 5.158 5.158 0 0 1 2.752-2.14 24.991 24.991 0 0 1 3.162-.8 10.481 10.481 0 0 0 2.748-.937 5.783 5.783 0 0 0 1.857-1.688 6.281 6.281 0 0 0 1.182-3.419 9.7 9.7 0 0 0-.089-1.351 4.394 4.394 0 0 1 .173 1.351 6.217 6.217 0 0 1-1.14 3.508 5.841 5.841 0 0 1-1.9 1.743 10.523 10.523 0 0 1-2.79.975 25.154 25.154 0 0 0-3.132.806 4.955 4.955 0 0 0-2.642 2.056 16.541 16.541 0 0 0-1.321 3.191 13.147 13.147 0 0 1-.646 1.541 5.581 5.581 0 0 1-.946 1.308 5.487 5.487 0 0 1-2.638 1.33c-.895.228-1.739.371-2.478.616a4.09 4.09 0 0 0-2.642 2.343 2.14 2.14 0 0 0-.08.979 2.106 2.106 0 0 1 .081.356z" transform="translate(-359.314 -127.502)" style="fill:#fafafa"/>
            <path data-name="Path 68967" d="M587.161 327a1.616 1.616 0 0 1 .029.266 2.8 2.8 0 0 1-.08.76 4.309 4.309 0 0 1-1.6 2.279 7.037 7.037 0 0 1-1.688 1c-.646.274-1.359.494-2.11.726a17.438 17.438 0 0 0-2.284.844 6.522 6.522 0 0 0-2.03 1.515c-.616.642-1.148 1.346-1.739 1.971a7.923 7.923 0 0 1-1.946 1.52 8.573 8.573 0 0 1-4.014 1.047 8 8 0 0 1-2.761-.46 5.273 5.273 0 0 1-.7-.3 1.113 1.113 0 0 1-.232-.131 1.794 1.794 0 0 1 .249.089 7.485 7.485 0 0 0 .709.262 8.442 8.442 0 0 0 2.735.384 8.531 8.531 0 0 0 3.917-1.068 7.886 7.886 0 0 0 1.887-1.49c.578-.616 1.106-1.317 1.735-1.975a6.778 6.778 0 0 1 2.144-1.562 17.471 17.471 0 0 1 2.317-.844 22.063 22.063 0 0 0 2.11-.7 7.077 7.077 0 0 0 1.646-.95 4.306 4.306 0 0 0 1.614-2.183 5.357 5.357 0 0 0 .093-1z" transform="translate(-363.537 -188.973)" style="fill:#fafafa"/>
            <path data-name="Path 68968" d="m586.372 165.478-3.52.084a5.694 5.694 0 0 1-.794 2 60.165 60.165 0 0 1-5.787-14.693c.084-.274.181-.578.3-.916a3.9 3.9 0 0 0-.046-1.545c-.1-.612-.27-1.435-.321-1.815-.156-1.165-.346-1.346-.751-1.216-.549.181.228 3.263-.224 3.33-.245.034-.54-1.021-.625-1.887s-.481-3.533-.764-3.71c-.422-.262-.789.152-.68 1.013s.241 3.478-.215 3.516-.844-4.386-.844-4.386.072-.962-.46-.941c-.954.042-.207 4.7-.127 5.145.059.3-.422.363-.481.03s-.279-4.419-1.266-4.386c-.751 0 .578 3.837.156 4.723s-.709-3.005-1.422-2.955c-.266.021-.464.072.025 2.271a49.846 49.846 0 0 0 1.688 5.154c1.131 6.1 6.1 25.613 13.874 22.042 4.356-2 6.12-10.856 6.12-10.856z" transform="translate(-364.82 -83.396)" style="fill:#b78876"/>
            <path data-name="Path 68969" d="M575.521 149.722a.206.206 0 0 0 .1 0 .224.224 0 0 0 .156-.245c0-.262-.051-.642-.11-1.135a15.843 15.843 0 0 1-.194-1.8c0-.355 0-.734.021-1.135a4.171 4.171 0 0 1 .063-.608c.034-.19.16-.422.308-.384h.025a.337.337 0 0 1 .312.287 1.654 1.654 0 0 1 .059.566 32.939 32.939 0 0 0 .452 3.525c.034.156.068.317.118.477a1.813 1.813 0 0 0 .084.241 1.332 1.332 0 0 0 .072.127.232.232 0 0 0 .177.11.312.312 0 0 0 .266-.224 1.211 1.211 0 0 0 .08-.257 4.3 4.3 0 0 0 .068-.515 15.377 15.377 0 0 0-.03-2.111 4.767 4.767 0 0 1-.042-1.059.591.591 0 0 1 .207-.393.224.224 0 0 1 .182-.021.346.346 0 0 1 .1.042.135.135 0 0 1 .046.063 5.38 5.38 0 0 1 .291 1.059c.076.371.139.756.2 1.14s.114.772.16 1.165a8.6 8.6 0 0 0 .194 1.2 4.652 4.652 0 0 0 .19.6 1.118 1.118 0 0 0 .177.3.249.249 0 0 0 .249.093.262.262 0 0 0 .173-.19 2.114 2.114 0 0 0 .046-.658 6.052 6.052 0 0 0-.046-.625c-.03-.355-.063-.7-.076-1.051a4.074 4.074 0 0 1 0-.511.846.846 0 0 1 .055-.219.206.206 0 0 1 .038-.063h.055c.279-.114.371.274.448.587s.105.667.173 1c.11.663.253 1.325.325 1.959a2.334 2.334 0 0 1-.034.912l-.3.9v.055a48.617 48.617 0 0 0 1.887 6.1c.667 1.8 1.338 3.377 1.925 4.643s1.119 2.258 1.482 2.925l.422.756a1.417 1.417 0 0 0 .165.253 1.688 1.688 0 0 0-.131-.27l-.422-.772c-.346-.68-.844-1.688-1.418-2.955s-1.224-2.841-1.874-4.643a50.389 50.389 0 0 1-1.849-6.087v.059c.1-.3.194-.6.3-.895a2.414 2.414 0 0 0 .051-1.009c-.076-.663-.215-1.3-.325-1.971-.063-.329-.106-.667-.173-1.013a1.858 1.858 0 0 0-.089-.523.5.5 0 0 0-.232-.236.536.536 0 0 0-.333 0h-.068a.274.274 0 0 0-.1.055.371.371 0 0 0-.106.148.954.954 0 0 0-.072.287 4 4 0 0 0 0 .549c0 .355.051.709.08 1.064 0 .207.034.422.042.612a2.051 2.051 0 0 1-.03.57c0 .042-.034.034 0 .055l-.025-.025a.845.845 0 0 1-.127-.228 4.145 4.145 0 0 1-.182-.561 7.841 7.841 0 0 1-.19-1.169q-.067-.6-.165-1.178a29.85 29.85 0 0 0-.2-1.148 5.139 5.139 0 0 0-.321-1.127.359.359 0 0 0-.131-.148.731.731 0 0 0-.156-.068.468.468 0 0 0-.359.051.79.79 0 0 0-.312.549 2.049 2.049 0 0 0 0 .578c0 .181.042.359.055.536a15.629 15.629 0 0 1 .038 2.077 3.592 3.592 0 0 1-.063.49.941.941 0 0 1-.063.219.257.257 0 0 1-.046.076c0 .038-.03 0-.025.051v-.055a.842.842 0 0 1-.051-.089c-.03-.068-.055-.144-.08-.215-.046-.152-.08-.308-.114-.46a33.552 33.552 0 0 1-.477-3.495 1.836 1.836 0 0 0-.072-.629.592.592 0 0 0-.165-.279.422.422 0 0 0-.312-.118h.025a.367.367 0 0 0-.367.173.934.934 0 0 0-.127.329 4.251 4.251 0 0 0-.059.633v1.148a14.733 14.733 0 0 0 .232 1.807c.072.49.127.87.152 1.127a.2.2 0 0 1-.122.219.636.636 0 0 0-.161.023z" transform="translate(-368.975 -83.368)" style="fill:#a36957"/>
            <path data-name="Path 68970" d="M498.833 208.227a9.037 9.037 0 0 0-2.444.283c-2.182.574-5.943 2.853-6.1 5.669h2.735s-1.532 3.259-1.085 2.955a35.14 35.14 0 0 0 3.491-3.145z" transform="translate(-319.778 -120.333)" style="fill:#b78876"/>
            <path data-name="Path 68971" d="M597.623 78.13c-.063 0-.308-2.254-.553-5.065s-.4-5.065-.338-5.065.308 2.254.553 5.065.397 5.065.338 5.065z" transform="translate(-381.284 -39.297)" style="fill:#263238"/>
            <path data-name="Path 68972" d="M615.728 68.41c.047.034-1.8 2.714-4.124 5.985s-4.255 5.909-4.305 5.859 1.8-2.714 4.124-5.985 4.254-5.893 4.305-5.859z" transform="translate(-387.397 -39.534)" style="fill:#263238"/>
            <path data-name="Path 68973" d="M625.83 97.182c0 .059-2.144.553-4.812 1.1s-4.846.946-4.858.886 2.14-.553 4.812-1.1 4.828-.945 4.858-.886z" transform="translate(-392.518 -56.158)" style="fill:#263238"/>
        </g>
        <g>
            <path data-name="Path 68974" d="M275.884 227.461 260.942 304.2 259 314.245l99.616-.481c4.474-.021 8.442-3.993 9.873-9.894l17.669-72.445c1.093-4.478-1.3-9.138-4.7-9.134l-100.848.106c-2.193-.006-4.16 2.071-4.726 5.064z" transform="translate(-186.116 -128.461)" style="fill:#c7d5ff"/>
            <g data-name="Group 61771" style="opacity:.5">
                <path data-name="Path 68975" d="m89.768 99-14.942 76.739-1.942 10.045 99.616-.481c4.474-.021 8.442-3.993 9.873-9.894l17.669-72.445c1.093-4.478-1.3-9.138-4.7-9.134l-100.848.106c-2.193-.006-4.16 2.071-4.726 5.064z"/>
            </g>
            <path data-name="Path 68976" d="M299.154 279.3 288.6 194.28a6.679 6.679 0 0 0-6.483-6.07l-23.131.072a6.332 6.332 0 0 0-4.571 2.026l-10.975 11.68-64.328.346c-3.93.021-6.952 3.744-6.433 7.923l9.8 78.574a6.688 6.688 0 0 0 6.475 6.07l112.131-.224c12.486.257 13.68-3.427 13.68-3.427-14.336 3.169-15.611-11.934-15.611-11.95z" transform="translate(-136.198 -108.766)" style="fill:#c7d5ff"/>
            <g data-name="Group 61772" style="opacity:.5">
                <path data-name="Path 68977" d="M312.787 327.844 309 331.9l-29.12-26.2 3.782-4.061z" transform="translate(-198.182 -174.317)" style="fill:#fff"/>
                <path data-name="Path 68978" d="m309.046 299.51 4.179 3.761-26.352 28.3-4.183-3.761z" transform="translate(-199.806 -173.086)" style="fill:#fff"/>
            </g>
        </g>
        <g>
            <path data-name="Path 68979" d="M505.582 88.01a.781.781 0 0 1-.477-.688l-.169-3.917a.785.785 0 0 1 .967-.8 2.457 2.457 0 0 0 1.908-.376 2.2 2.2 0 0 0 .984-1.444 2.25 2.25 0 0 0-.473-1.688 2.533 2.533 0 0 0-1.663-1 2.955 2.955 0 0 0-3 2.11.789.789 0 0 1-1.52-.422 4.542 4.542 0 0 1 4.7-3.28 4.077 4.077 0 0 1 2.739 1.617 3.854 3.854 0 0 1 .773 2.9 3.8 3.8 0 0 1-1.688 2.5 4.1 4.1 0 0 1-2.136.7l.131 3.022a.789.789 0 0 1-1.1.756z" transform="translate(-326.616 -44.204)" style="fill:#c7d5ff"/>
            <path data-name="Path 68980" d="M511.294 106.757a.642.642 0 1 1-.219-.443.646.646 0 0 1 .219.443z" transform="translate(-331.171 -61.348)" style="fill:#c7d5ff"/>
            <path data-name="Path 68981" d="M478.109 71.884a1.986 1.986 0 0 0 .038-.253c0-.186.046-.422.08-.756a9.147 9.147 0 0 1 .207-1.216c.055-.236.084-.5.169-.764s.169-.553.262-.844a14.559 14.559 0 0 1 2.111-4.023 14.14 14.14 0 0 1 4.436-3.858 13.93 13.93 0 0 1 3.128-1.292 14.161 14.161 0 0 1 3.609-.473 14 14 0 0 1 1.921.1c.325.034.646.118.971.173a7.226 7.226 0 0 1 .971.236 13.507 13.507 0 0 1 3.753 1.7 14.115 14.115 0 0 1 5.58 7.007 13.82 13.82 0 0 1 .844 4.816 13.576 13.576 0 0 1-.889 4.963l-.19.481-.025.063.025.063c1.059 2.436 2.111 4.829 3.1 7.146l.177-.2-6.332-2.427-.076-.03-.063.059a13.918 13.918 0 0 1-17.365 1.676A14.423 14.423 0 0 1 481 80.913a14.018 14.018 0 0 1-2.7-6.475l-.131-1.1c-.038-.323 0-.582-.021-.806a3.768 3.768 0 0 1 0-.494.084.084 0 1 0-.025 0v1.309c0 .321.072.688.114 1.106a15.1 15.1 0 0 0 .722 2.98 15.453 15.453 0 0 0 1.933 3.588 14.55 14.55 0 0 0 3.584 3.377 14.056 14.056 0 0 0 17.614-1.629l-.139.03 6.332 2.44.316.122-.139-.325c-1-2.317-2.043-4.706-3.1-7.146v.122l.194-.494a13.8 13.8 0 0 0 .9-5.065 14.119 14.119 0 0 0-.844-4.922 14.352 14.352 0 0 0-5.7-7.138 13.634 13.634 0 0 0-3.85-1.731 6.708 6.708 0 0 0-.988-.232c-.329-.059-.654-.144-.984-.173a14.517 14.517 0 0 0-1.946-.11 14.166 14.166 0 0 0-3.664.5 14.433 14.433 0 0 0-3.17 1.325 14.17 14.17 0 0 0-4.462 3.947A14.435 14.435 0 0 0 478.767 68c-.089.3-.173.6-.249.844a7.434 7.434 0 0 0-.16.772 8.024 8.024 0 0 0-.177 1.224c-.025.325-.042.574-.055.76a1.071 1.071 0 0 0-.017.284z" transform="translate(-312.705 -33.604)" style="fill:#263238"/>
        </g>
    </g>
</svg>
