<svg xmlns="http://www.w3.org/2000/svg" width="292.29" height="301.888" viewBox="0 0 292.29 301.888">
    <g data-name="Oops! 404 Error with a broken robot-cuate">
        <path data-name="Path 68688" d="m83.759 313.294-10.5.2-5.312.085H62.3V304h.354l10.574.05c3.536 0 7.073.078 10.609.113h.191v.191c0 1.514-.064 3.02-.092 4.512zm0 0-.106-4.505c0-1.485-.078-2.964-.092-4.428l.2.191c-3.536.042-7.073.113-10.609.12l-10.538.035.354-.354-.035 8.933-.318-.311c1.747 0 3.487 0 5.234.035l5.255.085z" transform="translate(-48.911 -119.605)" style="fill:#ebebeb"/>
        <path data-name="Path 68689" d="m67.1 329.212-10.489.2-5.319.085h-5.65v-.318l-.042-8.933v-.354h.354l10.538.078c3.536 0 7.073.085 10.574.12h.191v.191c0 1.514-.057 3.02-.092 4.512zm0 0-.1-4.505c0-1.485-.078-2.964-.092-4.428l.191.191c-3.536.042-7.073.113-10.574.12l-10.574.042.354-.354-.035 8.933-.318-.311c1.747 0 3.487 0 5.234.035l5.262.085z" transform="translate(-44.023 -124.257)" style="fill:#ebebeb"/>
        <path data-name="Path 68690" d="m67.09 55.869-10.517.205-5.319.078c-1.775 0-3.536 0-5.34.042H45.6v-.318l-.042-8.933v-.353h.354l10.567.035c3.536 0 7.073.085 10.574.12h.191v.191c0 1.514-.057 3.02-.092 4.512zm0 0-.1-4.505c0-1.485-.078-2.963-.092-4.428l.191.191c-3.536 0-7.073.113-10.574.12l-10.574.042.354-.354-.035 8.935-.318-.311h5.234l5.262.085z" transform="translate(-44.011 -44.256)" style="fill:#ebebeb"/>
        <path data-name="Path 68691" d="m445.059 55.869-10.5.205-5.312.078c-1.775 0-3.536 0-5.34.042h-.307v-9.6h.354l10.574.042c3.536 0 7.073.085 10.574.12h.191v.191c0 1.514-.064 3.02-.092 4.512zm0 0-.1-4.505c-.035-1.485-.085-2.963-.1-4.428l.2.191c-3.536 0-7.073.113-10.574.12l-10.6.042.354-.354-.039 8.935-.318-.311h5.234l5.255.085z" transform="translate(-154.671 -44.256)" style="fill:#ebebeb"/>
        <path data-name="Path 68692" d="m428.361 71.794-10.489.2-5.319.078c-1.775 0-3.536 0-5.34.042h-.313v-.318l-.042-8.94V62.5h.354l10.574.042c3.536 0 7.073.085 10.574.12h.2v.191c0 1.514-.057 3.02-.092 4.512zm0 0-.1-4.505c-.035-1.492-.078-2.964-.092-4.428l.191.191c-3.536 0-7.073.113-10.574.12l-10.574.042.354-.354-.035 8.933-.318-.311h5.234l5.262.085z" transform="translate(-149.771 -48.913)" style="fill:#ebebeb"/>
        <path data-name="Path 68693" d="m351.794 219.576-10.489.2-5.319.078h-5.651v-.318l-.035-8.94v-.354h.361l10.567.049c3.536 0 7.073.078 10.574.113h.212v.191c0 1.514-.057 3.02-.092 4.512zm0 0-.1-4.512c-.035-1.485-.078-2.956-.092-4.428l.191.2c-3.536 0-7.073.113-10.574.113l-10.567.042.347-.354-.035 8.94-.311-.318c1.74 0 3.48 0 5.227.042l5.262.078z" transform="translate(-127.36 -92.16)" style="fill:#ebebeb"/>
        <path data-name="Path 68694" d="m335.1 235.521-10.489.2-5.312.078c-1.775.035-3.536 0-5.34.035h-.318v-.318l-.035-8.94v-.354h.354l10.574.05c3.536 0 7.073.078 10.567.113h.2v.191c0 1.514-.064 3.02-.092 4.512zm0 0-.1-4.512c0-1.485-.078-2.956-.092-4.428l.191.2c-3.536.035-7.073.113-10.567.113l-10.574.042.354-.354-.042 8.94-.311-.318c1.74 0 3.487 0 5.234.042l5.255.078z" transform="translate(-122.475 -96.837)" style="fill:#ebebeb"/>
        <path data-name="Path 68695" d="m318.5 219.594-10.489.2-5.312.078h-5.658v-.318l-.042-8.9v-.354h.361l10.567.049c3.536 0 7.073.078 10.574.113h.2v.191c0 1.514-.064 3.02-.092 4.512zm0 0-.1-4.512c0-1.485-.078-2.956-.092-4.428l.191.2c-3.536 0-7.073.113-10.574.113l-10.567.042.354-.354-.007 8.94-.311-.318c1.74 0 3.48 0 5.234.042l5.255.078z" transform="translate(-117.613 -92.177)" style="fill:#ebebeb"/>
        <path data-name="Path 68696" d="m445.059 329.212-10.5.2-5.312.085H423.6v-9.6h.354l10.538.078c3.536 0 7.073.085 10.574.12h.191v.191c0 1.514-.064 3.02-.092 4.512zm0 0-.1-4.505c-.035-1.485-.085-2.964-.1-4.428l.2.191c-3.536.042-7.073.113-10.574.12l-10.574.042.354-.354-.035 8.933-.318-.311c1.747 0 3.487 0 5.234.035l5.255.085z" transform="translate(-154.671 -124.257)" style="fill:#ebebeb"/>
        <path data-name="Path 68697" d="m191.034 93.437-10.5.2-5.312.078c-1.775 0-3.536 0-5.34.042h-.311v-.318l-.031-8.939v-.35h.354l10.574.042c3.536 0 7.073.078 10.609.12h.191v.188c0 1.514-.064 3.02-.092 4.505zm0 0-.106-4.505c0-1.492-.078-2.963-.092-4.428l.2.191c-3.536 0-7.073.113-10.609.113l-10.56.05.354-.354-.035 8.933-.318-.311h5.232l5.255.078z" transform="translate(-80.303 -55.251)" style="fill:#ebebeb"/>
        <path data-name="Path 68698" d="m413.354 170.755 4.159-6.712-2.051-1.273a1.888 1.888 0 0 1-.877-1.768 10.939 10.939 0 0 0 .042-1.181 1.874 1.874 0 0 1 .976-1.7l2.122-1.139-3.734-6.967-2.122 1.146a1.881 1.881 0 0 1-1.959-.127 11.316 11.316 0 0 0-1-.622 1.881 1.881 0 0 1-.99-1.7l.078-2.419-7.9-.283-.071 2.426a1.888 1.888 0 0 1-1.1 1.634c-.17.078-.347.17-.516.262s-.339.184-.5.283a1.874 1.874 0 0 1-1.966 0l-2.072-1.28-4.159 6.712 2.058 1.28a1.881 1.881 0 0 1 .87 1.768 9.262 9.262 0 0 0-.035 1.174 1.9 1.9 0 0 1-.983 1.7l-2.134 1.131 3.734 6.967 2.122-1.146a1.881 1.881 0 0 1 1.959.127 11.311 11.311 0 0 0 1 .622 1.874 1.874 0 0 1 .99 1.7l-.078 2.426 7.9.248.071-2.426a1.874 1.874 0 0 1 1.1-1.627l.523-.269c.177-.092.347-.184.509-.283a1.888 1.888 0 0 1 1.973 0zm-6.691-4.986a15.67 15.67 0 1 0 0-.021z" transform="translate(-144.687 -73.355)" style="fill:#ebebeb"/>
        <path data-name="Path 68699" d="m91.668 278.279 4.166-6.712-2.058-1.273a1.881 1.881 0 0 1-.87-1.768 10.924 10.924 0 0 0 0-1.181 1.881 1.881 0 0 1 .983-1.7l2.122-1.139-3.734-6.967-2.122 1.146a1.9 1.9 0 0 1-1.966-.127 9.865 9.865 0 0 0-1-.622 1.9 1.9 0 0 1-.99-1.7l.078-2.419-7.893-.248-.071 2.426a1.888 1.888 0 0 1-1.1 1.641c-.177.078-.347.17-.523.262s-.339.184-.5.283a1.86 1.86 0 0 1-1.959 0l-2.031-1.276-4.166 6.712 2.044 1.28a1.867 1.867 0 0 1 .87 1.768 10.836 10.836 0 0 0 0 1.174 1.881 1.881 0 0 1-.983 1.7l-2.122 1.139 3.734 6.967L73.7 276.5a1.9 1.9 0 0 1 1.966.127 9.689 9.689 0 0 0 1 .615 1.9 1.9 0 0 1 .99 1.7l-.071 2.426 7.893.24.078-2.419a1.881 1.881 0 0 1 1.1-1.634c.177-.078.347-.17.523-.262s.34-.184.5-.29a1.874 1.874 0 0 1 1.973 0zm-6.684-4.986a6.465 6.465 0 1 1 3.137-3.83 6.472 6.472 0 0 1-3.137 3.83z" transform="translate(-50.533 -104.84)" style="fill:#ebebeb"/>
        <path data-name="Path 68700" d="M207.738 103.743 205 98.975l-1.471.849a1.309 1.309 0 0 1-1.379-.05 7.78 7.78 0 0 0-.707-.41 1.308 1.308 0 0 1-.707-1.167V96.5h-5.531v1.7a1.323 1.323 0 0 1-.707 1.167 6.849 6.849 0 0 0-.707.41 1.308 1.308 0 0 1-1.415.049l-1.521-.849-2.765 4.8 1.471.849a1.308 1.308 0 0 1 .644 1.217v.82a1.287 1.287 0 0 1-.637 1.209l-1.478.856 2.765 4.8 1.471-.849a1.308 1.308 0 0 1 1.379.05 7.777 7.777 0 0 0 .707.41 1.323 1.323 0 0 1 .707 1.167v1.655h5.531v-1.7a1.308 1.308 0 0 1 .707-1.167 7.691 7.691 0 0 0 .707-.41 1.308 1.308 0 0 1 1.379-.05l1.471.849 2.765-4.8-1.471-.849a1.308 1.308 0 0 1-.644-1.217v-.82a1.308 1.308 0 0 1 .644-1.217zm-5.29 2.475a4.534 4.534 0 1 1-4.534-4.534 4.534 4.534 0 0 1 4.534 4.534z" transform="translate(-85.733 -58.866)" style="fill:#ebebeb"/>
        <g>
            <path data-name="Path 68701" d="M84.871 303.819c-9.244 9.046-10.8 23.05-8.848 35.307.049.283.481.205.481-.057 0-2.794-.085-5.559-.078-8.318.05-.12.092-.24.141-.368a18.543 18.543 0 0 0 6-6.45c1.542-3.034 2.122-6.465 3.331-9.633.113-.3-.212-.212-.424-.057-5.658 4.145-7.412 8.608-9.025 14.57a49.362 49.362 0 0 1 .976-9.287c1.217-5.658 3.614-11.267 7.681-15.461.161-.132-.079-.408-.235-.246z" transform="translate(-52.711 -119.537)" style="fill:#263238"/>
            <path data-name="Path 68702" d="M89.972 301.869c1.591.057 2.589 2.6 3.826 3.338a1.188 1.188 0 0 0 1.754-.276c1.231-1.712-.453-3.826-2.037-5.015 1.132.467 2.072 1.287 3.289 1.521a1.16 1.16 0 0 0 1.492-.891c.538-2.341-2.4-3.374-4.406-3.423.976-.707 3.77-2.525 2.285-3.43s-4.781 1.726-5.849 2.6c-1.577 1.273-3.452 3.183-3.536 5.177-.079 2.323 1.958.873 3.182.399z" transform="translate(-56.079 -116.533)" style="fill:#c7d5ff"/>
            <path data-name="Path 68703" d="M89.972 301.869c1.591.057 2.589 2.6 3.826 3.338a1.188 1.188 0 0 0 1.754-.276c1.231-1.712-.453-3.826-2.037-5.015 1.132.467 2.072 1.287 3.289 1.521a1.16 1.16 0 0 0 1.492-.891c.538-2.341-2.4-3.374-4.406-3.423.976-.707 3.77-2.525 2.285-3.43s-4.781 1.726-5.849 2.6c-1.577 1.273-3.452 3.183-3.536 5.177-.079 2.323 1.958.873 3.182.399z" transform="translate(-56.079 -116.533)" style="opacity:.1"/>
            <path data-name="Path 68704" d="M89.469 303.16c2.037-.927 5.941.4 6.274-.368.672-1.563-2.447-2.638-4.138-2.829 1.556-.417 4.527-1.089 4.435-2.582-.113-1.832-4.555-.255-6.811 1.471-2.829 2.171-2.829 4.244-2.348 4.689.643.559 2.256-.233 2.588-.381z" transform="translate(-56.036 -117.428)" style="fill:#c7d5ff"/>
            <path data-name="Path 68705" d="M58.8 302.551c9.584 8.692 11.663 22.633 10.185 34.954-.042.276-.474.219-.481-.042-.106-2.794-.127-5.559-.24-8.311a7.792 7.792 0 0 1-.156-.368 18.3 18.3 0 0 1-6.245-6.217c-1.662-2.978-2.4-6.366-3.7-9.5-.12-.3.205-.226.424-.078 5.778 3.932 7.738 8.325 9.577 14.223a50.486 50.486 0 0 0-1.33-9.244c-1.415-5.609-4.046-11.118-8.268-15.164-.159-.154.067-.404.234-.253z" transform="translate(-47.691 -119.167)" style="fill:#263238"/>
            <path data-name="Path 68706" d="M53.181 300.786c-1.591.113-2.49 2.688-3.7 3.48a1.188 1.188 0 0 1-1.761-.212c-1.294-1.662.3-3.84 1.846-5.085-1.118.509-2.023 1.365-3.232 1.641a1.146 1.146 0 0 1-1.521-.835c-.629-2.313 2.263-3.466 4.244-3.586-1-.644-3.862-2.376-2.412-3.338s4.845 1.542 5.948 2.369c1.62 1.209 3.536 3.048 3.713 5.036.194 2.326-1.888.969-3.125.53z" transform="translate(-43.767 -116.278)" style="fill:#c7d5ff"/>
            <path data-name="Path 68707" d="M53.181 300.786c-1.591.113-2.49 2.688-3.7 3.48a1.188 1.188 0 0 1-1.761-.212c-1.294-1.662.3-3.84 1.846-5.085-1.118.509-2.023 1.365-3.232 1.641a1.146 1.146 0 0 1-1.521-.835c-.629-2.313 2.263-3.466 4.244-3.586-1-.644-3.862-2.376-2.412-3.338s4.845 1.542 5.948 2.369c1.62 1.209 3.536 3.048 3.713 5.036.194 2.326-1.888.969-3.125.53z" transform="translate(-43.767 -116.278)" style="opacity:.1"/>
            <path data-name="Path 68708" d="M54.54 302.037c-2.072-.849-5.92.629-6.281-.127-.707-1.542 2.341-2.73 4.017-3.006-1.563-.361-4.562-.912-4.527-2.412.042-1.832 4.548-.431 6.861 1.209 2.921 2.065 2.978 4.159 2.525 4.6-.615.599-2.256-.13-2.595-.264z" transform="translate(-44.652 -117.154)" style="fill:#c7d5ff"/>
            <path data-name="Path 68709" d="M69.38 321.536a93.711 93.711 0 0 0 2.971 13.735.36.36 0 0 0 .707-.134c-.629-4.244-1.775-8.388-2.4-12.625a63.1 63.1 0 0 1-.707-12.957c.4-7.136 2.341-14.733 6.995-20.313.1-.134-.113-.318-.219-.2-9.414 10.892-7.907 24.217-7.893 25.42-1.323-4.5-2.681-9.654-7.674-14.238-.219-.2-.382-.106-.347.233.891 8.346 3.211 12.731 8.049 17.166.138 1.318.306 2.633.518 3.913z" transform="translate(-48.473 -115.216)" style="fill:#263238"/>
            <path data-name="Path 68710" d="M82.045 286.334c1.676-.75 3.989 1.415 5.658 1.535a1.372 1.372 0 0 0 1.662-1.167c.417-2.4-2.4-3.749-4.64-4.173 1.415-.092 2.829.29 4.187-.085A1.323 1.323 0 0 0 90 280.768c-.637-2.695-4.173-2.313-6.295-1.337.665-1.2 2.638-4.512.644-4.7s-4.1 4.194-4.767 5.658c-.99 2.122-1.973 5.036-1.047 7.136 1.091 2.437 2.484-.074 3.51-1.191z" transform="translate(-53.555 -111.034)" style="fill:#c7d5ff"/>
            <path data-name="Path 68711" d="M82.045 286.334c1.676-.75 3.989 1.415 5.658 1.535a1.372 1.372 0 0 0 1.662-1.167c.417-2.4-2.4-3.749-4.64-4.173 1.415-.092 2.829.29 4.187-.085A1.323 1.323 0 0 0 90 280.768c-.637-2.695-4.173-2.313-6.295-1.337.665-1.2 2.638-4.512.644-4.7s-4.1 4.194-4.767 5.658c-.99 2.122-1.973 5.036-1.047 7.136 1.091 2.437 2.484-.074 3.51-1.191z" transform="translate(-53.555 -111.034)" style="opacity:.1"/>
            <path data-name="Path 68712" d="M81.807 287.945c1.648-1.98 6.366-2.567 6.323-3.536-.085-1.959-3.869-1.507-5.722-.87 1.415-1.224 4.145-3.409 3.3-4.916-1.04-1.839-4.866 2.03-6.366 4.951-1.846 3.685-.771 5.856-.071 6.054.994.304 2.267-1.328 2.536-1.683z" transform="translate(-53.601 -112.037)" style="fill:#c7d5ff"/>
            <path data-name="Path 68713" d="m62.549 338.568-4.109 31.418h25.016c-.509-2.78-5.17-31.446-5.17-31.446z" transform="translate(-47.781 -129.715)" style="fill:#c7d5ff"/>
        </g>
        <g>
            <path data-name="Path 68714" d="m43.37 382.994 36.538-.17 36.538-.064 73.069-.12 73.069.12 36.538.064 36.538.17-36.538.177-36.538.064-73.069.113-73.069-.113-36.538-.064z" transform="translate(-43.37 -142.625)" style="fill:#263238"/>
        </g>
        <g transform="translate(40.718 272.069)">
            <ellipse data-name="Ellipse 1209" cx="105.427" cy="14.909" rx="105.427" ry="14.909" style="fill:#ebebeb"/>
        </g>
        <g>
            <path data-name="Path 68715" d="m139.512 189.127-4.392-17.279-34.657 8.82-4.583-18.035 27.669-63.174L137.319 96l13.368 52.593 11.1-2.829L166.4 163.9l-11.1 2.829 4.385 17.279zm-23.743-31.686 17.159-4.364-5.658-22.322z" transform="translate(-58.741 -58.719)" style="fill:#263238"/>
            <path data-name="Path 68716" d="M269.9 129.748a46.382 46.382 0 0 1-2.6 15.808 39.239 39.239 0 0 1-7.158 12.5 32.407 32.407 0 0 1-10.751 8.2 31.057 31.057 0 0 1-13.438 2.928 31.5 31.5 0 0 1-13.537-2.928 32.358 32.358 0 0 1-10.8-8.2 38.313 38.313 0 0 1-7.073-12.5 50.5 50.5 0 0 1 0-31.622 38.348 38.348 0 0 1 7.073-12.491 33.016 33.016 0 0 1 10.8-8.261 30.936 30.936 0 0 1 13.537-2.992 30.5 30.5 0 0 1 13.438 2.992 33.072 33.072 0 0 1 10.736 8.261 39.282 39.282 0 0 1 7.158 12.491 46.4 46.4 0 0 1 2.617 15.815zm-20.95 0q0-9.11-3.642-14.768t-9.371-5.658q-5.984 0-9.562 5.658t-3.579 14.768q0 9.11 3.579 14.7t9.577 5.595q5.729 0 9.371-5.595t3.642-14.7z" transform="translate(-89.803 -57.018)" style="fill:#263238"/>
            <path data-name="Path 68717" d="m337.4 186.313 2.829-17.6-35.3-5.743 2.978-18.389 50.57-46.914 14 2.27-8.677 53.573 11.316 1.832-2.992 18.5-11.316-1.832-2.829 17.6zm-9.195-38.525 17.47 2.829 3.685-22.739z" transform="translate(-119.934 -59.208)" style="fill:#263238"/>
            <path data-name="Path 68718" d="M204.6 63.959a9.2 9.2 0 0 1-4.017-.87 9.859 9.859 0 0 1-3.112-2.313 10.744 10.744 0 0 1-2.73-7.073 10.164 10.164 0 0 1 .757-3.89 10.722 10.722 0 0 1 2.086-3.282 9.86 9.86 0 0 1 3.154-2.27 9.322 9.322 0 0 1 3.975-.842 8.883 8.883 0 0 1 4.01.9 10.058 10.058 0 0 1 3.07 2.341 10.687 10.687 0 0 1 2 3.317 10.376 10.376 0 0 1 0 7.639 10.546 10.546 0 0 1-2.058 3.261 9.824 9.824 0 0 1-3.14 2.256 9.414 9.414 0 0 1-3.995.826zm-5.892-10.284a8.048 8.048 0 0 0 .4 2.539 6.74 6.74 0 0 0 1.16 2.171 5.594 5.594 0 0 0 1.853 1.514 5.354 5.354 0 0 0 2.5.573 5.241 5.241 0 0 0 2.525-.587 5.729 5.729 0 0 0 1.86-1.556 6.847 6.847 0 0 0 1.139-2.185 8 8 0 0 0 0-5.015 7.073 7.073 0 0 0-1.167-2.171 5.658 5.658 0 0 0-1.86-1.5 5.771 5.771 0 0 0-5.015 0A5.658 5.658 0 0 0 200.25 49a6.966 6.966 0 0 0-1.125 2.171 8.227 8.227 0 0 0-.417 2.5z" transform="translate(-87.679 -43.328)" style="fill:#263238"/>
            <path data-name="Path 68719" d="M232.978 66.234a8.12 8.12 0 0 1-3.289-.629 7.313 7.313 0 0 1-2.468-1.7 7.553 7.553 0 0 1-1.563-2.468 8.417 8.417 0 0 1 0-5.92 7.554 7.554 0 0 1 1.563-2.483 7.313 7.313 0 0 1 2.468-1.7 8.119 8.119 0 0 1 3.289-.629 8.013 8.013 0 0 1 3.268.629 7.327 7.327 0 0 1 2.454 1.7 7.554 7.554 0 0 1 1.563 2.468 8.416 8.416 0 0 1 0 5.92 7.738 7.738 0 0 1-1.542 2.468 7.285 7.285 0 0 1-2.461 1.7 8.105 8.105 0 0 1-3.282.644zM229.06 58.5a5.092 5.092 0 0 0 .3 1.811 4.385 4.385 0 0 0 .828 1.415 3.607 3.607 0 0 0 1.209.927 3.756 3.756 0 0 0 3.091 0 3.607 3.607 0 0 0 1.238-.927 4.527 4.527 0 0 0 .835-1.415 5.383 5.383 0 0 0 .3-1.832 5.292 5.292 0 0 0-.3-1.8 4.526 4.526 0 0 0-.835-1.415 3.607 3.607 0 0 0-1.238-.927 3.657 3.657 0 0 0-1.542-.332 3.48 3.48 0 0 0-1.549.347 3.834 3.834 0 0 0-1.238.941 4.385 4.385 0 0 0-.827 1.415 5.135 5.135 0 0 0-.276 1.789z" transform="translate(-96.572 -45.461)" style="fill:#263238"/>
            <path data-name="Path 68720" d="M259.9 66.24a5.9 5.9 0 0 1-3.084-.785 5.559 5.559 0 0 1-2.058-2.122v8.707h-3.828V50.984h3.345v2.574a6.069 6.069 0 0 1 2.122-2.072 5.955 5.955 0 0 1 3.07-.757 6.436 6.436 0 0 1 2.829.615A7.023 7.023 0 0 1 264.51 53a7.78 7.78 0 0 1 1.457 2.454 8.445 8.445 0 0 1 .523 2.985 9.612 9.612 0 0 1-.481 3.063 7.858 7.858 0 0 1-1.358 2.483 6.239 6.239 0 0 1-2.072 1.655 5.758 5.758 0 0 1-2.681.6zm-1.28-3.253a3.459 3.459 0 0 0 1.584-.375 3.855 3.855 0 0 0 1.238-1 4.632 4.632 0 0 0 .806-1.457 5.213 5.213 0 0 0 .283-1.719 4.951 4.951 0 0 0-.311-1.754 4.377 4.377 0 0 0-.877-1.415 4 4 0 0 0-1.316-.941 3.833 3.833 0 0 0-1.641-.347 3.494 3.494 0 0 0-1.11.191 3.9 3.9 0 0 0-1.061.523 4.675 4.675 0 0 0-.87.8 3.431 3.431 0 0 0-.587 1v3.536a5.192 5.192 0 0 0 1.57 2.122 3.628 3.628 0 0 0 2.292.828z" transform="translate(-104.127 -45.467)" style="fill:#263238"/>
            <path data-name="Path 68721" d="M281.747 66.229a11.465 11.465 0 0 1-3.685-.6A8.975 8.975 0 0 1 275 63.916l1.415-2.4a12.667 12.667 0 0 0 2.674 1.471 7.207 7.207 0 0 0 2.589.5 3.3 3.3 0 0 0 1.8-.424 1.415 1.415 0 0 0 .658-1.231 1.224 1.224 0 0 0-.771-1.167 16.8 16.8 0 0 0-2.511-.863c-.976-.262-1.8-.523-2.49-.771a6.21 6.21 0 0 1-1.655-.842 2.829 2.829 0 0 1-.912-1.082 3.473 3.473 0 0 1-.29-1.471 4.626 4.626 0 0 1 .446-2.058 4.427 4.427 0 0 1 1.245-1.556 5.75 5.75 0 0 1 1.867-.99 7.681 7.681 0 0 1 2.327-.339 10.206 10.206 0 0 1 3.161.481 7.632 7.632 0 0 1 2.695 1.577l-1.548 2.31a8.9 8.9 0 0 0-2.214-1.259 6 6 0 0 0-2.122-.4 3.063 3.063 0 0 0-1.627.4 1.414 1.414 0 0 0-.658 1.287 1.308 1.308 0 0 0 .156.658 1.372 1.372 0 0 0 .5.453 5.055 5.055 0 0 0 .9.389c.375.12.835.255 1.415.382 1.033.269 1.91.538 2.645.806a6.854 6.854 0 0 1 1.747.912 3.246 3.246 0 0 1 1.033 1.181 3.677 3.677 0 0 1 .325 1.648 4.18 4.18 0 0 1-1.627 3.473 7.073 7.073 0 0 1-4.426 1.238z" transform="translate(-111.173 -45.456)" style="fill:#263238"/>
            <path data-name="Path 68722" d="M297.67 56.148V43.29h3.83v12.858zm0 7.632v-4.315h3.83v4.315z" transform="translate(-117.809 -43.29)" style="fill:#263238"/>
        </g>
        <g transform="translate(56.901 110.244)">
            <path data-name="Rectangle 8478" transform="translate(78.699 81.118)" style="fill:#37474f" d="M0 0h25.115v2.058H0z"/>
            <path data-name="Rectangle 8479" transform="translate(78.699 83.791)" style="fill:#37474f" d="M0 0h25.115v2.058H0z"/>
            <path data-name="Rectangle 8480" transform="translate(78.699 86.472)" style="fill:#37474f" d="M0 0h25.115v2.058H0z"/>
            <path data-name="Rectangle 8481" transform="translate(78.699 89.153)" style="fill:#37474f" d="M0 0h25.115v2.058H0z"/>
            <path data-name="Rectangle 8482" transform="translate(78.699 91.833)" style="fill:#37474f" d="M0 0h25.115v2.058H0z"/>
            <path data-name="Rectangle 8483" transform="translate(66.937 145.296)" style="fill:#37474f" d="M0 0h47.755v2.058H0z"/>
            <path data-name="Rectangle 8484" transform="translate(66.937 147.977)" style="fill:#37474f" d="M0 0h47.755v2.058H0z"/>
            <path data-name="Rectangle 8485" transform="translate(66.937 150.658)" style="fill:#37474f" d="M0 0h47.755v2.058H0z"/>
            <path data-name="Rectangle 8486" transform="translate(66.937 153.338)" style="fill:#37474f" d="M0 0h47.755v2.058H0z"/>
            <path data-name="Rectangle 8487" transform="translate(66.937 156.019)" style="fill:#37474f" d="M0 0h47.755v2.058H0z"/>
            <path data-name="Path 68723" d="M184.507 272.1c0-.276-10.447-3.791-10.447-3.791l.615-35.986 13.891-2.985z" transform="translate(-138.526 -207.994)" style="fill:#c7d5ff"/>
            <path data-name="Path 68724" d="M184.507 272.1c0-.276-10.447-3.791-10.447-3.791l.615-35.986 13.891-2.985z" transform="translate(-138.526 -207.994)" style="opacity:.2"/>
            <path data-name="Path 68725" d="M324.49 292.578c.071-.269 11.118.042 11.118.042l11.8-34.006-12.024-7.575z" transform="translate(-182.56 -214.346)" style="fill:#c7d5ff"/>
            <path data-name="Path 68726" d="M324.49 292.578c.071-.269 11.118.042 11.118.042l11.8-34.006-12.024-7.575z" transform="translate(-182.56 -214.346)" style="opacity:.2"/>
            <path data-name="Path 68727" d="M186 276.522s3.883-58.209 7.292-77.362c0 0 70.318 5.319 108.277 19.8 0 0-19.57 67.984-20.582 71.357-.014.032-49.53-9.717-94.987-13.795z" transform="translate(-142.021 -199.16)" style="fill:#c7d5ff"/>
            <path data-name="Path 68728" d="M271.544 210.15q-1.712 10.51-3.494 21.02l-3.628 20.985-.191-.29 23.559 5.566 11.769 2.829 11.748 2.907-11.807-2.645-11.8-2.695-23.581-5.51-.24-.057.042-.24 3.756-20.971q1.88-10.396 3.867-20.899z" transform="translate(-164.816 -202.377)" style="opacity:.1"/>
            <path data-name="Path 68729" d="M269.937 215.234a1.369 1.369 0 1 1-2.27-1.033 1.372 1.372 0 0 1 2.27 1.033zm0 0a1.132 1.132 0 0 0-.389-.842 1.11 1.11 0 1 0 0 1.69 1.16 1.16 0 0 0 .389-.849z" transform="translate(-165.79 -203.465)" style="opacity:.1"/>
            <path data-name="Path 68730" d="M268.19 227.48a1.365 1.365 0 1 1-2.27-1.033 1.363 1.363 0 0 1 2.27 1.033zm0 0a1.131 1.131 0 0 0-.389-.849 1.12 1.12 0 1 0 .389.849z" transform="translate(-165.281 -207.047)" style="opacity:.1"/>
            <path data-name="Path 68731" d="M266.063 240.43a1.365 1.365 0 0 1-1.231 1.365 1.375 1.375 0 1 1 0-2.737 1.372 1.372 0 0 1 1.231 1.372zm0 0a1.132 1.132 0 0 0-.389-.849 1.111 1.111 0 1 0-.842 1.952 1.146 1.146 0 0 0 .842-.262 1.1 1.1 0 0 0 .389-.841z" transform="translate(-164.674 -210.837)" style="opacity:.1"/>
            <path data-name="Path 68732" d="M263.882 253.361a1.344 1.344 0 1 1-1.231-1.372 1.372 1.372 0 0 1 1.231 1.372zm0 0a1.132 1.132 0 0 0-.389-.849 1.111 1.111 0 1 0-.842 1.952 1.146 1.146 0 0 0 .842-.262 1.132 1.132 0 0 0 .389-.842z" transform="translate(-164.028 -214.623)" style="opacity:.1"/>
            <path data-name="Path 68733" d="M271.214 273.992a1.372 1.372 0 1 1-1.238-1.365 1.372 1.372 0 0 1 1.238 1.365zm0 0a1.16 1.16 0 0 0-.389-.849 1.146 1.146 0 0 0-.849-.255 1.11 1.11 0 1 0 .849 1.952 1.16 1.16 0 0 0 .389-.848z" transform="translate(-166.162 -220.663)" style="opacity:.1"/>
            <path data-name="Path 68734" d="M283.426 276.973a1.369 1.369 0 1 1-2.27-1.033 1.415 1.415 0 0 1 1.033-.332 1.365 1.365 0 0 1 1.237 1.365zm0 0a1.132 1.132 0 0 0-.389-.849 1.146 1.146 0 0 0-.849-.255 1.11 1.11 0 1 0 .849 1.952 1.131 1.131 0 0 0 .389-.848z" transform="translate(-169.738 -221.537)" style="opacity:.1"/>
            <path data-name="Path 68735" d="M295.64 279.953a1.365 1.365 0 0 1-2.263 1.033 1.415 1.415 0 0 1-.467-1.033 1.372 1.372 0 0 1 .46-1.033 1.414 1.414 0 0 1 1.04-.332 1.365 1.365 0 0 1 1.231 1.365zm0 0a1.125 1.125 0 0 0-.382-.849 1.16 1.16 0 0 0-.87-.226 1.11 1.11 0 0 0 0 2.207 1.153 1.153 0 0 0 .849-.255 1.125 1.125 0 0 0 .403-.877z" transform="translate(-173.316 -222.409)" style="opacity:.1"/>
            <path data-name="Path 68736" d="M307.867 282.93a1.372 1.372 0 0 1-2.27 1.033 1.373 1.373 0 1 1 2.27-1.033zm0 0a1.16 1.16 0 0 0-.389-.849 1.11 1.11 0 1 0-.849 1.952 1.146 1.146 0 0 0 .849-.255 1.16 1.16 0 0 0 .389-.848z" transform="translate(-176.893 -223.279)" style="opacity:.1"/>
            <path data-name="Path 68737" d="M320.068 286a1.373 1.373 0 0 1-2.348.856 1.379 1.379 0 0 1 .163-2.058 1.358 1.358 0 0 1 1.054-.255 1.415 1.415 0 0 1 1.131 1.457zm0 0a1.132 1.132 0 0 0-.325-.87 1.11 1.11 0 1 0-.127 1.683 1.132 1.132 0 0 0 .452-.813z" transform="translate(-180.466 -224.147)" style="opacity:.1"/>
            <path data-name="Path 68738" d="M261.733 266.292a1.372 1.372 0 0 1-1.231 1.372 1.45 1.45 0 0 1-1.04-.332 1.373 1.373 0 1 1 2.27-1.04zm0 0a1.132 1.132 0 0 0-.389-.842 1.11 1.11 0 1 0 0 1.69 1.132 1.132 0 0 0 .389-.848z" transform="translate(-163.386 -218.409)" style="opacity:.1"/>
            <circle data-name="Ellipse 1210" cx="19.966" cy="19.966" r="19.966" transform="rotate(-41.96 82.03 -31.744)" style="opacity:.2"/>
            <circle data-name="Ellipse 1211" cx="16.013" cy="16.013" r="16.013" transform="rotate(-69.27 66.537 -7.3)" style="fill:#263238"/>
            <path data-name="Rectangle 8488" transform="rotate(9.2 -226.353 429.461)" style="fill:#c7d5ff" d="M0 0h3.791v3.791H0z"/>
            <path data-name="Rectangle 8489" transform="rotate(9.2 -200.89 407.773)" style="fill:#c7d5ff" d="M0 0h3.791v3.791H0z"/>
            <path data-name="Rectangle 8490" transform="rotate(9.2 -208.486 502.028)" style="fill:#c7d5ff" d="M0 0h3.791v3.791H0z"/>
            <path data-name="Rectangle 8491" transform="rotate(9.2 -294.635 400.223)" style="fill:#c7d5ff" d="M0 0h3.791v3.791H0z"/>
            <path data-name="Rectangle 8492" transform="rotate(9.2 -302.228 494.522)" style="fill:#c7d5ff" d="M0 0h3.791v3.791H0z"/>
            <path data-name="Rectangle 8493" transform="rotate(9.2 -272.947 425.686)" style="fill:#c7d5ff" d="M0 0h3.791v3.791H0z"/>
            <path data-name="Rectangle 8494" transform="rotate(9.2 -251.561 451.123)" style="fill:#c7d5ff" d="M0 0h3.791v3.791H0z"/>
            <path data-name="Rectangle 8495" transform="rotate(9.2 -230.13 476.569)" style="fill:#c7d5ff" d="M0 0h3.791v3.791H0z"/>
            <path data-name="Rectangle 8496" transform="rotate(9.2 -276.718 472.874)" style="fill:#c7d5ff" d="M0 0h3.791v3.791H0z"/>
            <circle data-name="Ellipse 1212" cx="19.966" cy="19.966" r="19.966" transform="rotate(-50.67 110.641 -71.647)" style="fill:#c7d5ff"/>
            <circle data-name="Ellipse 1213" cx="19.966" cy="19.966" r="19.966" transform="rotate(-50.67 110.641 -71.647)" style="opacity:.2"/>
            <path data-name="Path 68739" d="M310.432 275.49c-.092.4-.2.771-.311 1.153l-38.9-8.3a19.764 19.764 0 0 1 .375-2.086 19.972 19.972 0 1 1 38.861 9.238z" transform="translate(-166.967 -214.304)" style="opacity:.2"/>
            <circle data-name="Ellipse 1214" cx="16.013" cy="16.013" r="16.013" transform="rotate(-22.68 171.089 -233.05)" style="fill:#263238"/>
            <path data-name="Rectangle 8497" transform="rotate(13.37 -138.135 554.03)" style="fill:#c7d5ff" d="M0 0h3.791v18.877H0z"/>
            <path data-name="Path 68740" d="m311.381 274.43-40.881-9.718a21.012 21.012 0 1 1 40.884 9.719z" transform="translate(-166.756 -213.618)" style="fill:#c7d5ff"/>
            <path data-name="Path 68741" d="m311.381 274.43-40.881-9.718a21.012 21.012 0 1 1 40.884 9.719z" transform="translate(-166.756 -213.618)" style="opacity:.2"/>
            <path data-name="Path 68742" d="M250.07 293.321a7.433 7.433 0 0 1 1.846-4.491 5.425 5.425 0 0 1 2.171-1.464 6.125 6.125 0 0 1 2.617-.29 4.88 4.88 0 0 1 4.1 3.063 8.127 8.127 0 0 1 .417 4.845 12.731 12.731 0 0 0-1.415-4.343 4.159 4.159 0 0 0-3.261-2.164 4.993 4.993 0 0 0-3.883 1.139 10.453 10.453 0 0 0-2.592 3.705z" transform="translate(-160.776 -224.885)" style="opacity:.1"/>
            <path data-name="Path 68743" d="M193.72 227.568c.163-2.122.4-4.244.608-6.366s.46-4.244.707-6.366.523-4.244.792-6.366.573-4.244.863-6.366l.071-.566.573.035q6.917.431 13.8 1.139c2.292.233 4.583.5 6.875.792s4.576.637 6.846 1.047l-13.806-.849-13.785-.9.644-.523c-.311 2.122-.6 4.244-.934 6.366s-.651 4.244-1 6.33-.707 4.208-1.075 6.316-.748 4.183-1.179 6.277z" transform="translate(-144.281 -199.857)" style="fill:#fff"/>
            <path data-name="Path 68744" d="M198.41 255.159a17.364 17.364 0 0 1 3.2-7.136c.389-.538.835-1.033 1.259-1.542s.941-.941 1.415-1.415a14.729 14.729 0 0 1 1.57-1.238c.53-.4 1.117-.707 1.69-1.075a13.753 13.753 0 0 1 1.818-.863l1.9-.658 1.966-.4c.658-.1 1.323-.12 1.987-.17a19.308 19.308 0 0 1 7.667 1.485 27.293 27.293 0 0 0-7.624-.509 17.838 17.838 0 0 0-7.122 2.214 20.611 20.611 0 0 0-5.786 4.774 23.49 23.49 0 0 0-3.94 6.533z" transform="translate(-145.654 -211.307)" style="fill:#fff"/>
            <path data-name="Path 68745" d="M276.29 263.757a17.526 17.526 0 0 1 4.145-6.627c.46-.474.969-.905 1.464-1.351s1.061-.8 1.6-1.2a12.8 12.8 0 0 1 1.726-1.011c.587-.3 1.209-.566 1.825-.828a18.142 18.142 0 0 1 1.91-.608l1.973-.389 2-.127c.665 0 1.33.071 1.995.113a19.231 19.231 0 0 1 7.405 2.518 27.52 27.52 0 0 0-7.483-1.556 17.859 17.859 0 0 0-7.356 1.209 20.83 20.83 0 0 0-6.366 3.925 23.744 23.744 0 0 0-4.838 5.927z" transform="translate(-168.451 -214.516)" style="fill:#fff"/>
            <path data-name="Path 68746" d="M176.743 340.223c-5.114 0-16.31-1.146-23.517-10.411-9.195-11.854-5.885-34.6-5.743-35.562l4 .608c0 .219-3.211 21.989 4.951 32.464 7.964 10.241 22.414 8.777 22.555 8.756l.46 4.024c-.174.015-1.164.121-2.706.121z" transform="translate(-130.543 -226.995)" style="fill:#c7d5ff"/>
            <path data-name="Path 68747" d="M176.743 340.223c-5.114 0-16.31-1.146-23.517-10.411-9.195-11.854-5.885-34.6-5.743-35.562l4 .608c0 .219-3.211 21.989 4.951 32.464 7.964 10.241 22.414 8.777 22.555 8.756l.46 4.024c-.174.015-1.164.121-2.706.121z" transform="translate(-130.543 -226.995)" style="opacity:.4;fill:#fff"/>
            <path data-name="Path 68748" d="M149.063 290.71a13.438 13.438 0 0 1-2.235-.177c-6.755-1.1-9.739-5.135-11.062-8.332a21.253 21.253 0 0 1-.919-11.522l8.558 1.415a13.227 13.227 0 0 0 .368 6.825c.488 1.174 1.415 2.589 4.428 3.077 1.372.219 2.829.106 4.406-2.235a16.154 16.154 0 0 0 2.164-5.821l8.565 1.415a25.087 25.087 0 0 1-3.536 9.195 12.552 12.552 0 0 1-10.737 6.16z" transform="translate(-126.939 -220.095)" style="fill:#c7d5ff"/>
            <path data-name="Path 68749" d="M196.633 363.863c0-.184-7.257-1.337-7.257-1.337L185.84 338.9l8.763-3.466z" transform="translate(-141.975 -239.049)" style="fill:#c7d5ff"/>
            <path data-name="Path 68750" d="M196.633 363.863c0-.184-7.257-1.337-7.257-1.337L185.84 338.9l8.763-3.466z" transform="translate(-141.975 -239.049)" style="opacity:.2"/>
            <path data-name="Path 68751" d="M302.3 363.946c0-.184 7.278-1.174 7.278-1.174l4.039-23.545-8.7-3.657z" transform="translate(-176.065 -239.09)" style="fill:#c7d5ff"/>
            <path data-name="Path 68752" d="M302.3 363.946c0-.184 7.278-1.174 7.278-1.174l4.039-23.545-8.7-3.657z" transform="translate(-176.065 -239.09)" style="opacity:.2"/>
            <path data-name="Path 68753" d="M196.84 327.625s58.556-2.5 78.331.8c0 0-5.807 56.653-6.118 57.756 0 0-58.251-.163-67.354 0 .001-.036-4.93-37.712-4.859-58.556z" transform="translate(-145.194 -236.499)" style="fill:#c7d5ff"/>
            <path data-name="Path 68754" d="M222 349.719s31.962-1.266 42.762.4c0 0-3.176 28.567-3.345 29.126 0 0-31.828-.078-36.779 0 .007-.004-2.178-19.56-2.638-29.526z" transform="translate(-152.559 -243.097)" style="opacity:.2"/>
            <path data-name="Path 68755" d="M226.357 379.385h-1.719s-2.178-19.542-2.638-29.514l2-.071z" transform="translate(-152.559 -243.255)" style="opacity:.2"/>
            <path data-name="Path 68756" d="M238.094 358.245a3.4 3.4 0 1 0 2.221 4.244 3.4 3.4 0 0 0-2.221-4.244zm1.825 4.145a2.985 2.985 0 1 1-.2-2.277 2.985 2.985 0 0 1 .2 2.277zm-1.825-4.145a3.4 3.4 0 1 0 2.221 4.244 3.4 3.4 0 0 0-2.221-4.244zm1.825 4.145a2.985 2.985 0 1 1-.2-2.277 2.985 2.985 0 0 1 .2 2.277zm-1.825-4.145a3.4 3.4 0 1 0 2.221 4.244 3.4 3.4 0 0 0-2.221-4.244zm1.825 4.145a2.985 2.985 0 1 1-.2-2.277 2.985 2.985 0 0 1 .2 2.277zm-.707-7.738a5.709 5.709 0 1 0 .021 0zm1.591 8.021a1.518 1.518 0 1 1 .021 0zm-.509-.163a1.687 1.687 0 1 0 .021 0zm-.4-.12a1.15 1.15 0 1 1 .021 0zm-1.825-4.145a2.7 2.7 0 1 0 .021 0zm1.825 4.145a1.15 1.15 0 1 1 .021 0zm-1.825-4.145a2.7 2.7 0 1 0 .021 0zm1.825 4.145a1.15 1.15 0 1 1 .021 0z" transform="translate(-154.868 -244.578)" style="fill:#c7d5ff"/>
            <path data-name="Path 68757" d="m237.72 373.965-2.631-.835-.439 1.91 2.334.736z" transform="translate(-156.262 -250.085)" style="fill:#c7d5ff"/>
            <path data-name="Path 68758" d="m231.1 369.81-1.273-2.44-1.667 1.03 1.132 2.178z" transform="translate(-154.363 -248.399)" style="fill:#c7d5ff"/>
            <path data-name="Path 68759" d="m229.3 362.37.828-2.624-1.9-.446-.743 2.341z" transform="translate(-154.163 -246.036)" style="fill:#c7d5ff"/>
            <path data-name="Path 68760" d="m233.214 355.748 2.447-1.266-1.04-1.662-2.171 1.132z" transform="translate(-155.618 -244.139)" style="fill:#c7d5ff"/>
            <path data-name="Path 68761" d="m240.71 353.951 2.631.835.439-1.91-2.334-.736z" transform="translate(-158.036 -243.94)" style="fill:#c7d5ff"/>
            <path data-name="Path 68762" d="m247.39 357.864 1.273 2.447 1.662-1.033-1.132-2.178z" transform="translate(-159.992 -245.392)" style="fill:#c7d5ff"/>
            <path data-name="Path 68763" d="m249.308 365.37-.828 2.624 1.91.446.736-2.341z" transform="translate(-160.311 -247.813)" style="fill:#c7d5ff"/>
            <path data-name="Path 68764" d="m245.16 372.04-2.44 1.273 1.033 1.662 2.171-1.132z" transform="translate(-158.625 -249.766)" style="fill:#c7d5ff"/>
            <path data-name="Path 68765" d="M255.327 372.8a2.292 2.292 0 1 0 .665 3.169 2.292 2.292 0 0 0-.665-3.169zm.431 3.013a4.05 4.05 0 1 1 0 .007zm-.431-3.013a2.292 2.292 0 1 0 .665 3.169 2.292 2.292 0 0 0-.665-3.169zm.431 3.013a4.05 4.05 0 1 1 0 .007zm-.431-3.013a2.292 2.292 0 1 0 .665 3.169 2.292 2.292 0 0 0-.665-3.169zm.431 3.013a4.05 4.05 0 1 1 0 .007zm.948-5.135a4.824 4.824 0 1 0 1.415 6.677 4.824 4.824 0 0 0-1.415-6.677zm-.417 5.481a5.346 5.346 0 1 1 0 .007zm-.3-.191a1.652 1.652 0 1 0 0 .007zm-.233-.156a4.05 4.05 0 1 1 0 .007zm-.431-3.013a2.292 2.292 0 1 0 .665 3.169 2.292 2.292 0 0 0-.663-3.168zm.431 3.013a4.05 4.05 0 1 1 0 .007zm-.431-3.013a2.292 2.292 0 1 0 .665 3.169 2.292 2.292 0 0 0-.663-3.168zm.431 3.013a4.05 4.05 0 1 1 0 .007z" transform="translate(-160.537 -249.139)" style="fill:#dbdbdb"/>
            <path data-name="Path 68766" d="m252.7 382.5-1.556-1.011-.629 1.153 1.386.9z" transform="translate(-160.905 -252.532)" style="fill:#dbdbdb"/>
            <path data-name="Path 68767" d="m249.218 378.7-.382-1.811-1.266.368.339 1.62z" transform="translate(-160.044 -251.185)" style="fill:#dbdbdb"/>
            <path data-name="Path 68768" d="m249.3 373.486 1.011-1.556-1.153-.63-.905 1.379z" transform="translate(-160.243 -249.549)" style="fill:#dbdbdb"/>
            <path data-name="Path 68769" d="m253.127 370.008 1.811-.389-.368-1.259-1.62.339z" transform="translate(-161.619 -248.688)" style="fill:#dbdbdb"/>
            <path data-name="Path 68770" d="m258.26 370.087 1.556 1.011.629-1.16-1.379-.9z" transform="translate(-163.173 -248.887)" style="fill:#dbdbdb"/>
            <path data-name="Path 68771" d="m261.96 373.91.389 1.818 1.259-.375-.34-1.613z" transform="translate(-164.256 -250.263)" style="fill:#dbdbdb"/>
            <path data-name="Path 68772" d="m261.711 379.05-1.011 1.556 1.153.629.905-1.386z" transform="translate(-163.888 -251.818)" style="fill:#dbdbdb"/>
            <path data-name="Path 68773" d="m257.918 382.75-1.818.382.375 1.266 1.613-.339z" transform="translate(-162.541 -252.901)" style="fill:#dbdbdb"/>
            <path data-name="Path 68774" d="m305.59 383.349 2.256.424 6.436-43.59-2.567-.474z" transform="translate(-177.028 -240.302)" style="fill:#c7d5ff"/>
            <path data-name="Path 68775" d="m277.72 376.446 3.345-29.126 22.491-7.61s-6.125 44.113-6.125 43.639z" transform="translate(-168.87 -240.302)" style="fill:#c7d5ff"/>
            <path data-name="Path 68776" d="m277.72 376.446 3.345-29.126 22.491-7.61s-6.125 44.113-6.125 43.639z" transform="translate(-168.87 -240.302)" style="opacity:.4;fill:#fff"/>
            <path data-name="Path 68777" d="M200.284 345.44c-.368-2.412-.566-4.845-.707-7.278-.071-1.217-.1-2.44-.127-3.657s-.042-2.44 0-3.664v-.318h.311c4.47-.24 8.933-.538 13.438-.707s8.94-.424 13.438-.566c-4.463.4-8.919.75-13.382 1.075s-8.933.594-13.4.9l.325-.332v3.642l.042 3.642c0 1.217 0 2.433.064 3.642z" transform="translate(-145.95 -237.24)" style="fill:#fff"/>
            <path data-name="Path 68778" d="M286.88 348.589q2.122-1 4.244-1.846t4.329-1.641a94.91 94.91 0 0 1 4.413-1.415 40.7 40.7 0 0 1 4.52-1.054l.375-.064-.064.361c-.354 1.888-.707 3.77-1.16 5.658.163-1.917.4-3.826.637-5.729l.311.3c-1.485.354-2.956.764-4.428 1.2s-2.935.9-4.392 1.372z" transform="translate(-171.551 -241.139)" style="fill:#fff"/>
            <path data-name="Path 68779" d="m214.4 328.12.382 7.285.325 7.285.559 14.577.439 14.577.177 7.292.12 7.3-.382-7.285-.318-7.292-.566-14.57-.436-14.589-.177-7.292z" transform="translate(-150.335 -236.909)" style="opacity:.1"/>
            <path data-name="Path 68780" d="M210.331 333.874a1.365 1.365 0 0 1-2.016 1.464 1.374 1.374 0 0 1 .538-2.56 1.372 1.372 0 0 1 1.478 1.096zm0 0a1.1 1.1 0 1 0-.212.905 1.1 1.1 0 0 0 .212-.905z" transform="translate(-148.352 -238.271)" style="opacity:.1"/>
            <path data-name="Path 68781" d="M211.041 346.224a1.415 1.415 0 0 1-.941 1.584 1.365 1.365 0 0 1-1.74-1.047 1.37 1.37 0 0 1 1.2-1.634 1.372 1.372 0 0 1 1.481 1.097zm0 0a1.089 1.089 0 0 0-1.415-.835 1.11 1.11 0 1 0 1.415.835z" transform="translate(-148.56 -241.886)" style="opacity:.1"/>
            <path data-name="Path 68782" d="M211.491 359.333a1.367 1.367 0 1 1-2.426-.566 1.365 1.365 0 0 1 2.426.566zm0 0a1.089 1.089 0 0 0-1.415-.835 1.11 1.11 0 1 0 1.415.835z" transform="translate(-148.691 -245.723)" style="opacity:.1"/>
            <path data-name="Path 68783" d="M211.941 372.443a1.367 1.367 0 1 1-2.426-.566 1.365 1.365 0 0 1 2.426.566zm0 0a1.131 1.131 0 0 0-.545-.757 1.174 1.174 0 0 0-.884-.085 1.11 1.11 0 0 0 .438 2.164 1.139 1.139 0 0 0 .778-.417 1.118 1.118 0 0 0 .213-.905z" transform="translate(-148.823 -249.56)" style="opacity:.1"/>
            <path data-name="Path 68784" d="M212.39 385.545a1.365 1.365 0 0 1-2.016 1.464 1.371 1.371 0 1 1 2.016-1.464zm0 0a.464.464 0 1 0 .014 0z" transform="translate(-148.954 -253.397)" style="opacity:.1"/>
            <path data-name="Path 68785" d="M212.879 398.655a1.366 1.366 0 1 1-1.478-1.1 1.415 1.415 0 0 1 1.478 1.1zm0 0a1.117 1.117 0 0 0-.545-.75 1.146 1.146 0 0 0-.884-.085 1.114 1.114 0 1 0 1.429.835z" transform="translate(-149.097 -257.234)" style="opacity:.1"/>
            <path data-name="Rectangle 8498" transform="rotate(-16.86 575.583 -30.1)" style="fill:#c7d5ff" d="M0 0h34.643v4.046H0z"/>
            <path data-name="Rectangle 8499" transform="rotate(-16.86 575.583 -30.1)" style="opacity:.4;fill:#fff" d="M0 0h34.643v4.046H0z"/>
            <path data-name="Rectangle 8500" transform="rotate(-17.64 540.059 -70.903)" style="fill:#c7d5ff" d="M0 0h4.046v6.012H0z"/>
            <path data-name="Path 68786" d="m158.2 431.527-8.558-37.047-25.823 6.125 12.717 36.107z" transform="translate(-123.82 -256.334)" style="fill:#c7d5ff"/>
            <path data-name="Path 68787" d="m174.617 429.646-5.729 1.881-8.558-37.047 8.24 1.966z" transform="translate(-134.507 -256.334)" style="fill:#c7d5ff"/>
            <path data-name="Path 68788" d="m174.617 429.646-5.729 1.881-8.558-37.047 8.24 1.966z" transform="translate(-134.507 -256.334)" style="opacity:.2"/>
            <circle data-name="Ellipse 1215" cx="4.392" cy="4.392" r="4.392" transform="translate(62.828 153.14)" style="fill:#c7d5ff"/>
            <path data-name="Rectangle 8501" transform="rotate(-73.02 163.287 4.525)" style="fill:#c7d5ff" d="M0 0h4.046v34.643H0z"/>
            <path data-name="Rectangle 8502" transform="rotate(-73.02 163.287 4.525)" style="opacity:.4;fill:#fff" d="M0 0h4.046v34.643H0z"/>
            <path data-name="Rectangle 8503" transform="rotate(-72.23 176.133 -4.317)" style="fill:#c7d5ff" d="M0 0h6.012v4.046H0z"/>
            <path data-name="Path 68789" d="m328.36 431.493 8.629-37.033 25.816 6.182-12.795 36.078z" transform="translate(-183.693 -256.328)" style="fill:#c7d5ff"/>
            <path data-name="Path 68790" d="m320.26 429.6 5.729 1.9 8.629-37.033-8.24 1.945z" transform="translate(-181.322 -256.328)" style="fill:#c7d5ff"/>
            <path data-name="Path 68791" d="m320.26 429.6 5.729 1.9 8.629-37.033-8.24 1.945z" transform="translate(-181.322 -256.328)" style="opacity:.2"/>
            <path data-name="Path 68792" d="M275.76 419.925a4.392 4.392 0 1 0 1.294-3.106 4.4 4.4 0 0 0-1.294 3.106z" transform="translate(-168.296 -262.499)" style="fill:#c7d5ff"/>
            <path data-name="Path 68793" d="M321.495 352.427c.106-.1 10.758-9.973 23.284-6.592 12.809 3.452 23.383 22.746 23.489 22.944l3.536-1.924c-.467-.856-11.5-21.027-26-24.932-14.754-3.975-26.629 7.073-27.124 7.568z" transform="translate(-180.86 -240.698)" style="fill:#c7d5ff"/>
            <path data-name="Path 68794" d="M321.495 352.427c.106-.1 10.758-9.973 23.284-6.592 12.809 3.452 23.383 22.746 23.489 22.944l3.536-1.924c-.467-.856-11.5-21.027-26-24.932-14.754-3.975-26.629 7.073-27.124 7.568z" transform="translate(-180.86 -240.698)" style="opacity:.4;fill:#fff"/>
            <path data-name="Path 68795" d="m380.974 397.774 7.7-4.039a16.267 16.267 0 0 1-1.775-5.955c-.17-2.829.948-3.791 2.171-4.442 2.688-1.415 4.293-.856 5.389-.212a13.262 13.262 0 0 1 4.4 5.234l7.674-4.053a21.362 21.362 0 0 0-7.667-8.65c-2.985-1.761-7.78-3.183-13.841 0-4.718 2.49-7.122 6.974-6.783 12.632a25.108 25.108 0 0 0 2.737 9.485z" transform="translate(-198.284 -250.271)" style="fill:#c7d5ff"/>
            <path data-name="Path 68796" d="M325 332.907c1.662-1.146 3.367-2.228 5.071-3.3s3.437-2.122 5.17-3.14 3.48-2.03 5.248-3l2.659-1.45c.9-.46 1.782-.941 2.695-1.415-.828.58-1.683 1.125-2.518 1.683l-2.56 1.62c-1.7 1.082-3.43 2.122-5.163 3.14s-3.487 2.03-5.255 3-3.572 1.978-5.347 2.862z" transform="translate(-182.71 -234.708)" style="fill:#263238"/>
            <path data-name="Path 68797" d="M318.72 361.42c2.384 1.358 4.64 2.893 6.868 4.463a75.975 75.975 0 0 1 6.45 5.036 94.567 94.567 0 0 1-13.318-9.5z" transform="translate(-180.871 -246.657)" style="fill:#263238"/>
            <path data-name="Path 68798" d="M324.25 358.54c1.839.559 3.65 1.2 5.453 1.832s3.565 1.323 5.382 2.03 3.536 1.415 5.319 2.122l2.645 1.132c.87.4 1.747.785 2.61 1.2-.919-.269-1.825-.587-2.737-.877l-2.709-.948c-1.811-.637-3.6-1.323-5.382-2.009s-3.536-1.415-5.326-2.122-3.522-1.525-5.255-2.36z" transform="translate(-182.49 -245.814)" style="fill:#263238"/>
            <path data-name="Path 68799" d="M331.63 338.66c1.761-.46 3.536-.842 5.312-1.209s3.536-.707 5.347-1.026 3.572-.608 5.368-.863l2.695-.375c.905-.1 1.8-.219 2.716-.3-.884.233-1.768.424-2.652.644l-2.659.566c-1.775.375-3.536.707-5.347 1.026s-3.579.608-5.375.856-3.594.521-5.405.681z" transform="translate(-184.65 -238.891)" style="fill:#263238"/>
        </g>
        <g>
            <path data-name="Path 68800" d="M271.62 346.815a18.819 18.819 0 0 1 1.415-4.159 16.813 16.813 0 0 1 2.341-3.734 9.053 9.053 0 0 1 3.536-2.652 6.259 6.259 0 0 1 4.463.042 5.941 5.941 0 0 1 3.19 3.162 6.953 6.953 0 0 1 .594 2.2 4.951 4.951 0 0 1-.262 2.313 2.079 2.079 0 0 1-.778 1 1.514 1.514 0 0 1-.644.24 1.415 1.415 0 0 1-.707-.064 1.987 1.987 0 0 1-.912-.927 5.148 5.148 0 0 1-.417-1.089 14.224 14.224 0 0 1-.368-4.463 18.3 18.3 0 0 1 2.575-8.487 11.062 11.062 0 0 1 3.07-3.261 9.294 9.294 0 0 1 4.166-1.613 11.678 11.678 0 0 1 2.221-.191 6.536 6.536 0 0 1 1.118.071 7.259 7.259 0 0 1 1.1.149 13.552 13.552 0 0 1 4.145 1.563 17.462 17.462 0 0 1 3.466 2.723 18.482 18.482 0 0 1 2.73 3.43 19.1 19.1 0 0 0-6.366-5.849 13.263 13.263 0 0 0-4.053-1.415 14.808 14.808 0 0 0-2.122-.163 11.277 11.277 0 0 0-2.122.233 9.2 9.2 0 0 0-3.911 1.577 10.361 10.361 0 0 0-2.872 3.1 17.681 17.681 0 0 0-2.426 8.162 13.656 13.656 0 0 0 .318 4.244c.17.651.474 1.415.919 1.584a.932.932 0 0 0 .163.035.708.708 0 0 0 .212 0 .883.883 0 0 0 .375-.134 1.471 1.471 0 0 0 .538-.707 4.243 4.243 0 0 0 .233-2 6.636 6.636 0 0 0-.53-2.016 5.531 5.531 0 0 0-2.829-2.907 5.771 5.771 0 0 0-4.1-.127 8.813 8.813 0 0 0-3.452 2.461 19.1 19.1 0 0 0-4.017 7.674z" transform="translate(-110.184 -125.789)" style="fill:#263238"/>
            <path data-name="Path 68801" d="M179.22 379.287a9.9 9.9 0 0 1 2.829-3.275 10.609 10.609 0 0 1 3.961-1.9 8.523 8.523 0 0 1 4.42.092 8.827 8.827 0 0 1 3.777 2.348 11.168 11.168 0 0 1 2.362 3.77 10.355 10.355 0 0 1 .707 4.406 3.706 3.706 0 0 1-.82 2.207 1.726 1.726 0 0 1-1.2.538 2.617 2.617 0 0 1-1.217-.276 2 2 0 0 1-.877-.934 3.091 3.091 0 0 1-.269-1.188 6.486 6.486 0 0 1 .375-2.256 13.141 13.141 0 0 1 2.164-3.9 15.561 15.561 0 0 1 3.2-3.077 11.953 11.953 0 0 1 8.431-2.32 11.316 11.316 0 0 1 4.208 1.372 11.593 11.593 0 0 1 3.345 2.879 15.787 15.787 0 0 1 2.178 3.805 17.873 17.873 0 0 1 1.16 4.208 17.682 17.682 0 0 0-3.621-7.78 10.969 10.969 0 0 0-3.282-2.7 10.772 10.772 0 0 0-4.053-1.217 11.507 11.507 0 0 0-7.985 2.277 14.514 14.514 0 0 0-5.085 6.67 5.75 5.75 0 0 0-.361 2.016 1.712 1.712 0 0 0 .778 1.556 1.789 1.789 0 0 0 .884.205 1.054 1.054 0 0 0 .75-.332 3.084 3.084 0 0 0 .651-1.811 9.689 9.689 0 0 0-.707-4.13 11.005 11.005 0 0 0-2.207-3.593 8.346 8.346 0 0 0-3.536-2.277 8.084 8.084 0 0 0-4.187-.184 10.885 10.885 0 0 0-6.773 4.801z" transform="translate(-83.136 -139.936)" style="fill:#263238"/>
            <path data-name="Path 68802" d="M119.866 129.066a18.976 18.976 0 0 0-2.051-8.4 8.756 8.756 0 0 0-2.758-3.218 5.807 5.807 0 0 0-4.017-.856 5.5 5.5 0 0 0-3.444 2.122 6.366 6.366 0 0 0-1 1.825 4.244 4.244 0 0 0-.255 2 1.485 1.485 0 0 0 .354.806.87.87 0 0 0 .332.226 1.111 1.111 0 0 0 .205.057 1.358 1.358 0 0 0 .17 0c.481-.092.955-.707 1.273-1.316a13.877 13.877 0 0 0 1.287-4.01 17.725 17.725 0 0 0-.4-8.487 10.439 10.439 0 0 0-2.051-3.7 9.152 9.152 0 0 0-3.423-2.461 11.2 11.2 0 0 0-2.009-.707 13.558 13.558 0 0 0-2.122-.354 13 13 0 0 0-4.244.424 18.934 18.934 0 0 0-7.582 4.159A18.311 18.311 0 0 1 91.6 104.5a17.513 17.513 0 0 1 4.01-1.811 13.559 13.559 0 0 1 4.4-.53 16.155 16.155 0 0 1 2.207.318 12.124 12.124 0 0 1 2.122.707A9.336 9.336 0 0 1 108 105.74a10.984 10.984 0 0 1 2.2 3.9 18.333 18.333 0 0 1 .488 8.834 14.373 14.373 0 0 1-1.415 4.244 5.383 5.383 0 0 1-.665.955 1.987 1.987 0 0 1-1.11.707 1.492 1.492 0 0 1-.707-.106 1.514 1.514 0 0 1-.559-.382 2.157 2.157 0 0 1-.523-1.16 4.951 4.951 0 0 1 .3-2.306 7.073 7.073 0 0 1 1.11-1.995 5.927 5.927 0 0 1 3.848-2.313 6.281 6.281 0 0 1 4.343 1.026 9.032 9.032 0 0 1 2.829 3.423 16.713 16.713 0 0 1 1.415 4.187 18.545 18.545 0 0 1 .312 4.312z" transform="translate(-56.472 -60.517)" style="fill:#263238"/>
            <path data-name="Path 68803" d="M340.79 192.086a19.1 19.1 0 0 0-8.643 0 8.77 8.77 0 0 0-3.77 1.938 5.722 5.722 0 0 0-1.768 3.7 5.517 5.517 0 0 0 1.28 3.855 6.485 6.485 0 0 0 1.549 1.415 4.328 4.328 0 0 0 1.881.707 1.521 1.521 0 0 0 .87-.163.842.842 0 0 0 .3-.269c.042-.05.064-.127.106-.184s0-.113.035-.163a2.593 2.593 0 0 0-.983-1.549 14 14 0 0 0-3.621-2.221 17.682 17.682 0 0 0-8.36-1.591 10.439 10.439 0 0 0-4.074 1.132 9.109 9.109 0 0 0-3.19 2.751 11.5 11.5 0 0 0-1.188 1.782 6.8 6.8 0 0 0-.453.976 6.572 6.572 0 0 0-.382 1 13.105 13.105 0 0 0-.587 4.244 18.969 18.969 0 0 0 2.277 8.339 18.312 18.312 0 0 1-1.8-4 17.6 17.6 0 0 1-.82-4.329 13.629 13.629 0 0 1 .5-4.4 8.128 8.128 0 0 1 .371-1.056 7.7 7.7 0 0 1 .453-1.018 11.615 11.615 0 0 1 1.188-1.888 9.379 9.379 0 0 1 3.345-2.964 11.182 11.182 0 0 1 4.3-1.231 18.29 18.29 0 0 1 8.7 1.591 14.364 14.364 0 0 1 3.8 2.369 5.736 5.736 0 0 1 .778.87 2.009 2.009 0 0 1 .4 1.238 1.414 1.414 0 0 1-.262.658 1.514 1.514 0 0 1-.509.46 2.122 2.122 0 0 1-1.245.233 4.887 4.887 0 0 1-2.171-.828 7.137 7.137 0 0 1-1.683-1.542 5.948 5.948 0 0 1-1.351-4.244 6.281 6.281 0 0 1 2.009-3.989 9.2 9.2 0 0 1 3.989-1.938 16.721 16.721 0 0 1 4.392-.361 19.1 19.1 0 0 1 4.336.665z" transform="translate(-121.251 -86.645)" style="fill:#263238"/>
            <path data-name="Path 68804" d="M291.678 114.8a12.024 12.024 0 0 1-.276-5.2 12.654 12.654 0 0 1 1.818-4.951 10.086 10.086 0 0 1 3.848-3.607 10.518 10.518 0 0 1 5.177-1.132 13.375 13.375 0 0 1 5.156 1.245 12.307 12.307 0 0 1 4.293 3.147 4.329 4.329 0 0 1 1.132 2.539 2 2 0 0 1-.552 1.415 3.041 3.041 0 0 1-1.252.764 2.32 2.32 0 0 1-1.485-.064 3.692 3.692 0 0 1-1.2-.785 7.731 7.731 0 0 1-1.556-2.228 15.717 15.717 0 0 1-1.415-5.128 18.736 18.736 0 0 1 .163-5.3 14.3 14.3 0 0 1 5.248-9.011 13.587 13.587 0 0 1 4.739-2.348 13.735 13.735 0 0 1 5.255-.339 18.5 18.5 0 0 1 5.05 1.415 21.14 21.14 0 0 1 4.52 2.617 21.056 21.056 0 0 0-9.562-3.642 13 13 0 0 0-12.88 6.641 15.178 15.178 0 0 0-1.662 4.81 17.385 17.385 0 0 0 1.224 10.008 7.115 7.115 0 0 0 1.415 2.044 2.122 2.122 0 0 0 2.037.707 2.348 2.348 0 0 0 .962-.587 1.316 1.316 0 0 0 .375-.955 3.713 3.713 0 0 0-.976-2.122 11.684 11.684 0 0 0-4.053-2.992 13.219 13.219 0 0 0-4.951-1.231 10.142 10.142 0 0 0-4.951 1 9.69 9.69 0 0 0-3.756 3.374 13.007 13.007 0 0 0-1.885 9.896z" transform="translate(-115.927 -55.121)" style="fill:#263238"/>
            <path data-name="Path 68805" d="M172.848 380.48a3.006 3.006 0 1 0 1.966 3.777 3.006 3.006 0 0 0-1.966-3.777zm1.62 3.664a2.638 2.638 0 1 1-1.726-3.31 2.638 2.638 0 0 1 1.726 3.31zm-1.62-3.664a3.006 3.006 0 1 0 1.966 3.777 3.006 3.006 0 0 0-1.966-3.777zm1.62 3.664a2.638 2.638 0 1 1-1.726-3.31 2.638 2.638 0 0 1 1.726 3.31zm-1.62-3.664a3.006 3.006 0 1 0 1.966 3.777 3.006 3.006 0 0 0-1.966-3.777zm1.62 3.664a2.638 2.638 0 1 1-1.726-3.31 2.638 2.638 0 0 1 1.726 3.31zm-.615-6.839a6.366 6.366 0 1 0 4.138 7.95 6.366 6.366 0 0 0-4.139-7.955zm1.415 7.073a2.557 2.557 0 1 0-.007.014zm-.446-.134a3.6 3.6 0 1 0-.007.014zm-.347-.113a2.311 2.311 0 1 0-.007.014zm-1.62-3.664a2.622 2.622 0 1 1-.007.014zm1.62 3.664a2.311 2.311 0 1 0-.007.014zm-1.62-3.664a2.622 2.622 0 1 1-.007.014zm1.62 3.664a2.311 2.311 0 1 0-.007.014z" transform="translate(-79.133 -140.974)" style="fill:#455a64"/>
            <path data-name="Path 68806" d="m172.536 394.386-2.327-.736-.389 1.69 2.065.651z" transform="translate(-80.385 -145.847)" style="fill:#455a64"/>
            <path data-name="Path 68807" d="m166.676 390.714-1.125-2.164-1.471.919 1 1.924z" transform="translate(-78.705 -144.354)" style="fill:#455a64"/>
            <path data-name="Path 68808" d="m165.086 384.136.736-2.327-1.69-.389-.651 2.065z" transform="translate(-78.529 -142.267)" style="fill:#455a64"/>
            <path data-name="Path 68809" d="m168.549 378.276 2.157-1.125-.912-1.471-1.924 1z" transform="translate(-79.814 -140.587)" style="fill:#455a64"/>
            <path data-name="Path 68810" d="m175.18 376.686 2.327.729.389-1.683-2.065-.651z" transform="translate(-81.954 -140.412)" style="fill:#455a64"/>
            <path data-name="Path 68811" d="m181.09 380.149 1.125 2.157 1.471-.912-1-1.924z" transform="translate(-83.684 -141.697)" style="fill:#455a64"/>
            <path data-name="Path 68812" d="m182.786 386.78-.736 2.327 1.69.389.651-2.065z" transform="translate(-83.965 -143.836)" style="fill:#455a64"/>
            <path data-name="Path 68813" d="m179.114 392.69-2.164 1.125.919 1.471 1.924-1z" transform="translate(-82.472 -145.566)" style="fill:#455a64"/>
            <path data-name="Path 68814" d="M334.439 346.949a9.69 9.69 0 1 0-13.551 2.009 9.69 9.69 0 0 0 13.551-2.009zm-4.145-3.077a4.52 4.52 0 1 1 .846-3.359 4.527 4.527 0 0 1-.845 3.36z" transform="translate(-123.458 -127.65)" style="fill:#263238"/>
            <path data-name="Path 68815" d="m323.142 356.381-2.992-2.221-1.4 2.242 2.659 1.973z" transform="translate(-123.98 -134.288)" style="fill:#263238"/>
            <path data-name="Path 68816" d="m316.676 348.375-.545-3.685-2.582.587.488 3.282z" transform="translate(-122.458 -131.516)" style="fill:#263238"/>
            <path data-name="Path 68817" d="m317.435 337.9 2.221-2.992-2.242-1.407-1.973 2.659z" transform="translate(-123.011 -128.24)" style="fill:#263238"/>
            <path data-name="Path 68818" d="m325.584 331.436 3.685-.545-.587-2.582-3.282.488z" transform="translate(-125.926 -126.721)" style="fill:#263238"/>
            <path data-name="Path 68819" d="m335.84 332.185 2.992 2.221 1.4-2.235-2.659-1.98z" transform="translate(-128.982 -127.271)" style="fill:#263238"/>
            <path data-name="Path 68820" d="m342.83 340.344.545 3.685 2.582-.594-.488-3.275z" transform="translate(-131.028 -130.19)" style="fill:#263238"/>
            <path data-name="Path 68821" d="m341.621 350.59-2.221 2.992 2.242 1.407 1.973-2.659z" transform="translate(-130.024 -133.243)" style="fill:#263238"/>
            <path data-name="Path 68822" d="m333.615 357.59-3.685.545.587 2.575 3.282-.481z" transform="translate(-127.252 -135.292)" style="fill:#263238"/>
            <path data-name="Path 68823" d="m325.77 344.365 2.058 2.6 3.275-.488 1.216-3.077-2.058-2.6-3.275.488zm3.9-1.323a.412.412 0 1 0 0 .021z" transform="translate(-126.035 -130.377)" style="fill:#263238"/>
            <path data-name="Path 68824" d="M349.318 85.343a2.624 2.624 0 1 0 1.547 1.294 2.631 2.631 0 0 0-1.547-1.294zm1.415 3.2a2.313 2.313 0 1 1-1.507-2.9 2.313 2.313 0 0 1 1.507 2.9zm-1.415-3.2a2.624 2.624 0 1 0 1.547 1.294 2.631 2.631 0 0 0-1.547-1.294zm1.415 3.2a2.313 2.313 0 1 1-1.507-2.9 2.313 2.313 0 0 1 1.507 2.9zm-1.415-3.2a2.624 2.624 0 1 0 1.547 1.294 2.631 2.631 0 0 0-1.547-1.294zm1.415 3.2a2.313 2.313 0 1 1-1.507-2.9 2.313 2.313 0 0 1 1.507 2.9zm-.538-5.984a5.545 5.545 0 1 0 3.621 6.96 5.545 5.545 0 0 0-3.621-6.96zm1.231 6.2a3.041 3.041 0 1 1-1.98-3.812 3.041 3.041 0 0 1 1.98 3.812zm-.389-.12a2.631 2.631 0 1 0-3.3 1.719 2.631 2.631 0 0 0 3.3-1.719zm-.3-.1a2.313 2.313 0 1 1-1.507-2.9 2.313 2.313 0 0 1 1.507 2.9zm-1.415-3.2a2.624 2.624 0 1 0 1.547 1.294 2.631 2.631 0 0 0-1.547-1.294zm1.415 3.2a2.313 2.313 0 1 1-1.507-2.9 2.313 2.313 0 0 1 1.507 2.9zm-1.415-3.2a2.624 2.624 0 1 0 1.547 1.294 2.631 2.631 0 0 0-1.547-1.294zm1.415 3.2a2.313 2.313 0 1 1-1.507-2.9 2.313 2.313 0 0 1 1.507 2.9z" transform="translate(-131.073 -54.71)" style="fill:#263238"/>
            <path data-name="Path 68825" d="m349.016 97.507-2.03-.637-.347 1.471 1.811.573z" transform="translate(-132.144 -58.974)" style="fill:#263238"/>
            <path data-name="Path 68826" d="m343.893 94.3-.983-1.9-1.28.806.87 1.683z" transform="translate(-130.677 -57.665)" style="fill:#263238"/>
            <path data-name="Path 68827" d="m342.5 88.536.644-2.037-1.478-.339-.566 1.811z" transform="translate(-130.522 -55.839)" style="fill:#263238"/>
            <path data-name="Path 68828" d="m345.534 83.41 1.888-.983-.8-1.287-1.683.877z" transform="translate(-131.646 -54.369)" style="fill:#263238"/>
            <path data-name="Path 68829" d="m351.34 82.017 2.03.637.347-1.471-1.811-.573z" transform="translate(-133.52 -54.214)" style="fill:#263238"/>
            <path data-name="Path 68830" d="m356.51 85.044.983 1.9 1.287-.806-.88-1.688z" transform="translate(-135.033 -55.338)" style="fill:#263238"/>
            <path data-name="Path 68831" d="m357.994 90.85-.644 2.037 1.478.339.566-1.811z" transform="translate(-135.279 -57.211)" style="fill:#263238"/>
            <path data-name="Path 68832" d="m354.778 96.02-1.888.99.8 1.28 1.683-.877z" transform="translate(-133.973 -58.725)" style="fill:#263238"/>
            <path data-name="Path 68833" d="M311.111 228.21a2.631 2.631 0 1 0 1.719 3.3 2.631 2.631 0 0 0-1.719-3.3zm1.415 3.2a.887.887 0 1 0-.007 0zm-1.415-3.2a2.631 2.631 0 1 0 1.719 3.3 2.631 2.631 0 0 0-1.719-3.3zm1.415 3.2a.887.887 0 1 0-.007 0zm-1.415-3.2a2.631 2.631 0 1 0 1.719 3.3 2.631 2.631 0 0 0-1.719-3.3zm1.415 3.2a.887.887 0 1 0-.007 0zm-.53-5.991a4.418 4.418 0 1 0 .014 0zm1.231 6.21a2.422 2.422 0 1 0-.007 0zm-.389-.127a4.026 4.026 0 1 1-.007 0zm-.311-.092a.887.887 0 1 0-.007 0zm-1.415-3.2a2.631 2.631 0 1 0 1.719 3.3 2.631 2.631 0 0 0-1.719-3.3zm1.415 3.2a.887.887 0 1 0-.007 0zm-1.415-3.2a2.631 2.631 0 1 0 1.719 3.3 2.631 2.631 0 0 0-1.719-3.3zm1.415 3.2a.887.887 0 1 0-.007 0z" transform="translate(-119.891 -96.528)" style="fill:#263238"/>
            <path data-name="Path 68834" d="m310.806 240.374-2.037-.644-.34 1.478 1.811.566z" transform="translate(-120.959 -100.792)" style="fill:#263238"/>
            <path data-name="Path 68835" d="m305.68 237.158-.983-1.888-1.287.8.877 1.683z" transform="translate(-119.489 -99.486)" style="fill:#263238"/>
            <path data-name="Path 68836" d="m304.287 231.4.637-2.03-1.471-.339-.573 1.8z" transform="translate(-119.334 -97.66)" style="fill:#263238"/>
            <path data-name="Path 68837" d="m307.314 226.27 1.9-.983L308.4 224l-1.683.877z" transform="translate(-120.458 -96.187)" style="fill:#263238"/>
            <path data-name="Path 68838" d="m313.12 224.88 2.037.644.339-1.478-1.811-.566z" transform="translate(-122.332 -96.035)" style="fill:#263238"/>
            <path data-name="Path 68839" d="m318.29 227.914.983 1.888 1.287-.8-.877-1.683z" transform="translate(-123.845 -97.159)" style="fill:#263238"/>
            <path data-name="Path 68840" d="m319.774 233.72-.644 2.03 1.478.347.573-1.811z" transform="translate(-124.091 -99.033)" style="fill:#263238"/>
            <path data-name="Path 68841" d="m316.566 238.89-1.9.983.806 1.287 1.683-.877z" transform="translate(-122.785 -100.546)" style="fill:#263238"/>
            <path data-name="Path 68842" d="M88.194 112.733a8.339 8.339 0 1 0-10.079 6.132 8.339 8.339 0 0 0 10.079-6.132zm-4.321-1.054a2.753 2.753 0 1 1 .014-.007z" transform="translate(-51.678 -60.599)" style="fill:#263238"/>
            <path data-name="Path 68843" d="m81.65 125.407-3.119-.757-.361 2.25 2.765.672z" transform="translate(-53.557 -67.105)" style="fill:#263238"/>
            <path data-name="Path 68844" d="m73.605 121.057-1.669-2.737-1.846 1.33 1.485 2.44z" transform="translate(-51.192 -65.253)" style="fill:#263238"/>
            <path data-name="Path 68845" d="m70.984 112.58.757-3.112-2.241-.368-.679 2.773z" transform="translate(-50.82 -62.554)" style="fill:#263238"/>
            <path data-name="Path 68846" d="m74.986 104.545 2.737-1.669-1.33-1.846-2.433 1.485z" transform="translate(-52.325 -60.191)" style="fill:#263238"/>
            <path data-name="Path 68847" d="m83.58 101.924 3.119.757.361-2.249-2.773-.672z" transform="translate(-55.141 -59.82)" style="fill:#263238"/>
            <path data-name="Path 68848" d="m91.61 105.923 1.662 2.737 1.853-1.33-1.485-2.44z" transform="translate(-57.491 -61.321)" style="fill:#263238"/>
            <path data-name="Path 68849" d="m94.474 114.52-.764 3.112 2.249.368.679-2.773z" transform="translate(-58.106 -64.14)" style="fill:#263238"/>
            <path data-name="Path 68850" d="m90.124 122.54-2.744 1.669 1.337 1.846 2.433-1.478z" transform="translate(-56.253 -66.488)" style="fill:#263238"/>
            <path data-name="Path 68851" d="m79.864 114.581 2.5 1.365 2.433-1.485-.064-2.829-2.5-1.372-2.433 1.478zm2.652-2.384a.905.905 0 1 1-1.1.665.905.905 0 0 1 1.1-.662z" transform="translate(-54.034 -62.893)" style="fill:#263238"/>
        </g>
        <g>
            <path data-name="Path 68852" d="M359.954 225.852a17.385 17.385 0 0 1-2.971-9.6c0-12.158 13.353-22.018 29.819-22.018s29.8 9.859 29.8 22.018-13.339 22.025-29.8 22.025a35.825 35.825 0 0 1-20.568-6.09L356 234.792z" transform="translate(-134.883 -87.473)" style="fill:#fff"/>
            <path data-name="Path 68853" d="M359.889 225.747a16.975 16.975 0 0 1-.665-18.389 23.341 23.341 0 0 1 6.556-7.115 31.028 31.028 0 0 1 8.65-4.406 40.435 40.435 0 0 1 9.527-1.874 41.3 41.3 0 0 1 9.7.5c.8.163 1.605.269 2.391.481l2.355.637 2.3.806c.764.276 1.492.651 2.242.969a29 29 0 0 1 8.006 5.538 20.455 20.455 0 0 1 5.156 8.261 16.77 16.77 0 0 1 .1 9.732 20.327 20.327 0 0 1-5.029 8.339 28.574 28.574 0 0 1-7.936 5.658 35 35 0 0 1-9.265 2.971 40.876 40.876 0 0 1-9.7.552 38.066 38.066 0 0 1-9.534-1.811 32.011 32.011 0 0 1-8.671-4.329h.127l-10.27 2.5-.156.035.071-.141zm0 0-3.918 8.968-.092-.106 10.248-2.688h.071l.064.042a35.138 35.138 0 0 0 18.05 5.849 40.089 40.089 0 0 0 9.562-.629 34.473 34.473 0 0 0 9.1-2.907 28 28 0 0 0 7.745-5.531 19.563 19.563 0 0 0 4.838-8.07 16.063 16.063 0 0 0-.113-9.329 19.7 19.7 0 0 0-4.951-7.992 28.107 28.107 0 0 0-7.78-5.432 21.459 21.459 0 0 0-2.2-.955l-2.256-.806-2.313-.629c-.771-.205-1.563-.318-2.348-.481a41.608 41.608 0 0 0-9.562-.523 39.5 39.5 0 0 0-9.407 1.8 30.717 30.717 0 0 0-8.565 4.244 23.581 23.581 0 0 0-6.535 6.931 17.173 17.173 0 0 0-2.483 9.159 17.455 17.455 0 0 0 2.845 9.085z" transform="translate(-134.819 -87.367)" style="fill:#263238"/>
            <path data-name="Path 68854" d="M375.1 227.161v1.639h-6.67v-9.61h6.549v1.641H370.3v2.313h4.046v1.514H370.3v2.5z" transform="translate(-138.522 -94.779)" style="fill:#263238"/>
            <path data-name="Path 68855" d="M379.93 228.8v-9.61h4.244a2.744 2.744 0 0 1 1.224.276 3.225 3.225 0 0 1 .969.707A3.472 3.472 0 0 1 387 221.2a3.225 3.225 0 0 1-.241 2.829 2.666 2.666 0 0 1-1.266 1.1l2.193 3.614h-2.122l-1.964-3.223h-1.839v3.225zm1.867-4.859h2.341a1.033 1.033 0 0 0 .481-.12 1.337 1.337 0 0 0 .389-.332 1.717 1.717 0 0 0 .255-.5 1.915 1.915 0 0 0 .092-.608 1.768 1.768 0 0 0-.106-.622 1.634 1.634 0 0 0-.29-.5 1.309 1.309 0 0 0-.417-.325 1.089 1.089 0 0 0-.481-.113H381.8z" transform="translate(-141.888 -94.779)" style="fill:#263238"/>
            <path data-name="Path 68856" d="M392.65 228.8v-9.61h4.244a2.758 2.758 0 0 1 1.231.276 3.289 3.289 0 0 1 .962.707 3.2 3.2 0 0 1 .637 1.026 3.062 3.062 0 0 1 .233 1.16 3.19 3.19 0 0 1-.467 1.7 2.7 2.7 0 0 1-1.266 1.1l2.193 3.614h-2.122l-1.959-3.225H394.5v3.225zm1.874-4.859h2.341a1.033 1.033 0 0 0 .481-.12 1.224 1.224 0 0 0 .382-.332 1.563 1.563 0 0 0 .255-.5 1.924 1.924 0 0 0 .1-.608 1.768 1.768 0 0 0-.106-.622 1.649 1.649 0 0 0-.3-.5 1.308 1.308 0 0 0-.417-.325 1.068 1.068 0 0 0-.481-.113h-2.256z" transform="translate(-145.612 -94.779)" style="fill:#263238"/>
            <path data-name="Path 68857" d="M409.242 228.839a4.35 4.35 0 0 1-1.917-.41 4.633 4.633 0 0 1-1.471-1.1 4.845 4.845 0 0 1-.955-1.563 4.952 4.952 0 0 1-.339-1.8 4.817 4.817 0 0 1 .361-1.839 5.015 5.015 0 0 1 .983-1.556 4.767 4.767 0 0 1 1.5-1.075 4.378 4.378 0 0 1 1.881-.4 4.244 4.244 0 0 1 1.9.424 4.69 4.69 0 0 1 1.464 1.117 5.064 5.064 0 0 1 .948 1.57 4.9 4.9 0 0 1 0 3.621 5.036 5.036 0 0 1-.948 1.542 4.753 4.753 0 0 1-1.492 1.068 4.4 4.4 0 0 1-1.915.401zm-2.787-4.859a4.073 4.073 0 0 0 .184 1.209 3.184 3.184 0 0 0 .552 1.026 2.83 2.83 0 0 0 .877.707 2.6 2.6 0 0 0 1.188.269 2.5 2.5 0 0 0 1.2-.276 2.715 2.715 0 0 0 .884-.743 3.338 3.338 0 0 0 .538-1.033 3.876 3.876 0 0 0 .184-1.174 3.664 3.664 0 0 0-.2-1.2 3.184 3.184 0 0 0-.552-1.026 2.645 2.645 0 0 0-.884-.707 2.744 2.744 0 0 0-2.369 0 2.638 2.638 0 0 0-.884.707 3.21 3.21 0 0 0-.53 1.026 3.658 3.658 0 0 0-.184 1.217z" transform="translate(-149.098 -94.753)" style="fill:#263238"/>
            <path data-name="Path 68858" d="M419.85 228.8v-9.61h4.244a2.744 2.744 0 0 1 1.224.276 3.226 3.226 0 0 1 .969.707 3.474 3.474 0 0 1 .637 1.026 3.225 3.225 0 0 1-.24 2.829 2.667 2.667 0 0 1-1.266 1.1l2.193 3.614h-2.122l-1.966-3.225h-1.839v3.225zm1.867-4.859h2.341a1.033 1.033 0 0 0 .481-.12 1.336 1.336 0 0 0 .389-.332 1.718 1.718 0 0 0 .255-.5 1.917 1.917 0 0 0 .092-.608 1.769 1.769 0 0 0-.106-.622 1.634 1.634 0 0 0-.29-.5 1.308 1.308 0 0 0-.417-.325 1.089 1.089 0 0 0-.481-.113h-2.263z" transform="translate(-153.574 -94.779)" style="fill:#263238"/>
        </g>
    </g>
</svg>
