<svg xmlns="http://www.w3.org/2000/svg" width="438" height="40" viewBox="0 0 438 40">
    <g data-name="Group 60402" transform="translate(-393 -83)">
        <rect data-name="Rectangle 8372" width="438" height="40" rx="4" transform="translate(393 83)" style="fill:rgba(255,193,25,.07)"/>
        <path data-name="Path 67797" d="M212.868 428.222v1.208a1.6 1.6 0 0 0 1.6 1.6 1.6 1.6 0 0 0 1.6-1.6v-1.208z" transform="translate(201.764 -318.297)" style="fill:#c7cfe2"/>
        <path data-name="Path 67798" d="M214.084 429.43v-1.208h-1.215v1.208a1.6 1.6 0 0 0 2.211 1.485 1.6 1.6 0 0 1-.996-1.485z" transform="translate(201.763 -318.297)" style="opacity:.1"/>
        <path data-name="Path 67799" d="M126.428 85.6a5.045 5.045 0 0 0-5.077 5.007 4.985 4.985 0 0 0 .959 2.946 9.15 9.15 0 0 1 1.565 3.344.854.854 0 0 0 .845.735H128a.854.854 0 0 0 .845-.735 9.151 9.151 0 0 1 1.565-3.344 5.007 5.007 0 0 0-3.98-7.953z" transform="translate(289.878 11.588)" style="fill:#ffd782"/>
        <path data-name="Path 67800" d="M125.495 96.891a9.151 9.151 0 0 0-1.565-3.344 4.984 4.984 0 0 1-.959-2.946 5.053 5.053 0 0 1 4.205-4.941 5.012 5.012 0 0 0-5.825 4.941 4.985 4.985 0 0 0 .959 2.946 9.151 9.151 0 0 1 1.565 3.344.854.854 0 0 0 .845.735h1.62a.854.854 0 0 1-.845-.735z" transform="translate(289.878 11.59)" style="opacity:.1"/>
        <path data-name="Path 67801" d="m181.356 409.867-2.262-.709-2.262.709a.709.709 0 0 0 0 1.418h4.523a.709.709 0 0 0 0-1.418z" transform="translate(237.142 -299.942)" style="fill:#b4bbcc"/>
        <path data-name="Path 67802" d="M177.743 410.578a.709.709 0 0 1 .709-.709l1.452-.455-.81-.254-2.262.709a.709.709 0 1 0 0 1.418h1.62a.709.709 0 0 1-.709-.709z" transform="translate(237.143 -299.944)" style="opacity:.1"/>
        <path data-name="Path 67803" d="M181.356 390.093h-4.523a.709.709 0 0 0-.709.709.709.709 0 0 0 .709.709h4.523a.709.709 0 0 0 .709-.709.709.709 0 0 0-.709-.709z" transform="translate(237.142 -281.586)" style="fill:#c7cfe2"/>
        <path data-name="Path 67804" d="M177.743 390.8a.709.709 0 0 1 .709-.709h-1.62a.709.709 0 1 0 0 1.418h1.62a.709.709 0 0 1-.709-.709z" transform="translate(237.143 -281.587)" style="opacity:.1"/>
        <path data-name="Path 67805" d="M415.932 94.3v1.654a.303.303 0 0 0 .607 0V94.3a.303.303 0 0 0-.607 0z"/>
        <path data-name="Path 67806" d="m411.453 95.599.79 1.449a.304.304 0 1 0 .533-.291l-.79-1.449a.304.304 0 1 0-.533.291z"/>
        <path data-name="Path 67807" d="m408.139 98.88 1.387.9a.303.303 0 0 0 .329-.51l-1.387-.9a.303.303 0 1 0-.329.51z"/>
        <path data-name="Path 67808" d="M420.898 95.187a.3.3 0 0 0-.412.121l-.789 1.449a.304.304 0 1 0 .533.291l.789-1.449a.3.3 0 0 0-.121-.412z"/>
        <path data-name="Path 67809" d="m424.004 98.369-1.387.9a.303.303 0 1 0 .329.51l1.387-.9a.303.303 0 0 0-.329-.51z"/>
        <path data-name="Path 67810" d="M419.693 106.128a.3.3 0 0 0 .416-.106c.122-.205.254-.426.4-.666l.03-.05a5.311 5.311 0 0 0-4.229-8.425 5.33 5.33 0 0 0-3.91 1.661.304.304 0 1 0 .44.419 4.7 4.7 0 0 1 7.2 6l-.015.023-.037.062c-.145.241-.278.463-.4.669a.3.3 0 0 0 .105.413z"/>
        <path data-name="Path 67811" d="M419.394 106.654a.3.3 0 0 0-.409.131 5.3 5.3 0 0 0-.526 1.423h-4.445a10.17 10.17 0 0 0-1.512-3.132l-.054-.09-.015-.023a4.666 4.666 0 0 1-.274-5.089.303.303 0 1 0-.526-.3 5.273 5.273 0 0 0 .3 5.74l.047.079a9.448 9.448 0 0 1 1.445 2.982 4.219 4.219 0 0 1-.464 2.269 1.014 1.014 0 0 0 1.013 1.013h.425a1.907 1.907 0 0 0 3.674 0h.425a2.133 2.133 0 0 0 .548-3.281 4.6 4.6 0 0 1 .479-1.308.3.3 0 0 0-.131-.414zm-3.156 5.78a1.3 1.3 0 0 1-1.194-.787h2.389a1.3 1.3 0 0 1-1.195.787zm1.417-2.2h.844a.406.406 0 0 1 0 .811h-4.523a.406.406 0 0 1 0-.811h2.478a.303.303 0 1 0 0-.607h-2.478a.401.401 0 0 1-.069-.8h.015a.419.419 0 0 1 .054 0h4.523a.411.411 0 0 1 .054 0h.015a.4.4 0 0 1 .047.011.405.405 0 0 1-.116.793h-.844a.303.303 0 1 0 0 .607z"/>
        <text data-name="Button click will only work if video is rendered in URL format here" transform="translate(435 108)" style="fill:#262626;font-size:12px;font-family:OpenSans-Semibold,Open Sans;font-weight:600"><tspan x="0" y="0">Button click will only work if video is rendered in URL format here</tspan></text>
    </g>
</svg>
