<svg xmlns="http://www.w3.org/2000/svg" width="14.228" height="15.416" viewBox="0 0 14.228 15.416">
    <g data-name="Group 60173">
        <path d="M12.629 5.18a.579.579 0 0 1 .53.623c0 .052-.422 5.225-.663 7.4a2.294 2.294 0 0 1-2.382 2.191 154.126 154.126 0 0 1-6.058-.004 2.287 2.287 0 0 1-2.325-2.19c-.243-2.189-.658-7.349-.662-7.4a.577.577 0 0 1 .531-.62.594.594 0 0 1 .623.53c0 .033.172 2.141.357 4.225l.037.416c.093 1.036.188 2.032.264 2.725a1.135 1.135 0 0 0 1.2 1.152c1.927.041 3.893.043 6.013 0a1.153 1.153 0 0 0 1.253-1.162c.239-2.154.655-7.309.66-7.361a.591.591 0 0 1 .622-.525zM8.745 0a1.567 1.567 0 0 1 1.512 1.161l.2.972a.693.693 0 0 0 .667.556h2.53a.578.578 0 1 1 0 1.156H.578a.578.578 0 1 1 0-1.156H3.185a.7.7 0 0 0 .59-.551l.187-.938A1.575 1.575 0 0 1 5.482 0zm0 1.156H5.482a.408.408 0 0 0-.395.3l-.18.9a1.835 1.835 0 0 1-.1.329h4.611a1.839 1.839 0 0 1-.1-.329l-.187-.937a.4.4 0 0 0-.386-.262z" style="fill:#fff;fill-rule:evenodd" data-name="Iconly/Light-Outline/Delete"/>
    </g>
</svg>
