<svg xmlns="http://www.w3.org/2000/svg" width="34" height="37.4" viewBox="0 0 34 37.4">
    <g data-name="Group 60299">
        <g data-name="Group 60300">
            <text transform="translate(0 33.4)" style="fill:#fff;font-size:12px;font-family:OpenSans-Light,Open Sans;font-weight:300"><tspan x="0" y="0">Media</tspan></text>
            <g transform="translate(7 -2.6)">
                <path data-name="Path 67794" d="M17.809 11.761c0 2.981 0 4.472-.926 5.4s-2.417.926-5.4.926H8.324c-2.981 0-4.472 0-5.4-.926S2 14.742 2 11.761s0-4.472.926-5.4 2.417-.926 5.4-.926h3.162c2.981 0 4.472 0 5.4.926a3.465 3.465 0 0 1 .851 2.285" transform="translate(0 -.511)" style="stroke-linecap:round;fill:none;stroke:#fff;stroke-width:.8px"/>
                <path data-name="Path 67795" d="M3.988 5.371a2.586 2.586 0 0 1 .662-1.63C5.393 3 6.59 3 8.983 3h2.538c2.393 0 3.59 0 4.333.741a2.586 2.586 0 0 1 .662 1.631" transform="translate(-.416)" style="fill:none;stroke:#fff;stroke-width:.8px"/>
                <circle data-name="Ellipse 1201" cx="1.186" cy="1.186" r="1.186" transform="translate(13.067 7.298)" style="fill:none;stroke:#fff;stroke-width:.8px"/>
                <path data-name="Path 67796" d="m2 13.5 1.385-1.211a1.818 1.818 0 0 1 2.483.083l3.391 3.391a1.581 1.581 0 0 0 2.027.176l.236-.166a2.371 2.371 0 0 1 2.95.178l2.548 2.293" transform="translate(0 -1.851)" style="stroke-linecap:round;fill:none;stroke:#fff;stroke-width:.8px"/>
            </g>
        </g>
    </g>
</svg>
