<svg id="fchat" xmlns="http://www.w3.org/2000/svg" width="70.1" height="70" viewBox="0 0 70.1 70">
  <g id="Layer_2_00000108988596637620857830000004305092749327862197_">
    <g id="Layer_1-2">
      <path id="Path_18394" data-name="Path 18394" d="M35,0H61.3a8.813,8.813,0,0,1,8.8,8.8V35a35.038,35.038,0,0,1-35,35h0A34.975,34.975,0,0,1,0,35.1V35H0A35.038,35.038,0,0,1,35,0Z" fill="#20a849"/>
      <path id="Path_18395" data-name="Path 18395" d="M45.8,20.8H28.3a8.813,8.813,0,0,0-8.8,8.8h0V44.5a1.9,1.9,0,0,0,1.9,1.9H45.7a8.813,8.813,0,0,0,8.8-8.8V29.5A8.706,8.706,0,0,0,45.8,20.8ZM39.5,39.5H26.8a1.7,1.7,0,1,1-.2-3.4h13a1.831,1.831,0,0,1,1.6,1.8A2.012,2.012,0,0,1,39.5,39.5Zm7.7-8.3H26.8a1.7,1.7,0,1,1-.2-3.4H47.3a1.831,1.831,0,0,1,1.6,1.8A2.021,2.021,0,0,1,47.2,31.2Z" fill="#fff"/>
    </g>
  </g>
</svg>
