<svg xmlns="http://www.w3.org/2000/svg" xmlns:xlink="http://www.w3.org/1999/xlink" width="181" height="27.863" viewBox="0 0 181 27.863">
  <defs>
    <linearGradient id="linear-gradient" x1="0.94" y1="-0.669" x2="0.142" y2="1.38" gradientUnits="objectBoundingBox">
      <stop offset="0.335" stop-color="#8cba6b"/>
      <stop offset="0.559" stop-color="#89b768"/>
      <stop offset="0.682" stop-color="#7fae61"/>
      <stop offset="0.78" stop-color="#71a256"/>
      <stop offset="0.866" stop-color="#5f9249"/>
      <stop offset="0.943" stop-color="#49813a"/>
      <stop offset="1" stop-color="#347230"/>
    </linearGradient>
    <radialGradient id="radial-gradient" cx="2.409" cy="-0.62" fx="3.874988079071045" fy="-2.179426670074463" r="1.826" gradientTransform="translate(-0.271) scale(1.542 1)" gradientUnits="objectBoundingBox">
      <stop offset="0.689" stop-color="#8cba6b"/>
      <stop offset="0.801" stop-color="#64964c"/>
      <stop offset="0.932" stop-color="#417b36"/>
      <stop offset="1" stop-color="#347230"/>
    </radialGradient>
    <radialGradient id="radial-gradient-2" cx="0.537" cy="-0.08" fx="2.3992682671546937" fy="-0.07998869568109512" r="1.882" gradientTransform="translate(-0.068) scale(1.137 1)" gradientUnits="objectBoundingBox">
      <stop offset="0" stop-color="#8cba6b"/>
      <stop offset="0.403" stop-color="#89b869"/>
      <stop offset="0.578" stop-color="#81b062"/>
      <stop offset="0.708" stop-color="#74a458"/>
      <stop offset="0.816" stop-color="#63954b"/>
      <stop offset="0.91" stop-color="#4f853d"/>
      <stop offset="0.993" stop-color="#367431"/>
      <stop offset="1" stop-color="#347230"/>
    </radialGradient>
    <radialGradient id="radial-gradient-3" cx="0.463" cy="-0.08" fx="2.3254546189308165" fy="-0.07982458174228668" r="1.881" gradientTransform="matrix(-1.137, 0, 0, 1, -2.188, 0)" gradientUnits="objectBoundingBox">
      <stop offset="0" stop-color="#8cba6b"/>
      <stop offset="0.014" stop-color="#88b668"/>
      <stop offset="0.193" stop-color="#67994e"/>
      <stop offset="0.378" stop-color="#50863e"/>
      <stop offset="0.569" stop-color="#407b35"/>
      <stop offset="0.771" stop-color="#377431"/>
      <stop offset="1" stop-color="#347230"/>
    </radialGradient>
  </defs>
  <g id="Group_3072" data-name="Group 3072" transform="translate(-766 -150)">
    <g id="Surbo_Logo" data-name="Surbo Logo" transform="translate(766 150)">
      <g id="Group_1186" data-name="Group 1186" transform="translate(0)">
        <path id="Path_1625" data-name="Path 1625" d="M464.36,349.266V322.395h.592c3.307,0,6.613-.016,9.922.007a9.144,9.144,0,0,1,5.663,1.686,7.6,7.6,0,0,1,3.1,7.614,7.081,7.081,0,0,1-1.53,3.467,27.569,27.569,0,0,1,1.693,2.239,7.287,7.287,0,0,1,.828,4.3,7.043,7.043,0,0,1-2.176,4.884,9.819,9.819,0,0,1-1.52,1.292,8.44,8.44,0,0,1-4.545,1.4q-5.822.013-11.646.016C464.627,349.3,464.511,349.278,464.36,349.266ZM471.3,338.9v3.765c1.587,0,3.142-.023,4.7.007a1.882,1.882,0,0,0,1.723-2.419,1.687,1.687,0,0,0-1.49-1.344C474.6,338.878,472.972,338.9,471.3,338.9Zm-.012-6.459c1.407,0,2.768.021,4.13-.017a1.541,1.541,0,0,0,.828-.363,1.733,1.733,0,0,0,.493-1.893,1.555,1.555,0,0,0-1.488-1.143c-.693-.042-1.388-.019-2.082-.021-.617,0-1.233,0-1.881,0Z" transform="translate(-392.225 -321.903)" fill="#434444"/>
        <path id="Path_1626" data-name="Path 1626" d="M604.707,347.443a13.768,13.768,0,0,1-13.887-14.189,13.9,13.9,0,1,1,27.8.563A13.716,13.716,0,0,1,604.707,347.443Zm7-14.14a6.327,6.327,0,0,0-1.216-3.97,7.07,7.07,0,0,0-12.414,1.8,7.808,7.808,0,0,0-.344,2.833,6.756,6.756,0,0,0,3.43,5.782,7.016,7.016,0,0,0,4,.886,6.4,6.4,0,0,0,3.135-.887A6.849,6.849,0,0,0,611.709,333.3Z" transform="translate(-496.721 -319.589)" fill="#434444"/>
        <path id="Path_1627" data-name="Path 1627" d="M327.312,322.431c.221-.014.406-.036.592-.036,3.355,0,6.711-.012,10.064,0a9.223,9.223,0,0,1,7.946,4.09,8.974,8.974,0,0,1-.424,10.743,11.325,11.325,0,0,1-2.372,2.1c1.94,3.3,3.863,6.572,5.789,9.851a71.428,71.428,0,0,1-7.633.068q-2.472-4.257-4.974-8.562h-2.088v8.578h-6.9C327.312,340.316,327.312,331.391,327.312,322.431Zm6.933,6.57v5.332c1.28,0,2.52-.028,3.76.009a2.286,2.286,0,0,0,2.067-1.063,2.709,2.709,0,0,0,.2-2.855,2.315,2.315,0,0,0-2.155-1.415C336.852,328.982,335.584,329,334.245,329Z" transform="translate(-278.977 -321.903)" fill="#434444"/>
        <path id="Path_1628" data-name="Path 1628" d="M69.974,326.735l-6.082,2.881a7.11,7.11,0,0,1-.412-.775,3.486,3.486,0,0,0-3.392-2.306,6.47,6.47,0,0,0-1.848.151,1.3,1.3,0,0,0-.924,1.936,2.088,2.088,0,0,0,.87.719c1.03.438,2.079.832,3.138,1.193a25.556,25.556,0,0,1,4.781,1.891,7.1,7.1,0,0,1,3.729,5.087,7.628,7.628,0,0,1-.016,2.989,10.174,10.174,0,0,1-.4,1.725,7.947,7.947,0,0,1-2.815,3.451,10.917,10.917,0,0,1-6.433,1.895,13.279,13.279,0,0,1-4.861-.731,9.92,9.92,0,0,1-6.261-6.6,2.166,2.166,0,0,1-.038-.29c1.93-1.129,3.882-2.27,5.886-3.44.182.464.337.884.512,1.3a4.376,4.376,0,0,0,2.192,2.456,6.038,6.038,0,0,0,4.406.208,1.31,1.31,0,0,0,1.021-1.313,1.082,1.082,0,0,0-.57-1.08,17.152,17.152,0,0,0-2.013-.914c-1.461-.514-2.956-.931-4.408-1.462a10.417,10.417,0,0,1-3.932-2.437,6.618,6.618,0,0,1-1.787-3.748,8.692,8.692,0,0,1,.377-4.309,7.946,7.946,0,0,1,4.663-4.7,11.846,11.846,0,0,1,11.277,1.561A12,12,0,0,1,69.974,326.735Z" transform="translate(-49.01 -319.709)" fill="#434444"/>
      </g>
      <g id="Group_1202" data-name="Group 1202" transform="translate(22.619 0.568)">
        <g id="Group_1187" data-name="Group 1187" transform="translate(0 10.009)">
          <path id="Path_1629" data-name="Path 1629" d="M192.378,397.455a10.441,10.441,0,0,1-7.364-1.539,12.4,12.4,0,0,1-5.591-9.043,32.315,32.315,0,0,1-.174-4.573,1.791,1.791,0,0,1,1.811-1.794c.9-.017,1.8-.012,2.694,0a1.86,1.86,0,0,1,1.949,1.9,39.631,39.631,0,0,0,.281,4.121,7.466,7.466,0,0,0,.952,2.416A4.176,4.176,0,0,0,190.422,391c.457.043.92.017,1.381.024a.7.7,0,0,0,.179.113,3.2,3.2,0,0,1,1.77,5.188A7.74,7.74,0,0,1,192.378,397.455Z" transform="translate(-179.25 -380.495)" fill="url(#linear-gradient)"/>
          <path id="Path_1630" data-name="Path 1630" d="M252.113,397.464a7.87,7.87,0,0,0,1.376-1.124,3.2,3.2,0,0,0-1.77-5.188.79.79,0,0,1-.179-.113c2.782-.674,4.338-2.706,4.491-5.9.042-.872.014-1.747.024-2.621a1.884,1.884,0,0,1,2-2.006c.825-.007,1.65-.009,2.475,0a1.846,1.846,0,0,1,1.959,1.817,15.889,15.889,0,0,1-2.164,9.955A10.687,10.687,0,0,1,252.113,397.464Z" transform="translate(-238.985 -380.504)" fill="url(#radial-gradient)"/>
        </g>
        <path id="Path_1631" data-name="Path 1631" d="M184.369,328.015h1.322a3.019,3.019,0,0,0,.092-.724v-1.16a3.27,3.27,0,0,0-3.27-3.27H179.26v4.366a3.049,3.049,0,0,0,3.05,3.05h.486a2.982,2.982,0,0,0,2.567-1.466A1.152,1.152,0,0,1,184.369,328.015Z" transform="translate(-179.258 -322.86)" fill="url(#radial-gradient-2)"/>
        <path id="Path_1632" data-name="Path 1632" d="M278.984,328.225h-1.322a3.021,3.021,0,0,1-.092-.724v-1.16a3.27,3.27,0,0,1,3.27-3.27h.24a3.014,3.014,0,0,1,3.013,3.013v1.355a3.049,3.049,0,0,1-3.05,3.05h-.486a2.982,2.982,0,0,1-2.567-1.466A1.156,1.156,0,0,0,278.984,328.225Z" transform="translate(-260.494 -323.035)" fill="url(#radial-gradient-3)"/>
      </g>
    </g>
    <g id="Group_3071" data-name="Group 3071">
      <g id="Path_1633" data-name="Path 1633" transform="translate(891 156.68)" fill="#569150" stroke-linecap="round">
        <path d="M 0.5 20.13805389404297 L 0.5 17.25000381469727 L 0.5 -2.749996900558472 C 0.5 -3.163547039031982 0.8364499807357788 -3.499996900558472 1.25 -3.499996900558472 L 54.75 -3.499996900558472 C 55.16355133056641 -3.499996900558472 55.5 -3.163547039031982 55.5 -2.749996900558472 L 55.5 16.00000381469727 C 55.5 16.41355323791504 55.16355133056641 16.75000381469727 54.75 16.75000381469727 L 6.621099948883057 16.75000381469727 L 6.489480018615723 16.75000381469727 L 6.374919891357422 16.8148021697998 L 0.5 20.13805389404297 Z" stroke="none"/>
        <path d="M 1.25 -2.999996185302734 C 1.112148284912109 -2.999996185302734 1 -2.887847900390625 1 -2.749996185302734 L 1 19.28076934814453 L 6.35784912109375 16.24999237060547 L 54.75 16.24999237060547 C 54.88785171508789 16.24999237060547 55 16.13784217834473 55 15.99999332427979 L 55 -2.749996185302734 C 55 -2.887847900390625 54.88785171508789 -2.999996185302734 54.75 -2.999996185302734 L 1.25 -2.999996185302734 M 1.25 -3.999996185302734 L 54.75 -3.999996185302734 C 55.44036102294922 -3.999996185302734 56 -3.440357208251953 56 -2.749996185302734 L 56 15.99999332427979 C 56 16.69035339355469 55.44036102294922 17.24999237060547 54.75 17.24999237060547 L 6.621089935302734 17.24999237060547 L 0 20.99534225463867 C 0 20.99534225463867 0 17.94035339355469 0 17.24999237060547 L 0 -2.749996185302734 C 0 -3.440357208251953 0.5596389770507812 -3.999996185302734 1.25 -3.999996185302734 Z" stroke="none" fill="#569150"/>
      </g>
      <path id="Path_4106" data-name="Path 4106" d="M.324-4.332a4.3,4.3,0,0,1,.288-1.53,4.172,4.172,0,0,1,.84-1.362A4.267,4.267,0,0,1,2.8-8.2a4.185,4.185,0,0,1,1.8-.372,4.05,4.05,0,0,1,2.082.516A3.338,3.338,0,0,1,7.992-6.708L6.48-5.652a1.756,1.756,0,0,0-.366-.558,1.989,1.989,0,0,0-.486-.36,1.985,1.985,0,0,0-.54-.192,2.809,2.809,0,0,0-.54-.054,2.032,2.032,0,0,0-.984.228,2.166,2.166,0,0,0-.7.588,2.444,2.444,0,0,0-.408.816,3.307,3.307,0,0,0-.132.924,3.053,3.053,0,0,0,.156.972,2.59,2.59,0,0,0,.45.828,2.174,2.174,0,0,0,.708.57,2.026,2.026,0,0,0,.93.21,2.393,2.393,0,0,0,.546-.066,2.206,2.206,0,0,0,.54-.2,1.93,1.93,0,0,0,.474-.36,1.682,1.682,0,0,0,.348-.546l1.608.948a2.5,2.5,0,0,1-.57.84,3.516,3.516,0,0,1-.87.624A4.657,4.657,0,0,1,5.6-.06a4.635,4.635,0,0,1-1.08.132,3.817,3.817,0,0,1-1.7-.378,4.3,4.3,0,0,1-1.332-1A4.584,4.584,0,0,1,.63-2.724,4.429,4.429,0,0,1,.324-4.332ZM17.6-8.52V0H15.636V-3.492h-3.4V0H10.272V-8.52H12.24v3.3h3.4v-3.3Zm5.148,0h1.776L27.636,0H25.62l-.66-1.908H22.308L21.66,0H19.644Zm1.884,5.256-1-3.012L22.62-3.264ZM35.328-6.792H32.736V0H30.768V-6.792h-2.6V-8.52h7.164Z" transform="translate(899.995 167.232)" fill="#fff"/>
    </g>
  </g>
</svg>
