<svg xmlns="http://www.w3.org/2000/svg" width="40" height="49" viewBox="0 0 40 49">
    <path data-name="Path 60427" d="M39.671 29.454a11.093 11.093 0 0 0-5.32 9.336 10.8 10.8 0 0 0 6.592 9.91 25.774 25.774 0 0 1-3.376 6.954c-2.1 3.017-4.3 6.034-7.643 6.034s-4.2-1.937-8.058-1.937c-3.758 0-5.1 2-8.152 2s-5.191-2.795-7.643-6.224A30.023 30.023 0 0 1 .943 39.3c0-9.527 6.21-14.576 12.325-14.576 3.249 0 5.955 2.128 7.993 2.128 1.943 0 4.968-2.255 8.663-2.255a11.6 11.6 0 0 1 9.747 4.857zm-18.153-5.4a3.68 3.68 0 0 1-.669-.063 4.357 4.357 0 0 1-.1-.889 10.63 10.63 0 0 1 2.707-6.637 11.014 11.014 0 0 1 7.23-3.715 4.689 4.689 0 0 1 .1.984 10.931 10.931 0 0 1-2.612 6.828 9.547 9.547 0 0 1-6.656 3.493z" transform="translate(-.944 -12.75)" style="fill:#666"/>
</svg>
