<svg xmlns="http://www.w3.org/2000/svg" width="24" height="23.971" viewBox="0 0 24 23.971">
    <g data-name="Group 59610">
        <g data-name="Group 59607">
            <g data-name="Group 59606">
                <path data-name="Path 67161" d="M19.508 9.2A17.831 17.831 0 0 0 4.55 9.085a7.884 7.884 0 0 0-.6 3.032 8.415 8.415 0 0 0 .238 1.963 5.315 5.315 0 0 1 4.43 1.9 6.757 6.757 0 0 1 1.223 3.9 8.537 8.537 0 0 0 2.137.3 8.117 8.117 0 0 0 2.083-.267 6.672 6.672 0 0 1 1.221-3.894 5.4 5.4 0 0 1 4.49-1.9 8.491 8.491 0 0 0 .236-1.964 7.212 7.212 0 0 0-.5-2.955zm-7.492 4.223A1.427 1.427 0 1 1 13.442 12a1.445 1.445 0 0 1-1.426 1.427z" style="fill:#4d89f4" transform="translate(0 -.015)"/>
            </g>
        </g>
        <g data-name="Group 59609">
            <g data-name="Group 59608">
                <path data-name="Path 67162" d="M12.016.015A11.986 11.986 0 1 0 24 12 12.012 12.012 0 0 0 12.016.015zm0 21.143A9.16 9.16 0 1 1 21.174 12a9.164 9.164 0 0 1-9.158 9.158z" style="fill:#4d89f4" transform="translate(0 -.015)"/>
            </g>
        </g>
    </g>
</svg>
