<svg xmlns="http://www.w3.org/2000/svg" width="17.475" height="17.475" viewBox="0 0 17.475 17.475">
    <g data-name="Group 59605">
        <g data-name="Group 59602">
            <path data-name="Path 67158" d="M3.386 18.008a.9.9 0 0 0 1.249-.163L16.784 4.108a.9.9 0 0 0 .009-1.261L14.6.907a.9.9 0 0 0-1.249.164L1.2 14.807a.9.9 0 0 0-.01 1.26z" transform="translate(-.255 -.72)" style="fill:#4d89f4"/>
        </g>
        <g data-name="Group 59603">
            <path data-name="Path 67159" d="M3.05.72A3.05 3.05 0 1 1 0 3.768 3.049 3.049 0 0 1 3.05.72z" transform="translate(0 -.72)" style="fill:#4d89f4"/>
        </g>
        <g data-name="Group 59604">
            <path data-name="Path 67160" d="M18.674 16.343a3.05 3.05 0 1 1-3.048 3.052 3.05 3.05 0 0 1 3.048-3.052z" transform="translate(-4.248 -4.968)" style="fill:#4d89f4"/>
        </g>
    </g>
</svg>
