<svg xmlns="http://www.w3.org/2000/svg" width="18.3" height="21.435" viewBox="0 0 18.3 21.435">
    <path data-name="Path 60378" d="M236.142 155.043h-6.405l-.737 1.878a.771.771 0 0 1-1.009.441.8.8 0 0 1-.433-1.029l4.321-11.013a2.775 2.775 0 0 1-1.658-2.552 2.719 2.719 0 1 1 5.438 0A2.775 2.775 0 0 1 234 145.32l4.321 11.013a.8.8 0 0 1-.433 1.029.771.771 0 0 1-1.009-.441zm-.621-1.584h-5.163l2.581-6.578zm-2.581-11.879a1.188 1.188 0 1 0 1.165 1.188 1.177 1.177 0 0 0-1.166-1.188z" transform="translate(-223.789 -136.136)" style="fill:#4d89f4;stroke:#fff;stroke-width:.3px;fill-rule:evenodd"/>
    <path data-name="Path 60379" d="M415.81 104.672a4.357 4.357 0 0 0 0 6.159.792.792 0 0 1-1.121 1.121 5.943 5.943 0 0 1 0-8.4.792.792 0 0 1 1.121 1.121z" transform="translate(-409.678 -100.871)" style="fill:#4d89f4;stroke:#fff;stroke-width:.3px;fill-rule:evenodd"/>
    <path data-name="Path 60380" d="M219.04 110.835a4.358 4.358 0 0 0 0-6.161.791.791 0 0 1 1.119-1.119 5.943 5.943 0 0 1 0 8.4.791.791 0 0 1-1.119-1.119z" transform="translate(-206.871 -100.875)" style="fill:#4d89f4;stroke:#fff;stroke-width:.3px;fill-rule:evenodd"/>
    <path data-name="Path 60381" d="M466.233 55.17a7.527 7.527 0 0 0 0 10.64.792.792 0 1 1-1.12 1.12 9.113 9.113 0 0 1 0-12.88.792.792 0 1 1 1.12 1.12z" transform="translate(-462.297 -53.611)" style="fill:#4d89f4;stroke:#fff;stroke-width:.3px;fill-rule:evenodd"/>
    <path data-name="Path 60382" d="M149.027 65.807a7.527 7.527 0 0 0 0-10.64.792.792 0 0 1 1.12-1.12 9.113 9.113 0 0 1 0 12.88.792.792 0 0 1-1.12-1.12z" transform="translate(-134.663 -53.607)" style="fill:#4d89f4;stroke:#fff;stroke-width:.3px;fill-rule:evenodd"/>
</svg>
