<svg xmlns="http://www.w3.org/2000/svg" width="20.822" height="24.001" viewBox="0 0 20.822 24.001">
    <g data-name="Group 59615">
        <g data-name="Group 59614">
            <g data-name="Group 59612">
                <path data-name="Path 67174" d="M9.345 8.606a1.956 1.956 0 1 1-1.956 1.956 1.962 1.962 0 0 1 1.956-1.956z" style="fill:#4d89f4" transform="translate(-1.589)"/>
            </g>
            <g data-name="Group 59613">
                <path data-name="Path 67175" d="M22.37 13.536a1.138 1.138 0 0 1-.236.428 1.74 1.74 0 0 1-.664.432l-.861.273.314.822c.078.2.039.234 0 .271l-.156.277.077.391a.556.556 0 0 1-.235.586l-.389.353.117.508a1.974 1.974 0 0 1-.667 2.034 6.186 6.186 0 0 1-.7.392 1.352 1.352 0 0 0-.352.155 15.916 15.916 0 0 1-2.975.55l-.234.036a3.937 3.937 0 0 0-2.894 2.428.893.893 0 0 1-1.215.428c-1.565-.822-4.929-2.582-6.3-3.324a.891.891 0 0 1-.469-.938 4.291 4.291 0 0 0 .078-1.213 7.439 7.439 0 0 0-.743-2.543c-.2-.429-.43-.86-.626-1.291l-.039-.04-.039-.077c-.235-.51-.509-1.017-.744-1.525a8.482 8.482 0 0 1-.665-5.359 9.2 9.2 0 0 1 6.22-7c-.038.47-.077 1.017-.118 1.447a1.145 1.145 0 0 1-.037.352c-.04.665-.04 1.33-.118 2a17.06 17.06 0 0 1-1.1 4.146c-.625 1.525-.43 3.6 1.057 4.539a2.9 2.9 0 0 0 1.642.469 2.515 2.515 0 0 0 1.213-.275 9.44 9.44 0 0 0 4.772 2.427 1.215 1.215 0 0 0 1.174.977h.976a1.235 1.235 0 0 0 .9-.351 1.318 1.318 0 0 0 .353-.86 1.441 1.441 0 0 0-.078-.432 1.28 1.28 0 0 0-1.129-.829h-.98a1.389 1.389 0 0 0-1.016.469 8.166 8.166 0 0 1-4.108-2.033 3.05 3.05 0 0 0 .9-2v-.117a7.62 7.62 0 0 0-.077-.939 4.589 4.589 0 0 0-.664-1.563 7.855 7.855 0 0 1-1.056-4.578c0-.509 0-1.175.038-1.839V.079A4.116 4.116 0 0 1 11.336 0a11.481 11.481 0 0 1 2.778.353 7.649 7.649 0 0 1 4.461 2.7 7.137 7.137 0 0 1 1.681 4.694c0 .234-.037.509-.037.743l-.042.157.042.236a1.481 1.481 0 0 0 .233.509.119.119 0 0 1 .038.077l.626 1.133q.588 1.055 1.174 2.114a1.171 1.171 0 0 1 .08.82z" style="fill:#4d89f4" transform="translate(-1.589)"/>
            </g>
        </g>
    </g>
</svg>
