<svg xmlns="http://www.w3.org/2000/svg" width="24" height="18.756" viewBox="0 0 24 18.756">
    <g data-name="Group 59601">
        <g data-name="Group 59597" transform="translate(0 -2.622)">
            <ellipse data-name="Ellipse 359" cx="2.074" cy="2.03" rx="2.074" ry="2.03" transform="translate(9.293 17.318)" style="fill:#4d89f4"/>
        </g>
        <g data-name="Group 59598" transform="translate(0 -2.622)">
            <ellipse data-name="Ellipse 360" cx="2.079" cy="2.03" rx="2.079" ry="2.03" transform="translate(15.729 17.318)" style="fill:#4d89f4"/>
        </g>
        <g data-name="Group 59600">
            <g data-name="Group 59599">
                <path data-name="Path 67157" d="M21.887 5.3H7.508c-.035 0-.067.009-.1.009L7.042 3.48c-.067-.483-.4-.772-1.022-.858H.775c-1.2.005-1.232 2.949 1.5 2.569l2.642-.022.471 2.2v.007l1.424 7.039a2.1 2.1 0 0 0 2.118 2.071h11.532a2.1 2.1 0 0 0 2.115-2.074L24 7.372A2.1 2.1 0 0 0 21.887 5.3zM9.529 14.417l-.047.006a.719.719 0 0 1-.8-.591l-.819-5.546a.7.7 0 0 1 .633-.78h.047a.723.723 0 0 1 .805.59l.814 5.546a.694.694 0 0 1-.633.775zm3.685.018-.053.006a.715.715 0 0 1-.774-.632l-.462-5.576a.7.7 0 0 1 .674-.74h.053a.713.713 0 0 1 .772.634l.464 5.575a.7.7 0 0 1-.674.733zm4.271-.665a.716.716 0 0 1-.738.68H16.7a.712.712 0 0 1-.72-.7l.094-5.587a.718.718 0 0 1 .738-.68h.052a.71.71 0 0 1 .716.7zm4.253-5.457-.953 5.526a.725.725 0 0 1-.821.571l-.047-.006a.691.691 0 0 1-.614-.791l.948-5.525a.729.729 0 0 1 .82-.573h.047a.7.7 0 0 1 .62.798z" style="fill:#4d89f4" transform="translate(0 -2.622)"/>
            </g>
        </g>
    </g>
</svg>
