<svg xmlns="http://www.w3.org/2000/svg" width="14" height="14" viewBox="0 0 14 14">
    <g data-name="Layer 2">
        <path data-name="Path 4702" d="M14.462 6.385a.538.538 0 0 0-.538.538v4.9a2.1 2.1 0 0 1-2.1 2.1H4.173a2.1 2.1 0 0 1-2.1-2.1v-7.65a2.1 2.1 0 0 1 2.1-2.1h4.9A.538.538 0 1 0 9.077 1h-4.9A3.177 3.177 0 0 0 1 4.173v7.655A3.177 3.177 0 0 0 4.173 15h7.655A3.177 3.177 0 0 0 15 11.827v-4.9a.538.538 0 0 0-.538-.542z" transform="translate(-1 -1)" style="fill:#4e89f4"/>
        <path data-name="Path 4703" d="M10 9.031v1.431a.477.477 0 0 0 .477.477h1.431a.477.477 0 0 0 .337-.14l4.194-4.194L14.334 4.5 10.14 8.694a.477.477 0 0 0-.14.337z" transform="translate(-4.108 -2.831)" style="fill:#4e89f4"/>
        <path data-name="Path 4704" d="M23.46 3.245a.477.477 0 0 0 0-.674L22.03 1.14a.477.477 0 0 0-.674 0L20.5 2l2.105 2.1z" transform="translate(-9.6 -1)" style="fill:#4e89f4"/>
    </g>
</svg>
