<svg xmlns="http://www.w3.org/2000/svg" width="23.738" height="13.726" viewBox="0 0 23.738 13.726">
    <path d="M22.522 6.61a1.211 1.211 0 0 0-.591.152l-5.369 3.1V6.893a1.839 1.839 0 0 0-1.832-1.832H1.834A1.84 1.84 0 0 0 0 6.893v10.062a1.838 1.838 0 0 0 1.834 1.832h12.9a1.837 1.837 0 0 0 1.832-1.832v-2.992l5.369 3.1a1.216 1.216 0 0 0 1.654-.44 1.245 1.245 0 0 0 .152-.592v-8.2a1.213 1.213 0 0 0-1.219-1.221zM9.572 9.86H3.381a.759.759 0 0 1-.772-.773v-.519a.756.756 0 0 1 .772-.768h6.191a.761.761 0 0 1 .776.771v.517a.764.764 0 0 1-.776.772z" transform="translate(0 -5.061)" style="fill:#4d89f4"/>
</svg>
