<svg xmlns="http://www.w3.org/2000/svg" width="22.999" height="23" viewBox="0 0 22.999 23">
    <g transform="translate(-.501 -.5)">
        <path data-name="Path 67165" d="M23.485 18.529a1 1 0 0 0-.062-.151 19.949 19.949 0 0 1-.96-4.548c-.132-1.29-.154-2.767-.173-4.339a47.228 47.228 0 0 1 .155-4.729.572.572 0 0 0-.29-.081c-1.006 0-1.787 2.932-1.74 6.537.008.452.026.893.058 1.318.5.145.84.429.847.759v.348a.012.012 0 0 0 .007 0 20.091 20.091 0 0 1-.858 4.752.794.794 0 0 0-.057.154 1.037 1.037 0 0 0-.011.118c.007.5.7.9 1.558.9s1.546-.413 1.537-.914a.875.875 0 0 0-.011-.124z" style="fill:#4d89f4"/>
        <path data-name="Path 67166" d="M3.885 8.085 3.7 5.569v-.734a.26.26 0 0 0-.519 0v3.187a.236.236 0 0 1-.2.12.25.25 0 0 1-.261-.242l-.039-1.7V4.835a.258.258 0 0 0-.516 0V8.05a.252.252 0 0 1-.2.116.248.248 0 0 1-.256-.246l-.082-1.835v-1.25a.259.259 0 0 0-.518 0v.389l-.35 2.861A1.192 1.192 0 0 0 1.856 9.2a35.594 35.594 0 0 1-1.275 8.891.85.85 0 0 0-.062.182.913.913 0 0 0-.016.137c-.014.6.666 1.077 1.521 1.077s1.56-.482 1.575-1.078a.722.722 0 0 0-.012-.138.056.056 0 0 1 0-.007.8.8 0 0 0-.051-.179A35.078 35.078 0 0 1 2.679 9.2a1.325 1.325 0 0 0 1.206-1.115z" style="fill:#4d89f4"/>
        <path data-name="Path 67167" d="M4.671 3.138a11.5 11.5 0 0 1 14.406-.2" style="fill:#4d89f4"/>
        <path data-name="Path 67168" d="M18.9 21.2A11.5 11.5 0 0 1 4.83 21" style="fill:#4d89f4"/>
        <path data-name="Path 67169" d="M6.727 21.789a1.534 1.534 0 1 1-1.534-1.533 1.535 1.535 0 0 1 1.534 1.533z" style="fill:#4d89f4"/>
        <path data-name="Path 67170" d="M17.748 11.824a5.656 5.656 0 1 1-5.654-5.658 5.652 5.652 0 0 1 5.654 5.658z" style="fill:#4d89f4"/>
        <path data-name="Path 67171" d="M16.309 11.824a4.217 4.217 0 1 1-4.215-4.218 4.217 4.217 0 0 1 4.215 4.218z" style="fill:#4d89f4"/>
        <circle data-name="Ellipse 361" cx="1.533" cy="1.533" r="1.533" transform="translate(3.66 1.091)" style="fill:#4d89f4"/>
        <path data-name="Path 67172" d="M19.762 2.624a1.535 1.535 0 1 1-1.534-1.535 1.536 1.536 0 0 1 1.534 1.535z" style="fill:#4d89f4"/>
        <path data-name="Path 67173" d="M19.762 21.789a1.535 1.535 0 1 1-1.534-1.533 1.537 1.537 0 0 1 1.534 1.533z" style="fill:#4d89f4"/>
    </g>
</svg>
