<svg xmlns="http://www.w3.org/2000/svg" width="18.3" height="16.776" viewBox="0 0 18.3 16.776">
    <g data-name="Group 59397">
        <g data-name="Group 23">
            <path data-name="Path 38" d="M194.707 203.28a.946.946 0 1 0 .946.946.946.946 0 0 0-.946-.946z" transform="translate(-189.258 -196.856)" style="stroke-width:.5px;stroke:#000"/>
            <path data-name="Path 39" d="M306.707 203.28a.949.949 0 0 0-.691.3.946.946 0 1 0 .691-.3z" transform="translate(-297.422 -196.856)" style="stroke-width:.5px;stroke:#000"/>
            <path data-name="Path 40" d="M418.707 202.72a.946.946 0 1 0 .946.946.962.962 0 0 0-.946-.946z" transform="translate(-405.586 -196.308)" style="stroke-width:.5px;stroke:#000"/>
        </g>
        <path data-name="Path 41" d="M137.642 72.238h-10.888A3.567 3.567 0 0 0 123.2 75.8v6.67a3.567 3.567 0 0 0 3.556 3.558h3.222l1.667 2.379a.664.664 0 0 0 1.111.022l1.667-2.4h3.222a3.567 3.567 0 0 0 3.556-3.558V75.8a3.567 3.567 0 0 0-3.556-3.558zm0 12.9H134.2a.377.377 0 0 0-.356.2l-1.644 2.331-1.622-2.335a.489.489 0 0 0-.356-.2h-3.467a2.675 2.675 0 0 1-2.667-2.668V75.8a2.675 2.675 0 0 1 2.667-2.668h10.889a2.675 2.675 0 0 1 2.667 2.668v6.67a2.675 2.675 0 0 1-2.667 2.668z" transform="translate(-123.048 -72.088)" style="stroke-width:.3px;stroke:#000"/>
    </g>
</svg>
