<svg xmlns="http://www.w3.org/2000/svg" width="23.999" height="19.195" viewBox="0 0 23.999 19.195">
    <g data-name="Group 59611">
        <path data-name="Path 67163" d="M23.514 19.2H.481a.48.48 0 0 0-.481.48v1.438a.478.478 0 0 0 .481.48h23.036a.479.479 0 0 0 .482-.48v-1.442a.483.483 0 0 0-.485-.476z" style="fill:#4d89f4" transform="translate(0 -2.402)"/>
        <path data-name="Path 67164" d="M1.7 16.8h20.6a.493.493 0 0 0 .492-.5A10.8 10.8 0 0 0 13.2 6.072V4.8h1.2a1.2 1.2 0 1 0 0-2.4H9.6a1.2 1.2 0 1 0 0 2.4h1.2v1.272A10.8 10.8 0 0 0 1.209 16.3a.491.491 0 0 0 .491.5z" style="fill:#4d89f4" transform="translate(0 -2.402)"/>
    </g>
</svg>
