<svg xmlns="http://www.w3.org/2000/svg" width="24.001" height="24" viewBox="0 0 24.001 24">
    <g data-name="Group 59620">
        <g data-name="Group 59616">
            <path data-name="Path 67176" d="M15.988 21.033A9.871 9.871 0 0 1 3.852 6.429l1.6 1.6.645-5.372L.72 3.3l1.607 1.605a12 12 0 0 0 14.519 18.074z" style="fill:#4d89f4"/>
        </g>
        <g data-name="Group 59617">
            <path data-name="Path 67177" d="M24 12A12 12 0 0 0 7.147 1.023l.859 1.945a9.873 9.873 0 0 1 12.144 14.6l-1.6-1.6-.645 5.371 5.372-.646-1.606-1.6A11.963 11.963 0 0 0 24 12z" style="fill:#4d89f4"/>
        </g>
        <g data-name="Group 59618">
            <circle data-name="Ellipse 362" cx="2.735" cy="2.735" r="2.735" transform="translate(9.228 5.618)" style="fill:#4d89f4"/>
        </g>
        <g data-name="Group 59619">
            <path data-name="Path 67178" d="M14.394 12h-4.86c-1.672 0-3.034.956-3.034 2.126v2.126h10.933v-2.126C17.432 12.956 16.065 12 14.394 12z" style="fill:#4d89f4"/>
        </g>
    </g>
</svg>
