<svg xmlns="http://www.w3.org/2000/svg" width="18.4" height="13.617" viewBox="0 0 18.4 13.617">
    <path data-name="Path 60386" d="M144.99 142.524v-10.048a1.585 1.585 0 0 1 1.585-1.585h14.831a1.585 1.585 0 0 1 1.585 1.585v10.048a1.585 1.585 0 0 1-1.585 1.585h-14.831a1.585 1.585 0 0 1-1.585-1.585zm17.269-7.919v-2.129a.854.854 0 0 0-.853-.853h-14.831a.853.853 0 0 0-.853.853v2.124zm-16.538.731v7.188a.853.853 0 0 0 .853.853h14.831a.853.853 0 0 0 .853-.853v-7.188zm14.321 3.038v1.982a.859.859 0 0 1-.859.859h-3.466a.859.859 0 0 1-.859-.859v-1.982a.859.859 0 0 1 .859-.859h3.466a.859.859 0 0 1 .859.86zm-.731 0a.127.127 0 0 0-.127-.128h-3.466a.127.127 0 0 0-.127.128v1.982a.127.127 0 0 0 .127.128h3.466a.127.127 0 0 0 .127-.128z" transform="translate(-144.79 -130.691)" style="stroke:#000;stroke-width:.4px;fill-rule:evenodd"/>
</svg>
