<svg xmlns="http://www.w3.org/2000/svg" width="114" height="36.672" viewBox="0 0 114 36.672">
    <defs>
        <clipPath id="rm0bmihjea">
            <path data-name="Rectangle 7741" style="fill:none" d="M0 0h114v20H0z"/>
        </clipPath>
    </defs>
    <g data-name="Group 59377">
        <g data-name="Group 59366">
            <path data-name="Path 60351" d="m229.925 26.432-3.957 11.693h-3.238l-3.957-11.693h2.878l2.768 8.99h.031l2.768-8.99z" transform="translate(-185.52 -22.414)" style="fill:#2b2d6c"/>
            <g data-name="Group 59367">
                <g data-name="Group 59366" style="clip-path:url(#rm0bmihjea)">
                    <path data-name="Path 60352" d="M296.572 56.858v1.66a4.206 4.206 0 0 1-1.595.292 1.582 1.582 0 0 1-1.611-1.276l-.031-.092a3.621 3.621 0 0 1-2.924 1.368c-1.564 0-2.611-.892-2.611-2.213 0-2.152 2-2.367 5.442-3.12v-.43a1.11 1.11 0 0 0-1.251-1.091A1.259 1.259 0 0 0 290.6 53.2l-2.377-.154c.047-1.583 1.579-2.644 3.862-2.644 2.174 0 3.643 1.107 3.643 2.8v3.166c0 .323.172.553.453.553a2.244 2.244 0 0 0 .391-.062m-3.331-1.368v-.707c-1.689.384-3 .6-3 1.522 0 .507.438.845 1.095.845a1.714 1.714 0 0 0 1.908-1.66" transform="translate(-244.054 -42.871)" style="fill:#2b2d6c"/>
                    <path data-name="Path 60353" d="M353.638 36.07v-9.638h2.6v9.5a.551.551 0 0 0 .61.553 1.931 1.931 0 0 0 .594-.108v1.737a4.516 4.516 0 0 1-1.642.308 2.141 2.141 0 0 1-2.158-2.352" transform="translate(-299.885 -22.483)" style="fill:#2b2d6c"/>
                    <path data-name="Path 60354" d="M394.237 51.431v8.1h-2.6V58.24h-.031a3.153 3.153 0 0 1-2.752 1.445 2.645 2.645 0 0 1-2.611-2.951v-5.3h2.6v4.8a1.319 1.319 0 0 0 1.313 1.46 1.542 1.542 0 0 0 1.486-1.737v-4.526z" transform="translate(-327.537 -43.746)" style="fill:#2b2d6c"/>
                    <path data-name="Path 60355" d="M457.091 55.013H450.9c.109 1.214.751 2.014 1.861 2.014a1.822 1.822 0 0 0 1.829-1.291l2.439.277c-.36 1.676-2.064 2.8-4.269 2.8a4.206 4.206 0 1 1 4.331-4.089zm-6.13-1.184h3.55c-.2-1.061-.844-1.722-1.751-1.722a1.867 1.867 0 0 0-1.8 1.722" transform="translate(-380.227 -42.871)" style="fill:#2b2d6c"/>
                    <path data-name="Path 60356" d="M518.467 28.492v2.859h4.8v2.029h-4.8v4.888h-2.705V26.432h8.366v2.06z" transform="translate(-437.366 -22.483)" style="fill:#2b2d6c"/>
                    <path data-name="Rectangle 7740" transform="translate(88.075 7.685)" style="fill:#2b2d6c" d="M0 0h2.596v8.101H0z"/>
                    <path data-name="Path 60357" d="m615.58 50.694-.58 2.29a2.43 2.43 0 0 0-1.2-.354c-1.22 0-2.033.968-2.033 2.413v3.612h-2.6v-8.1h2.6v1.66h.031a2.628 2.628 0 0 1 2.471-1.814 3.264 3.264 0 0 1 1.313.292" transform="translate(-516.575 -42.871)" style="fill:#2b2d6c"/>
                    <path data-name="Path 60358" d="m653.2 56.243 2.408-.2a1.371 1.371 0 0 0 1.517 1.214c.875 0 1.439-.369 1.439-.907 0-.692-.891-.845-1.908-1-1.454-.215-3.237-.6-3.237-2.413 0-1.522 1.486-2.536 3.706-2.536 2.127 0 3.612 1 3.706 2.505l-2.392.169a1.225 1.225 0 0 0-1.313-1.138c-.735 0-1.22.307-1.22.769 0 .584.844.753 1.829.907 1.47.231 3.315.63 3.315 2.459 0 1.645-1.564 2.736-3.925 2.736-2.236 0-3.815-1.015-3.925-2.567" transform="translate(-553.911 -42.871)" style="fill:#2b2d6c"/>
                    <path data-name="Path 60359" d="M712.99 40v3.6c0 .584.5.984 1.251.984a2.682 2.682 0 0 0 1.126-.246v1.752a5.307 5.307 0 0 1-1.939.384c-1.814 0-3.034-1.061-3.034-2.628V40h-1.235v-1.628h.172c1.173 0 1.657-.722 1.923-2.475h1.736v2.321h2.377V40z" transform="translate(-601.367 -30.533)" style="fill:#2b2d6c"/>
                    <path data-name="Path 60360" d="M580.59 26.484a1.564 1.564 0 1 1-1.564-1.537 1.55 1.55 0 0 1 1.564 1.537" transform="translate(-489.689 -21.219)" style="fill:#eb5c0b"/>
                    <path data-name="Path 60361" d="m17.042 10.888-.3-1.675-.775-4.321-.3-1.668v-.006A3.959 3.959 0 0 0 11.762 0a4.01 4.01 0 0 0-.686.059l-7.8 1.352A3.912 3.912 0 0 0 .06 5.923l1.376 7.67a3.968 3.968 0 0 0 4.589 3.159l3.482-.6a.037.037 0 0 0-.006.025l.373 2.167a.039.039 0 0 0 .07.016l1.894-2.61 1.989-.345a3.912 3.912 0 0 0 3.213-4.512M13.632 14.3l-7.8 1.352a2.861 2.861 0 0 1-.49.042 2.827 2.827 0 0 1-2.788-2.3L1.175 5.73a2.794 2.794 0 0 1 2.3-3.222l7.8-1.353a2.834 2.834 0 0 1 3.278 2.256v.007l1.373 7.657v.007a2.8 2.8 0 0 1-2.3 3.223" style="fill-rule:evenodd;fill:#2b2d6c"/>
                    <path data-name="Path 60362" d="M33.144 47.112a.692.692 0 0 0-.8-.553.683.683 0 0 0-.563.79 3.84 3.84 0 0 1-3.16 4.436 3.9 3.9 0 0 1-4.513-3.106.692.692 0 0 0-.8-.553.683.683 0 0 0-.562.789v.017a5.275 5.275 0 0 0 6.116 4.195 5.2 5.2 0 0 0 4.285-6.015z" transform="translate(-19.274 -39.594)" style="fill-rule:evenodd;fill:#2b2d6c"/>
                    <path data-name="Path 60363" d="m112.3 12.97-7.837-1.145a4 4 0 0 0-3.511 1.236l.32 1.54a2.85 2.85 0 0 1 3.025-1.675l7.837 1.145a2.8 2.8 0 0 1 2.383 3.16l-1.165 7.7a2.831 2.831 0 0 1-3.215 2.343l-7.837-1.141a2.829 2.829 0 0 1-1.619-.823 5.144 5.144 0 0 1-.958.616 3.961 3.961 0 0 0 2.411 1.308l2.07.3 1.74 2.466a.052.052 0 0 0 .093-.019l.4-2.082h.018l.005-.037 3.513.513a3.964 3.964 0 0 0 4.5-3.279l1.165-7.7c.184-2.216-1.472-4.318-3.336-4.425" transform="translate(-84.568 -10.022)" style="fill:#eb5c0b"/>
                    <path data-name="Path 60364" d="M117.113 60.518a.684.684 0 0 0-.59-.77.7.7 0 0 0-.1-.007.69.69 0 0 0-.686.586 5.208 5.208 0 0 0 4.491 5.868 5.268 5.268 0 0 0 5.967-4.4v-.017a.684.684 0 0 0-.59-.77.692.692 0 0 0-.784.579 3.89 3.89 0 0 1-4.4 3.256 3.845 3.845 0 0 1-3.312-4.327z" transform="translate(-98.103 -50.815)" style="fill:#eb5c0b"/>
                </g>
            </g>
        </g>
        <g data-name="Group 59368" transform="translate(-30 -14.328)">
            <rect data-name="Rectangle 7742" width="114" height="14" rx="3" transform="translate(30 37)" style="fill:#e2eaf2"/>
            <text data-name="MULTI CHANNEL" transform="translate(41 46)" style="font-size:8px;font-family:Helvetica;letter-spacing:.3em"><tspan x="0" y="0">MULTI CHANNEL</tspan></text>
        </g>
    </g>
</svg>
