<svg xmlns="http://www.w3.org/2000/svg" width="23.668" height="23.668" viewBox="0 0 23.668 23.668">
    <path data-name="Path 60387" d="M17.815 4.28a.629.629 0 0 0-.92 0l-3.04 3.02-3.16-3.14 3.02-3.02a.664.664 0 0 0 0-.94.689.689 0 0 0-.46-.2.639.639 0 0 0-.46.2l-3.04 3.02-1.92-1.92a.639.639 0 0 0-.46-.2.63.63 0 0 0-.44.2.664.664 0 0 0 0 .94l.38.38-3.606 3.606a3.676 3.676 0 0 0 0 5.22l.96.96-3.06 3.06a.664.664 0 0 0 0 .94.639.639 0 0 0 .46.2.607.607 0 0 0 .46-.2l3.08-3.08.96.96a3.732 3.732 0 0 0 2.62 1.1 3.682 3.682 0 0 0 2.62-1.1l3.586-3.606.38.38a.639.639 0 0 0 .46.2.607.607 0 0 0 .46-.2.664.664 0 0 0 0-.94l-1.92-1.92 3.02-3a.64.64 0 0 0 .02-.92zm-6.906 9.146a2.511 2.511 0 0 1-3.52 0l-2.82-2.82a2.487 2.487 0 0 1 0-3.5L8.255 3.4l6.34 6.34z" transform="rotate(-45 15.032 7.498)" style="stroke:#000;stroke-width:.1px"/>
</svg>
