<svg xmlns="http://www.w3.org/2000/svg" width="21.33" height="23.999" viewBox="0 0 21.33 23.999">
    <g data-name="Group 59596">
        <g data-name="Group 59592">
            <path data-name="Path 67154" d="M21.691 3.169A7.007 7.007 0 0 0 15.6.02V.014L15.3 0a.328.328 0 0 0-.287.312L14.93 1.34a.324.324 0 0 0 .07.26.281.281 0 0 0 .152.1l.256.013h.006a5.362 5.362 0 0 1 4.867 2.344 5.364 5.364 0 0 1-.029 5.4l-.1.235a.261.261 0 0 0 .02.183.323.323 0 0 0 .2.176l.962.378a.327.327 0 0 0 .406-.119l.121-.282h-.006a7.012 7.012 0 0 0-.164-6.859z" style="fill:#4d89f4" transform="translate(-1.335)"/>
        </g>
        <g data-name="Group 59593">
            <path data-name="Path 67155" d="M18.732 5.019a4.126 4.126 0 0 0-3.583-1.858l-.3-.013a.312.312 0 0 0-.273.3l-.077.988a.314.314 0 0 0 .069.246.252.252 0 0 0 .149.094l.217.013h.031a2.539 2.539 0 0 1 2.4 1.084 2.545 2.545 0 0 1-.083 2.627.163.163 0 0 0-.012.029l-.082.2a.241.241 0 0 0 .015.176.314.314 0 0 0 .193.168l.921.365a.32.32 0 0 0 .392-.114l.116-.274a4.133 4.133 0 0 0-.093-4.031z" style="fill:#4d89f4" transform="translate(-1.335)"/>
        </g>
        <g data-name="Group 59595">
            <g data-name="Group 59594">
                <path data-name="Path 67156" d="M14.122 9.24A1.86 1.86 0 1 0 12.9 8.029l-1.618 1.286C7.855 6.17 4.238 4.684 2.941 5.979a3.5 3.5 0 0 0-.532.635c-1.414 1.979-.66 5.38 1.292 8.439q.27.416.572.806l-2.9 7.12a.771.771 0 0 0 1.427.581s1.525-3.747 2.622-6.437a13.779 13.779 0 0 0 2.049 1.6l1.972 4.837a.768.768 0 0 0 1.42-.581l-1.249-3.087c2.451 1.049 4.882.873 6.312-.553l.188-.191c1.286-1.286-.175-4.868-3.279-8.279zm.922 8.84c-.857.858-4.024-.917-7.073-3.963S3.153 7.9 4.012 7.046c.773-.777 3.435.6 6.187 3.124l-1.865 1.473c-.321.322-.1 1.069.505 1.667.6.6 1.342.821 1.666.5l1.472-1.863c2.486 2.737 3.836 5.362 3.067 6.133z" style="fill:#4d89f4" transform="translate(-1.335)"/>
            </g>
        </g>
    </g>
</svg>
